<?xml version="1.0" encoding="utf-8"?>
<!-- Generator: Adobe Illustrator 25.0.0, SVG Export Plug-In . SVG Version: 6.00 Build 0)  -->
<svg version="1.1" xmlns="http://www.w3.org/2000/svg" xmlns:xlink="http://www.w3.org/1999/xlink" x="0px" y="0px"
	 viewBox="0 0 1170 648.5" style="enable-background:new 0 0 1170 648.5;" xml:space="preserve">
<style type="text/css">
	.st0{display:none;}
	.st1{display:inline;}
	.st2{fill:#010101;}
	.st3{opacity:0.7;fill:#C2D500;}
	.st4{opacity:0.7;fill:#A25EB5;}
	.st5{fill:#C2D500;}
</style>
<g id="Layer_1" class="st0">
	<g class="st1">
		<rect x="87" y="16.5" class="st2" width="1082" height="632"/>
	</g>
</g>
<g id="Layer_2">
	<rect x="192.5" y="45.7" class="st3" width="974.6" height="17.2"/>
	<rect x="477.1" y="264.2" class="st3" width="690" height="14.4"/>
	<rect x="635.3" y="350.5" class="st3" width="531.9" height="20.1"/>
	<rect x="710" y="471.2" class="st3" width="457.1" height="31.6"/>
	<rect x="687" y="543.1" class="st3" width="480.1" height="17.2"/>
	<rect x="635.3" y="594.8" class="st3" width="531.9" height="8.6"/>
	<rect x="572" y="620.7" class="st3" width="595.1" height="5.7"/>
	<rect x="672.6" y="385" class="st3" width="494.5" height="8.6"/>
	<rect x="362.2" y="100.3" class="st3" width="805" height="51.7"/>
	<rect x="192.5" y="8.4" class="st4" width="974.6" height="31.6"/>
	<rect x="376.5" y="83.1" class="st4" width="790.6" height="8.6"/>
	<rect x="474.3" y="178" class="st4" width="692.9" height="60.4"/>
	<rect x="471.4" y="307.3" class="st4" width="698.6" height="31.6"/>
	<rect x="698.5" y="416.6" class="st4" width="468.6" height="31.6"/>
	<rect x="695.6" y="520.1" class="st4" width="471.5" height="11.5"/>
	<rect x="666.9" y="574.7" class="st4" width="500.2" height="11.5"/>
	<rect x="618" y="609.2" class="st4" width="552" height="5.7"/>
</g>
<g id="Layer_3">
	<path class="st5" d="M573.1,334.7c-27.9,0-53.9,7.8-76,21.4c-3.9-6.5-12.2-21.3-14-25.2c-2.1-4.7-8.9-19.1-8.9-19.1s0.8-2.1,1-3.4
		c0.3-1.3,1-3.9-0.3-3.9c-1.3,0-5.2,0-5.2,0l17.6-59c0,0,2.4-8.4,3.4-9.7c1-1.3,9.7-3.7,11.1-3.7c1.3,0,2.1-1,3.1-1.6
		c1-0.5,2.6-2.6,2.6-2.6s9.7-0.3,11.3-1c1.6-0.8,6-5.2,6.8-6.6c0.8-1.3,1-1.6,6.3-1.6c5.2,0,6.6-2.1,10-4.5c3.4-2.4,5.5-3.9,8.1-6
		c2.6-2.1,0.3-3.4,0-5.1c-0.3-1.6-4.2-0.2-6.6,0c-2.1,0.2-15,1.4-20.6,1.8c3.2-2.6,5.5-4.5,6.2-5.1c4.2-3.9,14.8-20.6,16.8-26.1
		c1.9-5.5-0.6-24.5-2.3-31c-1.6-6.5-10.6-18.7-14.8-24.2c-4.2-5.5-28.1-17.4-33.2-19c-5.2-1.6-9.7-4.5-15.8-7.4
		c0,0-14.8-10.6-24.8-14.2c-10-3.5-67.7-14.2-78.4-14.5c-10.6-0.3-61.6-0.3-67.1-0.3s-47.4,7.1-53.6,7.4c-6.1,0.3-12.3-0.6-17.1-2.3
		c-4.8-1.6-9-6.8-10-7.7c-1-1-1.6-5.2-1.3-6.1c0.3-1-1.3-5.5-1.3-5.5s1-4.5,1.9-5.2c1-0.6,4.8-3.9,5.2-7.1c0.3-3.2-7.1-2.9-7.4-4.2
		c-0.3-1.3,0.6-2.3,1.9-3.2c1.3-1,1.6-4.2,0.6-5.8c-1-1.6-2.9-1.3-4.5-1.3c-1.6,0-4.5-2.3-5.5-4.2c-1-1.9,1.9-8.1,1.9-8.1
		s-7.4,2.3-10.3,1.9c-2.9-0.3-0.3-11.6-0.3-11.6S199,7.4,197.1,9.7c-1.9,2.3-6.8-0.6-8.1,0c-1.3,0.6-10,4.5-16.1,7.1
		c-6.1,2.6-26.5,15.8-32.6,21c-6.1,5.2-9.4,16.1-10,24.8c-0.6,8.7,4.2,23.9,5.2,25.5c1,1.6,2.3,1.3,3.5,1.3c1.3,0,6.8-3.2,6.8-3.2
		s0,2.6,1.3,5.2c1.3,2.6,4.8,5.8,5.8,7.7c1,1.9-1.3,9.7-1,13.5c0.3,3.9,1,6.8,3.5,6.1c2.6-0.6,8.1-1.3,8.1-1.3s0.3,3.5,0.6,4.8
		c0.3,1.3,1.9,1,2.9,1.3c1,0.3,3.5,2.6,3.5,3.5c0,1,0.3,5.2,0.6,6.1c0.3,1,2.3,1.9,2.3,1.9s0,2.9,0.6,5.5c0.6,2.6,3.2,4.5,5.8,4.5
		c2.6,0,5.8-2.9,8.4-4.2c2.6-1.3,9-2.9,13.2-3.5c4.2-0.6,20.3-1,24.8-0.3c4.5,0.6,4.8,1.6,9.7,5.8c3.8,3.3,8.2,9,12.1,13.2l3,6.5
		c0,0,3.5,22.6,4.5,26.8c1,4.2,2.9,19.4,2.6,20.6c-0.3,1.3-3.9,8.1-9,13.5c-2.5,2.6-7.5,5.6-12.8,8.4c-1.7-0.2-3.6-0.4-4.4-0.5
		c-1.6-0.3-21.2-4.2-21.2-4.2s-1.8-1-2.1-2.1c-0.3-1-7.9-2.1-7.9-2.1s-7.6-1.3-9.7-1.6c-2.1-0.3-8.9-1-8.9-1s0,0-0.5-1
		c-0.5-1-7.9-2.1-11.5-2.9c-3.7-0.8-15.2-5.5-15.2-6.3c0-0.8-1-5.5-1-8.4c0-2.9-2.1-5.5-3.1-6.6c-1-1-3.7-0.5-3.7-0.5s0,0,0.3-2.1
		c0.3-2.1-1.3-3.9-2.1-5.2c-0.8-1.3-4.2-1.3-6.6-1.6c-2.4-0.3-3.1,0.8-8.9,6.6c-5.8,5.8-2.1,3.7-2.9,4.5c-0.8,0.8-1.8,4.2-2.1,5.5
		c-0.3,1.3,0.5,2.9,1.6,4.3c1,1.3,3.1,3.1,3.1,3.1s-1,3.7-1.6,4.5c-0.5,0.8-1.3,4.7-0.8,6.3c0.5,1.6,0.5,16,0.3,18.1
		c-0.3,2.1-1.8,17.3-2.4,18.9c-0.5,1.6-5,6-5,7.3s1,1.3,2.4,1c1.3-0.3,5.5-3.1,8.3-5.5c2.8-2.4,4.3-6,4.3-6s-0.8,4.2-1,6
		c-0.3,1.8-2.1,3.4-2.6,5.5c-0.5,2.1-1,1.8,0,2.4c1,0.5,4.5-2.4,4.5-2.4s4.2-3.4,6-5.2c1.8-1.8,3.7-6.6,4.5-8.4
		c0.8-1.8,0.5-4.5,0.3-5.8c-0.3-1.3-4.2-5.2-4.2-6c0-0.8,0.3-8.7,0.3-10.8c0-2.1,1.3-1.8,2.6-1c1.3,0.8,4.2,3.4,4.2,3.4
		s5,3.4,5.2,4.5c0.3,1-0.8,3.4-0.8,7.3c0,1.3,0,2.6,0.1,4.1c-0.5,0.5-2.5,2.3-3.1,3.1c-0.6,1-1,2.3-0.6,4.5c0.3,2.3,3.5,3.2,3.5,3.2
		s0,1.9-0.3,3.5c-0.3,1.6,0.3,3.5,1.3,5.5c1,1.9,4.5,2.9,4.5,2.9s0.3,1.9,0.3,4.2s1,2.6,2.6,2.9c1.3,0.3,4,0.5,4.9,0.6
		c0.1,0.1,0.2,0.2,0.3,0.3c0,1-0.1,4,1,6.1c1.2,2.5,4,1.4,6.2,0.1c3.6,2.8,7.3,5.3,7.9,5.7c1,0.8,6.8,3.1,11.3,4.5
		c4.5,1.3,11.3,5.2,12.3,5.5c1,0.3,4.5,7.6,4.5,7.6l-1.3,3.9l-4.7,15c0,0-3.1,9.7-3.7,11c-0.3,0.7-1.5,3.5-2.5,6.2
		c-16.3-6.3-33.9-9.7-52.4-9.7C65.3,334.7,0,400,0,480.6c0,80.6,65.3,145.9,145.9,145.9c80.6,0,145.9-65.3,145.9-145.9
		c0-54.9-30.4-102.7-75.2-127.6c3.3-5.2,7.2-11.2,7.8-11.9c1-1-1-2.6-1-2.6s11.8,4.7,15,6.6c3.1,1.8,11.3,9.2,14.9,12.9
		c3.7,3.7,9.4,11.3,14.2,17.3c4.7,6,17.6,21,21.5,25.2c3.9,4.2,60.1,70.6,62.2,73.4c0.2,0.2,0.4,0.6,0.8,1c-1.6,1.9-4,4.3-4.8,6.2
		c-1.3,2.9-8.4,15.5-10.6,19.7s-14.5,16.1-19,19.4c-4.5,3.2-13.2,7.7-13.5,10.6c-0.3,2.9,0.3,6.8,1.6,9c1.3,2.3,8.7,2.3,15.8,1.9
		c1.2-0.1,2.7-0.2,4.5-0.4c1.2,2.6,4.2,3.9,6.9,2.9c0.2-0.1,0.4-0.2,0.6-0.3l0,0.1l9.5-3.5l0.2,0l0,0l0.1,0c0.2,0,0.3,0,0.5,0
		c1.7-0.3,3.1-1.4,3.9-2.9c2.6-0.6,4.7-1.3,6.1-1.9c2-0.9,4.6-2.6,7.4-4.7c0,0,0.1,0.1,0.1,0.1l0,0c0,0,0,0,0,0
		c0.2,0.5,0.1,1-0.3,1.4c0,0.2,0,0.5,0.1,0.7c0.1,0.2,0.2,0.4,0.4,0.6c0,0.1,0,0.1,0.1,0.2c0.1,0.2,0.3,0.4,0.5,0.6
		c0.5,0,0.9,0.2,1.2,0.6l0,0c0,0,0,0,0,0c0.2,0.5,0.2,1-0.1,1.4c0,0.2,0.1,0.5,0.2,0.7c0.4,0.7,1.1,1,1.8,1c0.1,0.1,0.3,0.1,0.4,0.3
		c0,0,0,0,0,0c0,0,0,0,0,0c0.3,0.4,0.3,1,0,1.4c0,0.2,0.1,0.5,0.3,0.7c0.1,0.2,0.3,0.3,0.4,0.4c0,0,0,0.1,0.1,0.1
		c0.2,0.2,0.4,0.4,0.6,0.5c0.4-0.1,0.9,0,1.3,0.3l0,0c0,0,0,0,0,0c0.3,0.4,0.4,0.9,0.2,1.4c0.1,0.2,0.2,0.3,0.3,0.5
		c0.1,0.2,0.2,0.5,0.4,0.7c0.2,0.2,0.4,0.3,0.6,0.4c0.4-0.1,0.9,0,1.3,0.3c0,0,0,0,0,0c0,0,0,0,0,0c0.3,0.4,0.4,0.9,0.2,1.4
		c0.1,0.2,0.2,0.5,0.4,0.6c0.2,0.2,0.4,0.3,0.6,0.4c0,0,0,0,0,0c0.2,0.2,0.4,0.3,0.6,0.4c0.4-0.2,0.9-0.1,1.3,0.2l0,0c0,0,0,0,0,0
		c0.4,0.4,0.5,0.9,0.3,1.4c0.1,0.2,0.2,0.4,0.4,0.6c0.2,0.1,0.3,0.2,0.5,0.3c0,0,0,0.1,0.1,0.1c0.2,0.2,0.4,0.3,0.7,0.3
		c0.4-0.2,0.9-0.2,1.3,0c0,0,0,0,0,0c0,0,0,0,0,0c0.4,0.3,0.6,0.8,0.5,1.3c0.1,0.2,0.3,0.4,0.5,0.6c0,0,0.1,0,0.1,0.1
		c0.1,0.2,0.3,0.3,0.5,0.4c0.2,0.1,0.5,0.2,0.7,0.2c0.4-0.3,0.9-0.4,1.3-0.2c0,0,0,0,0,0c0,0,0,0,0,0c0.5,0.2,0.7,0.7,0.7,1.2
		c0.2,0.2,0.3,0.4,0.6,0.5c0.1,0.1,0.3,0.1,0.5,0.1c0.1,0,0.2,0.1,0.3,0.1c0.2,0.1,0.5,0.1,0.7,0.1c0.3-0.3,0.8-0.5,1.3-0.4l0,0
		c0,0,0,0,0,0c0.5,0.2,0.8,0.6,0.9,1.1c0.2,0.2,0.4,0.3,0.7,0.4c0.2,0.1,0.4,0.1,0.7,0.1c0.1,0,0.1,0.1,0.2,0.1
		c0.3,0.1,0.5,0.1,0.8,0c0.3-0.4,0.7-0.6,1.2-0.5l0,0c0,0,0,0,0,0c0.5,0.1,0.9,0.5,1,1c0.2,0.1,0.4,0.3,0.7,0.3c0.1,0,0.2,0,0.3,0
		c0.1,0,0.2,0.1,0.3,0.1c0.3,0.1,0.5,0.1,0.8,0c0.3-0.4,0.7-0.6,1.2-0.5c0,0,0,0,0,0c0,0,0,0,0,0c0.5,0.1,0.9,0.5,1,1
		c0.2,0.1,0.4,0.3,0.7,0.3c0.3,0.1,0.5,0.1,0.8,0c0.1,0,0.1,0,0.2,0c0.3,0,0.5-0.1,0.7-0.2c0.2-0.4,0.6-0.7,1.1-0.8c0,0,0,0,0,0
		c0,0,0,0,0,0c0.5,0,1,0.3,1.2,0.8c0.2,0.1,0.5,0.2,0.7,0.2c0.1,0,0.1,0,0.2,0c0.1,0,0.1,0,0.2,0c0.3,0,0.5-0.1,0.7-0.2
		c0.2-0.4,0.6-0.7,1.1-0.8c0,0,0,0,0,0c0,0,0,0,0,0c0.5,0,1,0.3,1.2,0.8c0.2,0.1,0.5,0.2,0.7,0.2c0.1,0,0.1,0,0.2,0
		c0.1,0,0.1,0,0.2,0c0.3,0,0.5-0.1,0.7-0.2c0.2-0.4,0.6-0.7,1.1-0.8c0,0,0,0,0,0c0,0,0,0,0,0c0.5,0,1,0.3,1.2,0.8
		c0.2,0.1,0.5,0.2,0.7,0.2c0.1,0,0.1,0,0.2,0c0.1,0,0.2,0.1,0.3,0.1c0.3,0,0.5-0.1,0.7-0.2c0.2-0.4,0.6-0.7,1.1-0.7
		c0.5,0,0.9,0.2,1.1,0.6c0.2,0.1,0.5,0.1,0.8,0.1c0.1,0,0.1,0,0.2,0c0.1,0,0.1,0,0.2,0c0.3,0,0.5-0.1,0.7-0.2
		c0.2-0.4,0.6-0.7,1.1-0.7c0.5,0,0.9,0.2,1.1,0.6c0.2,0.1,0.5,0.1,0.8,0.1c0.1,0,0.1,0,0.2,0c0.1,0,0.1,0,0.2,0
		c0.3,0,0.5-0.1,0.7-0.2c0.2-0.4,0.6-0.7,1.1-0.7c0.5,0,0.9,0.2,1.1,0.6c0.2,0.1,0.5,0.1,0.8,0.1c0.1,0,0.1,0,0.2,0
		c0.1,0,0.1,0,0.2,0c0.3,0,0.5-0.1,0.7-0.2c0.2-0.4,0.6-0.7,1.1-0.7c0.5,0,0.9,0.2,1.1,0.6c0.2,0.1,0.5,0.1,0.8,0.1
		c0.1,0,0.1,0,0.2,0c0.1,0,0.1,0,0.2,0c0,0,0,0,0,0c0.1,0,0.1,0,0.2,0c0.3,0,0.5-0.1,0.7-0.2c0.2-0.4,0.6-0.6,1-0.7
		c0.4,0,0.7,0.2,0.9,0.6c0.2,0.1,0.5,0.1,0.8,0.1c0,0,0,0,0.1,0c0.1,0,0.1,0,0.2,0c0.1,0,0.1,0,0.2,0c0.1,0,0.1,0,0.2,0
		c0.3,0,0.5-0.1,0.7-0.2c0.2-0.4,0.6-0.6,1-0.7c0.4,0,0.7,0.2,0.9,0.6c0.2,0.1,0.5,0.1,0.8,0.1c0,0,0,0,0.1,0c0.1,0,0.1,0,0.2,0
		c0.1,0,0.1,0,0.2,0c0.1,0,0.1,0,0.2,0c0.3,0,0.5-0.1,0.7-0.2c0.2-0.4,0.6-0.6,1-0.7c0.4,0,0.7,0.2,0.9,0.6c0.2,0.1,0.5,0.1,0.8,0.1
		c0,0,0,0,0.1,0c0.1,0,0.1,0,0.2,0c0.1,0,0.1,0,0.2,0c0.1,0,0.1,0,0.2,0c0.3,0,0.5-0.1,0.7-0.2c0.2-0.4,0.6-0.6,1-0.7
		c0.4,0,0.7,0.2,0.9,0.6c0.2,0.1,0.5,0.1,0.8,0.1c0,0,0,0,0.1,0c0.1,0,0.1,0,0.2,0c0.1,0,0.1,0,0.2,0c0.1,0,0.1,0,0.2,0
		c0.3,0,0.5-0.1,0.7-0.2c0.2-0.4,0.6-0.7,1.1-0.7c0.2,0,0.4,0.1,0.6,0.2c0.2,0.1,0.3,0.3,0.4,0.4c0,0,0,0,0,0c0,0,0,0,0,0
		c0.2,0.1,0.5,0.1,0.8,0.1c0.1,0,0.1,0,0.2,0c0.1,0,0.1,0,0.2,0c0.3,0,0.5-0.1,0.7-0.2c0.2-0.4,0.6-0.7,1.1-0.7
		c0.2,0,0.4,0.1,0.6,0.2c0.2,0.1,0.3,0.3,0.4,0.4c0,0,0,0,0,0c0,0,0,0,0,0c0.2,0.1,0.5,0.1,0.8,0.1c0.1,0,0.1,0,0.2,0
		c0.1,0,0.1,0,0.2,0c0,0,0,0,0.1,0c25.7,41.5,71.7,69.1,124,69.1c80.6,0,145.9-65.3,145.9-145.9C719,400,653.7,334.7,573.1,334.7z
		 M138.2,217.4c-0.1,0.9-0.7,2.9-0.7,2.9s-1.5,1.4-1.6,3.8c-0.1,2.4,0.7,15,0.7,15s-2-2.1-2.6-2.5c-0.7-0.4-1-0.4-1-1.3
		c0-0.9,0.8-6,0.8-7.8c0-1.8,1.5-4,1.9-7c0.5-3,1.2-4.6,1.2-4.6S138.3,216.5,138.2,217.4z M208.5,241.9c-0.5,0.1-1.1,0.2-1.6,0.3
		C207.3,242,207.7,241.8,208.5,241.9z M188.1,242.6c-2.2-0.9-3.8-2.3-5-3.5c0.2,0,0.3,0,0.5,0c4.5,0,9.7,1.6,11.5,2.4
		c1,0.4,3.3,1.2,5.3,1.9c-1.6,0.2-3.2,0.3-4.6,0.3c-2.1,0-4.4-0.2-6.6-0.5C188.8,242.9,188.4,242.8,188.1,242.6z M206.4,370
		c0.9,0.5,1.8,1,2.7,1.5l-32.9,51.1c1.2-2.5,2.2-4.5,2.7-5.5C181,413,197.4,385.2,206.4,370z M191.1,362.9
		c-7.4,16.6-20,44-20.9,46.4c-0.9,2.3-9.2,21.8-15,34.8l-1-10.3l25.5-74.6C183.5,360.2,187.3,361.4,191.1,362.9z M176.6,482.7
		c1.3,0.9,1.9,2.3,1.4,3c-0.5,0.7-2,0.5-3.3-0.4c-1.3-0.9-1.9-2.3-1.4-3C173.8,481.6,175.3,481.7,176.6,482.7z M174,475.9
		c0.3-0.8,1.8-1,3.3-0.5c1.5,0.6,2.5,1.7,2.2,2.5c-0.3,0.8-1.8,1-3.3,0.5C174.7,477.8,173.7,476.7,174,475.9z M174.3,489.6
		c1,1.2,1.3,2.7,0.6,3.2c-0.7,0.6-2,0-3.1-1.2c-1-1.2-1.3-2.7-0.6-3.2C171.9,487.9,173.2,488.4,174.3,489.6z M151.8,500.3l0.9-2.5
		c0.3,0.2,0.7,0.3,1.1,0.3c1.3,0,2.4-1.1,2.4-2.4c0-1-0.6-1.8-1.5-2.2c0-0.1-0.1-0.2-0.1-0.3l0,0l7.5,3.6
		C159,498.7,155.6,500,151.8,500.3z M158,503.6c-0.2,1.6-1,2.8-1.9,2.7c-0.9-0.1-1.4-1.4-1.3-3c0.2-1.6,1-2.8,1.9-2.7
		C157.6,500.6,158.2,502,158,503.6z M123.1,491.3c-0.1-0.9,1-1.8,2.6-2c1.2-0.2,2.3,0,2.8,0.6l-2.2,2.5c0,0-0.1,0-0.1,0
		C124.7,492.6,123.3,492.1,123.1,491.3z M124.7,495.8l-0.3,0.1l0.2-0.2C124.6,495.7,124.6,495.7,124.7,495.8z M146.5,453.8l-2.1,6.2
		c-0.2-0.1-0.5-0.1-0.7-0.1c-1.3,0-2.4,1.1-2.4,2.4c0,1,0.7,1.9,1.6,2.2l-0.3,0.7l-10-4.5C136.3,456.9,141.1,454.4,146.5,453.8z
		 M135.4,450.3c0.9-0.1,1.8,1,2,2.6c0.3,1.6-0.2,3-1.1,3.1c-0.9,0.1-1.8-1-2-2.6C134,451.8,134.5,450.4,135.4,450.3z M140.7,450.5
		c0.2-1.6,1-2.8,1.9-2.7c0.9,0.1,1.4,1.4,1.3,3c-0.2,1.6-1,2.8-1.9,2.7C141.1,453.4,140.6,452,140.7,450.5z M167.2,461.8
		c-0.4,0.2-0.8,0.5-1.1,0.7c-1.2,0.8-0.7,3-0.9,4.3c-0.1,0.5,0.2,1.2,0.6,1.8l-8.1,1.8l-0.7-7c0.5-1,0.9-2,1.4-3
		c0.4-0.8,1.1-2.3,1.9-4.1C163,457.6,165.3,459.5,167.2,461.8z M161,454.9c0.3-0.7,0.7-1.5,1.1-2.4c0.1-0.1,0.2-0.2,0.3-0.3
		c1.2-1,2.7-1.3,3.2-0.6c0.5,0.7,0,2-1.3,3c-1.2,1-2.7,1.3-3.2,0.6C161,455.2,161,455,161,454.9z M168.9,457.9
		c0.2,0.5,0.3,1,0.3,1.4c-1.4,0.5-2.7,0.4-3-0.4c-0.4-0.8,0.5-2,2-2.6c0.8-0.3,1.5-0.5,2.1-0.4C169.4,456.4,168.5,457.1,168.9,457.9
		z M160,470.7l6.4-1.4c0.6,0.7,1.3,1.4,1.9,2L160,470.7z M168.2,472.1l-0.5,0.6c-0.2-0.3-0.4-0.5-0.6-0.7L168.2,472.1z M154.8,492.5
		l-0.2-0.1l1.4-4c0.4-0.4,0.6-0.9,0.7-1.4l0,0l0,0l0.1-0.1l2.8-2l4.7,9.2L154.8,492.5z M164.5,494.9c-0.6,0.5-1.2,0.9-1.8,1.4
		l-5.5-2.6L164.5,494.9z M154.4,471.9l0.8,2.1c-0.7-0.1-1.3-0.3-1.8-0.6c0.1-0.4,0.2-0.9,0.4-1.4L154.4,471.9z M154,471.2
		c0-0.1,0-0.2,0.1-0.2h0l0.1,0.2L154,471.2z M153.8,489.1c0.1,0,0.1,0,0.2,0l-0.3,0.5c0-0.1,0-0.3,0-0.4L153.8,489.1z M154.9,489.1
		l-0.9,2.7c-0.1-0.3-0.2-0.7-0.2-1L154.9,489.1z M158.5,481c0-0.1,0.1-0.2,0.1-0.3l1.3,1.5l-0.5,0.6L158.5,481z M159.3,484.3
		l-0.7,0.5l0.6-0.7L159.3,484.3z M158,474l-0.3-2.7l6.8,0.5c-0.5,0.3-0.9,0.8-1.1,1.3c-1,0.2-2.2,0.5-2.9,0.6
		C160.1,473.8,159.1,473.9,158,474z M158.1,481.9l0.8,1.5l-2.1,2.6c-0.1-0.7-0.2-1.7-0.1-2.5c0-0.2,0.1-0.4,0.2-0.6
		C157.4,482.7,157.8,482.4,158.1,481.9z M159.7,483.5l0.6-0.7l0.5,0.5l-0.9,0.6L159.7,483.5z M160.3,481.6l-1.8-2
		c0.5-0.7,1.2-1.4,2-2c1.5-0.6,3-1.3,4.1-1.7c0.1,0,0.2,0.1,0.3,0.1L160.3,481.6z M157,471.3l0.3,2.7c-0.4,0-0.9,0-1.3,0l-0.9-2.3
		L157,471.3z M154.6,470.3l-0.2-0.4c0.6-1.6,1.2-3.3,2-5l0.5,5.6L154.6,470.3z M154.1,446.3c-1.4-0.2-2.7-0.4-4.1-0.4c0,0,0,0,0,0
		l3.6-10.4l1,10C154.4,445.7,154.3,446,154.1,446.3z M131.5,486.3C131.6,486.3,131.6,486.3,131.5,486.3L131.5,486.3l-3.7-0.1
		c-0.5-1.1-0.9-2.3-1.2-3.5l5.9-4.2l1.5,1.7c-0.9,0.6-1.7,1.1-2.3,1.4c-0.1,0-0.1,0-0.2,0c-1.3,0-2.4,1.1-2.4,2.4
		C129.2,485.2,130.2,486.3,131.5,486.3z M129.3,489c-0.4-0.7-0.7-1.3-1.1-2l2.7,0.1L129.3,489z M129.4,494.9
		c0.8-0.4,1.7-0.5,2.3-0.4l-2.5,0.4C129.3,494.9,129.3,494.9,129.4,494.9z M132.7,477.5l-5.9-6.7c0.2-0.6,0.3-1.2,0.6-1.8l6.6,1.3
		l2.4,4.6L132.7,477.5z M136.7,475.6l1,1.9c-1,0.8-2,1.6-3,2.2l-1.5-1.7L136.7,475.6z M132.1,478l-5.6,3.9c-0.4-1.7-0.6-3.5-0.5-5.3
		c0-1.7,0.2-3.3,0.6-4.8L132.1,478z M133.1,485.7c0.1-0.1,0.1-0.1,0.2-0.2l1.1-1.3c0.6-0.3,1.2-0.5,1.7-0.5c0.4,0,0.8,0,1.1,0.1
		l0.3,0.3c-0.2,0.3-0.3,0.7-0.3,1.1c0,0.6,0.2,1.1,0.5,1.5l-5.3-0.3L133.1,485.7z M137.3,475.2l1-0.7c0,0.1,0,0.1,0,0.2
		c0,0.7,0.3,1.3,0.7,1.8c-0.2,0.2-0.5,0.4-0.8,0.6L137.3,475.2z M139.6,487.7l0.1,1.8l-0.8-1.9C139.2,487.7,139.4,487.7,139.6,487.7
		z M138.8,473.2l-1.9,1.3l-2.1-4l5.5,1.1l-0.2,0.6C139.6,472.4,139.1,472.7,138.8,473.2z M140.7,487.6l1.9,0.1
		c0.3,0.3,0.7,0.7,1.1,1c0.4,0.3,0.8,0.5,1.3,0.7c-0.2,0.4-0.4,0.8-0.4,1.2c0,0.6,0.2,1,0.5,1.5l-4.2,0.8l-0.3-0.9l-0.3-4.3
		C140.5,487.6,140.6,487.6,140.7,487.6z M143.4,466.3c0,0.4,0,1.1,0,1.8c-0.5,1.1-1,2.1-1.5,3.1l-0.5-0.1l1.7-4.9L143.4,466.3z
		 M143.3,465.4L143.3,465.4C143.3,465.4,143.3,465.4,143.3,465.4L143.3,465.4z M141.9,486.9l-0.3,0c0.1-0.1,0.1-0.1,0.1-0.2
		C141.8,486.8,141.9,486.8,141.9,486.9z M141.6,471.9c-0.1,0.1-0.1,0.2-0.2,0.3c-0.1,0-0.3-0.1-0.4-0.1l0.1-0.3L141.6,471.9z
		 M145.9,492.7c0.4,0.3,0.8,0.4,1.4,0.4c0.7,0,1.4-0.3,1.8-0.8c0.1,0.1,0.2,0.3,0.3,0.4c0.4,0.6,0.7,1,1,1.5l-4.1,6
		c-0.9-0.1-1.7-0.3-2.6-0.5l-2.4-6.2L145.9,492.7z M149.7,455.7c-0.1,0.1-0.2,0.3-0.3,0.5l-0.9-2.6c0.5,0,0.9-0.1,1.4,0
		c0.3,0,0.6,0,0.9,0.1C150.3,454.6,149.9,455.3,149.7,455.7z M150.4,450.2c-0.5,1.4-1.6,2.3-2.4,2.1l-0.1-0.4l1.7-5
		c0.1,0,0.2,0,0.3,0C150.8,447.3,151,448.7,150.4,450.2z M147.5,450.8l-0.3-0.8c0.1-0.3,0.1-0.6,0.2-1c0.3-0.8,0.8-1.4,1.3-1.8
		L147.5,450.8z M147.3,453.7c0.1,0,0.3,0,0.4,0l1.2,3.4c-0.8,1.4-1.8,3.4-2.9,5.7c0,0-0.1,0-0.1,0c0-0.2,0.1-0.3,0.1-0.5
		c0-0.8-0.4-1.4-1-1.9L147.3,453.7z M142.4,465.8l-1.7,5.1l-6.2-1.2l-3.6-6.9c0.4-0.5,0.8-1.1,1.3-1.5L142.4,465.8z M131.5,460.1
		l-2.4-1.1c-0.2-0.2-0.3-0.5-0.4-0.8c-0.7-1.5-0.5-2.9,0.3-3.3c0.8-0.4,2,0.5,2.6,2C132.2,458.3,132.1,459.6,131.5,460.1z
		 M130.3,463.4l3.2,6.1l-5.8-1.1C128.3,466.6,129.2,464.9,130.3,463.4z M127.6,465.7c-0.7,0.6-2,0-3.1-1.2c-1-1.2-1.3-2.7-0.6-3.2
		c0.7-0.6,2,0,3.1,1.2C128,463.7,128.3,465.1,127.6,465.7z M125.5,483.6c0.3,0.3,0.5,0.6,0.5,0.9c-0.1,0.9-1.4,1.5-3,1.3
		c-0.2,0-0.3-0.1-0.4-0.1L125.5,483.6z M121.5,485.4c-0.8-0.4-1.4-0.9-1.4-1.5c0.1-0.9,1.4-1.5,3-1.3c0.6,0.1,1.2,0.2,1.6,0.5
		L121.5,485.4z M121,464.3l-11.8-13.4l15.6,7C123.4,459.9,122,462,121,464.3z M122.1,468L122.1,468c0.7,0.1,1.3,0.4,1.9,0.8l1.5,1.6
		c0.2,0.5,0.3,1,0,1.3c-0.5,0.7-2,0.5-3.3-0.4c-1.3-0.9-2-2.3-1.4-3C121,468.1,121.5,468,122.1,468z M122.7,475.7
		c1.5,0.6,2.5,1.7,2.2,2.5c-0.3,0.8-1.8,1-3.3,0.5c-1.5-0.6-2.5-1.7-2.2-2.5C119.7,475.4,121.2,475.2,122.7,475.7z M120.1,487.4
		c1,2.7,2.3,5.3,4,7.6l-0.9,1.1l-20.6,3.7L120.1,487.4z M128.8,490.7c-0.1,0.4-0.4,0.8-0.9,1.1L128.8,490.7z M127.9,496l4.8-0.9
		c0,0,0,0,0,0c0.4,0.8-0.5,2-2,2.6c-1.5,0.7-2.9,0.5-3.3-0.3C127.2,497.1,127.4,496.5,127.9,496z M129.7,489.7l2.2-2.5l6.3,0.3
		l1.8,4.7l0.1,0.9l-6.5,1.2C132,492.9,130.7,491.3,129.7,489.7z M134.5,499.3c1.2-1,2.7-1.3,3.2-0.6c0.5,0.7,0,2-1.3,3
		c-1.2,1-2.7,1.3-3.2,0.6C132.7,501.7,133.3,500.3,134.5,499.3z M134.2,494.8l5.9-1.1l0.4,4.9C138.1,497.7,136,496.4,134.2,494.8z
		 M140.7,502.4l0.3,3.3c-0.2,0-0.4-0.1-0.6-0.2C139.7,505,139.9,503.6,140.7,502.4z M140.9,494.5l1.9,5c-0.5-0.2-1.1-0.3-1.6-0.5
		L140.9,494.5z M143.3,500.7l0.8,2c-0.1,0.5-0.3,1-0.7,1.4c-0.5,0.7-1.1,1.1-1.6,1.4l-0.3-3.9C142,501,142.7,500.6,143.3,500.7z
		 M142.4,507.3c1.2,0.3,2.5,0.5,3.8,0.6l1.2,3.1l-4.3,12.3l-1.2-15.4L142.4,507.3z M147,508c0.5,0,0.9,0.1,1.4,0.1l-0.6,1.9L147,508
		z M147.9,503.8c0.6-1.5,1.7-2.5,2.5-2.1c0,0,0.1,0.1,0.1,0.1l-1.8,5.3c-0.1,0-0.2,0-0.3,0C147.6,506.8,147.4,505.3,147.9,503.8z
		 M151.1,502.5c0.2,0.6,0.2,1.5-0.2,2.4c-0.3,0.8-0.8,1.4-1.3,1.8L151.1,502.5z M151,500.4c-0.7,0-1.4,0.1-2,0.1
		c-0.6,0-1.2-0.1-1.8-0.1l3.7-5.3c0.3,0.6,0.5,1.1,0.7,1.5c0.1,0.3,0.3,0.6,0.5,0.9L151,500.4z M162.5,498c0.9-0.1,1.8,1,2,2.6
		c0.2,1.6-0.3,3-1.1,3.1c-0.9,0.1-1.8-1-2-2.6C161.1,499.6,161.6,498.2,162.5,498z M160.3,484.5l1-0.7l6.7,7.4
		c-0.8,1.1-1.7,2.1-2.7,3L160.3,484.5z M169.7,495.1l-2.8-0.5c0.1-0.4,0.3-0.7,0.6-0.8C168.1,493.5,169,494.1,169.7,495.1z
		 M170.1,495.9c0.6,1.4,0.5,2.8-0.3,3.2c-0.8,0.4-2-0.5-2.6-2c-0.3-0.6-0.4-1.2-0.4-1.7L170.1,495.9z M173.2,497l6.7,7.5l-9.6-4.5
		C171.4,499,172.4,498.1,173.2,497z M168.5,490.7l-6.6-7.3l10.9-7.6c0,0.6,0.1,1.1,0.1,1.7C172.8,482.4,171.2,486.9,168.5,490.7z
		 M161.4,482.8l-0.6-0.7l4.9-5.9c1.3,0,2.3-1.1,2.3-2.4c0-0.1-0.1-0.2-0.1-0.4l1.1-1.3c0.7,0.7,0.8,0.4,2.3,0.4
		c0.3,0,0.7,0.1,1.1,0.1c0.1,0.7,0.2,1.4,0.3,2.1L161.4,482.8z M172,454.9c0,0.1-0.1,0.2-0.4,0.3c-2.3-2.3-4.9-4.3-7.8-5.8
		c1.9-0.6,3.9-1.2,4.3-1.2c0.7,0,1.4,0.5,2.4,0.4c0.9-0.1,1.6-0.7,1.6-0.7S171.9,454.5,172,454.9z M178.9,358.9l-25,73l-7.5-77.4
		C157.7,354.6,168.6,356.1,178.9,358.9z M145.7,354.5l7.7,79.1l-4.2,12.3c-1.1,0-2.3,0.1-3.4,0.2l-32-87.5
		C124,356,134.7,354.5,145.7,354.5z M113.1,358.9l31.9,87.4c-7,1-13.3,4.3-18,9.2l-43.8-84.2C92.5,365.9,102.5,361.7,113.1,358.9z
		 M82.6,371.6l43.9,84.4c-0.4,0.4-0.8,0.9-1.1,1.3l-17.3-7.8l-51.2-58l-0.6,0.5l50.1,56.8l-69.6-31.3
		C47.8,398.5,63.6,382.7,82.6,371.6z M36.4,418.2l71.2,32l13.1,14.9c-0.2,0.6-0.5,1.2-0.7,1.8L24.1,448
		C26.9,437.5,31.1,427.5,36.4,418.2z M19.9,480.6c0-11,1.4-21.6,4.1-31.8l95.9,18.8c-0.9,2.8-1.4,5.8-1.5,8.8
		c-0.1,3.3,0.4,6.4,1.3,9.4l-99.3-5l0,0.8l99.6,5c0,0,0,0,0,0.1l-19,13.5l-76.5,13.8C21.4,503.3,19.9,492.1,19.9,480.6z M24.5,514.6
		l74.9-13.5L37.6,545C32,535.6,27.6,525.4,24.5,514.6z M37.9,545.6l63.2-44.8l21.2-3.8l-64,74.2C50.5,563.6,43.6,555,37.9,545.6z
		 M58.9,571.7l64.7-74.9l1.6-0.3c4,5,9.6,8.7,15.9,10.5l0.1,0.8l-57,82.7C75,585.3,66.5,579,58.9,571.7z M84.8,590.8l56.4-81.9
		l1.2,16.2l-26.8,77.7C104.7,600.3,94.4,596.2,84.8,590.8z M145.9,606.6c-10.2,0-20.1-1.2-29.5-3.5l26.2-76l6.1,79.5
		C147.8,606.6,146.8,606.6,145.9,606.6z M149.4,606.5l-6.2-81.2l4.5-13.2l34.8,89C172.1,604.4,160.9,606.2,149.4,606.5z M183.3,601
		l-35.2-89.9l1-2.9c7.2,0.1,13.8-2.3,19.1-6.4l44.3,85.8C203.5,593.2,193.7,597.8,183.3,601z M213.2,587.1l-44.3-85.9
		c0.3-0.2,0.6-0.5,0.9-0.8l11.5,5.5l55.7,61.7C229.9,575.1,221.9,581.6,213.2,587.1z M237.5,567.1l-54.4-60.3l73.2,34.7
		C251.1,550.8,244.8,559.4,237.5,567.1z M256.7,540.8l-74.9-35.5l-7.9-8.8l94.1,16C265.3,522.5,261.5,532,256.7,540.8z M272,480.6
		c0,10.8-1.4,21.2-3.9,31.2l-93.9-15.9c3.9-5.1,6.2-11.3,6.4-18.2c0-1,0-2-0.1-3c1.1,0.3,1.8,0.4,1.9,0.4c0.4-0.1,0.8,0,2-0.7
		c0.4-0.2,0.6-0.6,0.7-0.9L272,480C272,480.2,272,480.4,272,480.6z M271.9,479.2l-86.6-6.6c0.1-0.7,0.1-1.3,0.1-1.7
		c0-0.8-0.8-1.3-1.4-1.6c-0.4-0.2-0.3-0.8-0.1-1.3l5.3-3.7l78.4-17.1C270.3,457.4,271.8,468.1,271.9,479.2z M183.9,467
		c0-0.4,0-0.9,0-1.6l3.2-0.7L183.9,467z M267.3,446.5l-76.6,16.7l64.6-45.3C260.4,426.8,264.4,436.4,267.3,446.5z M254.9,417.3
		l-66.1,46.4l-4.8,1.1c0-0.2,0-0.4,0-0.6c0-1.2-1-4.1-1.3-4.9c-0.2-0.5-0.7-1.3-1.2-2l54-65.3C243,399.5,249.5,408,254.9,417.3z
		 M235,391.4l-53.9,65.1c-0.2-0.3-0.4-0.6-0.5-0.8c-0.5-0.9-3.5-2.1-3.5-2.1l-2.4,2.1c0,0,1.3-7.3,0.9-7.9c-0.4-0.5-3.4-1-3.4-1.9
		s-0.8-2.6-0.8-2.6h-3.3l-0.8-1.9c2.2-4.6,4.4-9.4,6.4-13.5l36.1-56.1C218.9,377.3,227.4,383.8,235,391.4z M217.1,290.2
		c0,0-0.3-0.3-3.1-1.3c-2.9-1-13.1-5.2-16.3-6c-1.6-0.4-3.8-1.4-6-2.6c3.1-0.7,6.4-1.4,8.9-1.8c5.5-1,9.4-2.9,11.3-4.2
		c0.6-0.4,5.3-1.3,11.7-2.4C220.5,280.6,217.1,290.2,217.1,290.2z M698.5,467.9l-98.3,1.4c0.2-0.1,0.3-0.3,0.5-0.4
		c0-0.1-0.1-0.1-0.1-0.2l10.6-8.5l80.1-23.2C695,446.8,697.4,457.2,698.5,467.9z M599.5,495.3c0.1-0.2,0.2-0.3,0.3-0.4l3.5,0.2
		l8.1,7.7l-11.2-4c0.1-0.1,0.1-0.2,0.2-0.3C599.3,497.9,598.9,496.5,599.5,495.3z M597.8,467.9l3.3-4.7l7.9-2.3l-8.8,7
		c-0.1-0.1-0.1-0.2-0.2-0.3C599.3,468.1,598.5,468.1,597.8,467.9z M597,467.5c-0.1-0.1-0.2-0.2-0.3-0.3c-0.6-0.8-0.6-1.9-0.1-2.7
		l3.2-0.9L597,467.5z M676.3,408.2c6,8.6,11,17.9,14.8,27.9l-77.9,22.6L676.3,408.2z M675.8,407.5l-64.9,51.9l-8.9,2.6l53.1-77.2
		C662.8,391.5,669.8,399.1,675.8,407.5z M654.3,384.2l-53.7,78.2l-3.9,1.1c-0.2-0.2-0.3-0.3-0.5-0.5c-0.8,0.9-2.3,1.1-3.3,0.3
		c-1-0.8-1.2-2.2-0.4-3.3c-0.3-0.2-0.7-0.5-1.1-0.7c-0.6,1.1-2,1.5-3.1,0.9c-1.1-0.6-1.6-2-1.1-3.1c-0.5-0.2-0.9-0.4-1.4-0.5
		c-0.4,1.2-1.6,1.9-2.9,1.6c-1.2-0.3-2-1.6-1.7-2.8c-0.7-0.1-1.5-0.2-2.2-0.3l-0.3-1.8l48.2-86.7C636.8,371.3,646,377.2,654.3,384.2
		z M389.2,527.3c1.5-1.3,3.6-3,3.6-3c0.7,1,1.2,1.7,1.4,2c0.6,0.7,2.6,1,4.6,1c0.1,2.3-1.3,6.2-2.8,9.6c-4-1.2-7.5-3.5-10.3-6.5
		C387.3,529,388.6,527.8,389.2,527.3z M384.2,528.6c-0.8-1-1.5-2.1-2.1-3.3c2.5-0.4,4.8-0.8,6.7-1.1
		C387.5,525.5,385.8,527.1,384.2,528.6z M400.1,532.8c0.6-1.6,1.5-3.9,2.2-5.6c0.1,0,0.2,0,0.3,0c1.4,0,5.1-1.1,6.8-1.8
		c2.2,2.4,5.4,5.8,7.6,8c-3.9,2.8-8.7,4.5-13.9,4.5c-1.6,0-3.1-0.2-4.5-0.4C399.1,535.6,399.7,533.8,400.1,532.8z M414,523.7
		c3.2-1,7.5-2.3,9.8-2.9c0.4-0.1,1.2-0.3,2.3-0.6c-1.2,4.4-3.6,8.4-6.8,11.4c-0.7-0.8-1.3-1.4-1.5-1.7
		C417.1,529.2,415.4,526.1,414,523.7z M427.2,482.6c-0.5-1-0.5-2.1,0-3.2c0,0.4,0,0.7,0,1.1C427.2,481.3,427.2,481.9,427.2,482.6z
		 M425.9,477.7c-0.9,1.7-3,2.3-4.7,1.4c-1-0.5-1.5-1.4-1.8-2.3c0.3-1.2,0.6-2.6,1-4c0.2,0.1,0.5,0.2,0.7,0.2c0.3,0,0.5,0,0.8-0.1
		c0.2-0.4,0.6-0.6,1.1-0.6c0.5,0,0.9,0.3,1.1,0.7c0.2,0.1,0.5,0.2,0.7,0.2c0.1,0,0.1,0,0.2,0c0.1,0,0.1,0,0.2,0c0.3,0,0.5,0,0.8-0.1
		c0.2-0.4,0.6-0.6,1.1-0.6c0.2,0,0.3,0.1,0.4,0.1c-0.1,2-0.2,4.1-0.2,6.1C426.8,478.3,426.4,478,425.9,477.7z M427.3,487.4
		C427.3,487.4,427.3,487.4,427.3,487.4l-5.6,5.2c-0.2-0.1-0.5-0.2-0.7-0.4c-1.1-0.9-1.2-2.4-0.4-3.5c-0.4-0.3-0.8-0.5-1.1-0.8
		c-0.4,0.7-1,1.1-1.7,1.2c-0.1-2.6-0.1-4.8-0.1-5.3c0-0.2,0.2-1,0.5-2.4C421.6,483,424.7,485,427.3,487.4z M418.3,495.9l-0.2,0.1
		c0-0.1,0-0.2,0-0.3C418.2,495.8,418.3,495.9,418.3,495.9z M424.3,536.5c0.3-0.3,0.7-0.6,1-1c-1-0.9-1.2-2.5-0.3-3.5
		c0.9-1.1,2.4-1.2,3.5-0.4c0.3-0.4,0.5-0.8,0.8-1.1c-1.2-0.7-1.7-2.2-1-3.4c0.6-1.2,2.1-1.7,3.4-1.2c0.2-0.5,0.4-1,0.6-1.5
		c-1.3-0.4-2.1-1.8-1.7-3.1c0.2-1,1-1.6,1.9-1.8c1,3.5,2,6.9,3.2,10.3c-1.8,3.7-4.1,7.1-7,10c-0.5,0-1.1-0.1-1.5-0.2
		c-0.6-0.2-2.2-1.8-4-3.6C423.6,536,424,536.2,424.3,536.5z M427.6,470.2c-0.2,0.1-0.4,0.2-0.6,0.2c-0.5,0-0.9-0.3-1.1-0.8
		c-0.2-0.1-0.5-0.2-0.7-0.2c-0.1,0-0.1,0-0.2,0c-0.1,0-0.1,0-0.2,0c-0.3,0-0.5,0-0.7,0.1c-0.2,0.4-0.6,0.7-1.1,0.7
		c-0.5,0-0.9-0.3-1.1-0.8c-0.2-0.1-0.4-0.1-0.7-0.2c4.8-18.8,13.3-51,18.3-65.6c4.5-13.2,8.6-26.2,12-37.4c5.6,4.9,10.8,9.2,12,10.1
		c0.7,0.5,2,2,3.6,3.9C444.6,404.1,430,435.5,427.6,470.2z M458.6,427.8c3.1-6.7,6.7-13,10.8-19c-1.4,6.5-2.3,14.6-3.3,16
		c-0.4,0.6-2.3,2.2-4.5,4.1L458.6,427.8z M460.8,429.6c-1.5,1.2-3.1,2.6-4.6,3.8c0.6-1.6,1.3-3.2,2-4.8L460.8,429.6z M448.5,461.2
		l6.1,0.5l-7,6.6C447.9,465.9,448.1,463.6,448.5,461.2z M448.7,460.3c0.9-5.9,2.3-11.6,4-17.2c1.7,3.5,4.4,7.6,7.3,7.8
		c0.8,0.1,1.6,0,2.5,0l1,2.4l-7.9,7.5L448.7,460.3z M466.4,462.6l70.8,5.5c0,0,0,0.1,0,0.1c0.2,0.8,0.5,1.5,0.8,2.3l-3.8,2
		c-0.1-0.1-0.1-0.1-0.2-0.2c-0.2-0.1-0.5-0.2-0.7-0.2c-0.1,0-0.2,0-0.2,0c-0.1,0-0.2,0-0.2,0c-0.3,0-0.5,0-0.7,0.1
		c-0.2,0.4-0.6,0.7-1.1,0.7c-0.5,0-0.9-0.3-1.1-0.8c-0.2-0.1-0.5-0.2-0.7-0.2c-0.1,0-0.1,0-0.2,0c-0.1,0-0.1,0-0.2,0
		c-0.3,0-0.5,0-0.7,0.1c-0.2,0.4-0.6,0.7-1.1,0.7c-0.5,0-0.9-0.3-1.1-0.8c-0.2-0.1-0.5-0.2-0.7-0.2c-0.1,0-0.1,0-0.2,0
		c-0.1,0-0.1,0-0.2,0c-0.3,0-0.5,0-0.7,0.1c-0.2,0.4-0.6,0.7-1.1,0.7c-0.5,0-0.9-0.3-1.1-0.8c-0.2-0.1-0.5-0.2-0.7-0.2
		c-0.1,0-0.1,0-0.2,0c-0.1,0-0.1,0-0.2,0c-0.3,0-0.5,0-0.7,0.1c-0.2,0.4-0.6,0.7-1.1,0.7c-0.5,0-0.9-0.3-1.1-0.8
		c-0.2-0.1-0.5-0.2-0.7-0.2c-0.1,0-0.1,0-0.2,0c-0.1,0-0.1,0-0.2,0c-0.3,0-0.5,0-0.7,0.1c-0.2,0.4-0.6,0.7-1.1,0.7
		c-0.5,0-0.9-0.3-1.1-0.8c-0.2-0.1-0.5-0.2-0.7-0.2c-0.1,0-0.1,0-0.2,0c-0.1,0-0.1,0-0.2,0c-0.3,0-0.5,0-0.7,0.1
		c-0.2,0.4-0.6,0.7-1.1,0.7c-0.5,0-0.9-0.3-1.1-0.8c-0.2-0.1-0.5-0.2-0.7-0.2c-0.1,0-0.1,0-0.2,0c-0.1,0-0.1,0-0.2,0
		c-0.3,0-0.5,0-0.7,0.1c-0.2,0.4-0.6,0.7-1.1,0.7c-0.5,0-0.9-0.3-1.1-0.8c-0.2-0.1-0.5-0.2-0.7-0.2c-0.1,0-0.1,0-0.2,0
		c-0.1,0-0.1,0-0.2,0c-0.3,0-0.5,0-0.7,0.1c-0.2,0.4-0.6,0.7-1.1,0.7c-0.5,0-0.9-0.3-1.1-0.8c-0.2-0.1-0.5-0.2-0.7-0.2
		c-0.1,0-0.1,0-0.2,0c-0.1,0-0.1,0-0.2,0c-0.3,0-0.5,0-0.7,0.1c-0.2,0.4-0.6,0.7-1.1,0.7c-0.5,0-0.9-0.3-1.1-0.8
		c-0.2-0.1-0.5-0.2-0.7-0.2c-0.1,0-0.1,0-0.2,0c-0.1,0-0.1,0-0.2,0c-0.3,0-0.5,0-0.7,0.1c-0.2,0.4-0.6,0.7-1.1,0.7
		c-0.5,0-0.9-0.3-1.1-0.8c-0.2-0.1-0.5-0.2-0.7-0.2c-0.1,0-0.1,0-0.2,0c-0.1,0-0.1,0-0.2,0c-0.3,0-0.5,0-0.7,0.1
		c-0.2,0.4-0.6,0.7-1.1,0.7c-0.5,0-0.9-0.3-1.1-0.8c-0.2-0.1-0.5-0.2-0.7-0.2c-0.1,0-0.1,0-0.2,0c-0.1,0-0.1,0-0.2,0
		c-0.3,0-0.5,0-0.7,0.1c-0.2,0.4-0.6,0.7-1.1,0.7c-0.5,0-0.9-0.3-1.1-0.8c-0.2-0.1-0.5-0.2-0.7-0.2c-0.1,0-0.2,0-0.2,0
		c-0.1,0-0.2,0-0.2,0c-0.3,0-0.5,0-0.7,0.1c-0.2,0.4-0.6,0.7-1.1,0.7c-0.5,0-0.9-0.3-1.1-0.8c-0.2-0.1-0.5-0.2-0.7-0.2
		c-0.1,0-0.1,0-0.2,0c-0.1,0-0.1,0-0.2,0c-0.3,0-0.5,0-0.7,0.1c-0.2,0.4-0.6,0.7-1.1,0.7c-0.5,0-0.9-0.3-1.1-0.8
		c-0.2-0.1-0.5-0.2-0.7-0.2c-0.1,0-0.1,0-0.2,0c-0.1,0-0.1,0-0.2,0c-0.3,0-0.5,0-0.7,0.1c-0.2,0.4-0.6,0.7-1.1,0.7
		c-0.5,0-0.9-0.3-1.1-0.8c-0.2-0.1-0.5-0.2-0.7-0.2c-0.1,0-0.1,0-0.2,0c-0.1,0-0.1,0-0.2,0c-0.3,0-0.5,0-0.7,0.1
		c-0.2,0.4-0.6,0.7-1.1,0.7c-0.5,0-0.9-0.3-1.1-0.8c-0.2-0.1-0.5-0.2-0.7-0.2c-0.1,0-0.2,0-0.3,0c-0.1,0-0.2,0-0.3,0
		c-0.3,0-0.5,0-0.7,0.1c-0.2,0.4-0.6,0.7-1.1,0.7c-0.5,0-0.9-0.3-1.1-0.8c-0.2-0.1-0.5-0.2-0.7-0.2c-0.1,0-0.1,0-0.2,0
		c-0.1,0-0.1,0-0.2,0c-0.3,0-0.5,0-0.7,0.1c-0.2,0.4-0.6,0.7-1.1,0.7c-0.5,0-0.9-0.3-1.1-0.8c-0.2-0.1-0.5-0.2-0.7-0.2
		c-0.1,0-0.1,0-0.2,0c-0.1,0-0.1,0-0.2,0c-0.3,0-0.5,0-0.7,0.1c-0.2,0.4-0.6,0.7-1.1,0.7c-0.4,0-0.8-0.2-1-0.6L466.4,462.6z
		 M552.6,453c-0.6-1.7-1.3-1.9-2-2c-0.7-0.2-2.3,0.5-3,0.9c-0.2,0.1-0.4,0.3-0.6,0.6l-12.9-21.1c0.5-0.9,1.2-3.3,1.9-6.2
		c5.5,7.8,9.9,14,10.5,14.9c1.8,2.6,8.5,12.7,9.4,14.3c0.2,0.4,1.2,1.8,2.6,3.8c-0.6,1.3-1.4,2.8-2,3.2c-1.1,0.6-2.8,0.7-3.2-0.5
		c-0.5-1.2-0.8-1.9-0.8-3.8C552.6,455,553.2,454.7,552.6,453z M546.5,453.4c-0.2,0.5-0.5,1-0.7,1.2c-0.5,0.5-0.6,0.2-3,0.5
		c0,0-1.2,1.2-2.4,2.6l-7.6-2.8l-16-16c7.2-0.7,14.6-5.4,16.5-7L546.5,453.4z M539.8,458.4c-0.6,0.6-1.2,1.3-1.6,1.8l-3.7-3.7
		L539.8,458.4z M539.5,473.1c-0.1,0-0.3,0.1-0.4,0.1c-0.5,0-0.9-0.3-1.1-0.8c-0.2-0.1-0.5-0.2-0.7-0.2c-0.1,0-0.1,0-0.2,0
		c-0.1,0-0.1,0-0.2,0c-0.1,0-0.2,0-0.4,0.1l1.8-1C538.8,472,539.2,472.6,539.5,473.1z M536,472.6c-0.2,0.3-0.5,0.4-0.9,0.5
		L536,472.6z M531.4,475.1c0.3,0.1,0.5,0.3,0.6,0.5c0.2,0.1,0.5,0.2,0.7,0.2c0.1,0,0.2,0,0.2,0c0.1,0,0.2,0,0.2,0
		c0.3,0,0.5,0,0.8-0.1c0.2-0.4,0.6-0.6,1.1-0.6c0.5,0,0.9,0.3,1.1,0.7c0.2,0.1,0.5,0.2,0.7,0.2c0.1,0,0.1,0,0.2,0c0.1,0,0.1,0,0.2,0
		c0.3,0,0.5,0,0.8-0.1c0.2-0.4,0.6-0.6,1.1-0.6c0.5,0,0.9,0.3,1.1,0.7c0.2,0.1,0.5,0.2,0.7,0.2c0.1,0,0.1,0,0.2,0c0.1,0,0.1,0,0.2,0
		c0.3,0,0.5,0,0.8-0.1c0.2-0.4,0.6-0.6,1.1-0.6c0.5,0,0.9,0.3,1.1,0.7c0.2,0.1,0.5,0.2,0.7,0.2c0.1,0,0.1,0,0.2,0c0.1,0,0.1,0,0.2,0
		c0.3,0,0.5,0,0.8-0.1c0.2-0.4,0.6-0.6,1.1-0.6c0.5,0,0.9,0.3,1.1,0.7c0.2,0.1,0.5,0.2,0.7,0.2c0.1,0,0.2,0,0.3,0c0.1,0,0.2,0,0.3,0
		c0.3,0,0.5,0,0.8-0.1c0.2-0.3,0.5-0.5,0.9-0.6c0.1,0.4,0.2,0.9,0.1,1.4c-0.3,1.2-1.6,2-2.8,1.7c-0.1,0.8-0.3,1.7-0.3,2.5
		c0.9,0,1.6,0.6,2,1.3c-8.7,1.5-32.3,5.5-48,8.2L531.4,475.1z M550.5,491.2c-0.3,0.4-0.7,0.8-1.3,0.9c0.2,0.5,0.4,1.1,0.6,1.6
		c1.2-0.5,2.5,0,3.1,1.1c0.1,0.1,0.1,0.2,0.1,0.3l-3.4,4.8l-21.1,5.9l15.2-13.4C545.8,492.1,548.1,491.6,550.5,491.2z M552.7,499.1
		l-1.7,0.5l1.1-1.5C552.2,498.5,552.4,498.8,552.7,499.1z M548.7,501.2l-36,50.5c0,0,0,0-0.1,0c-0.1,0-0.1,0-0.2,0
		c-0.3,0-0.5,0.1-0.7,0.2c-0.2,0.4-0.6,0.7-1,0.7c-0.4-0.1-0.8-0.3-1-0.6c-0.2-0.1-0.5-0.1-0.7-0.1c0,0,0,0-0.1,0
		c-0.1,0-0.1,0-0.2,0c-0.1,0-0.1,0-0.2,0c-0.1,0-0.1,0-0.2,0c-0.3,0-0.5,0.1-0.7,0.2c-0.2,0.4-0.6,0.7-1,0.7c-0.4-0.1-0.8-0.3-1-0.6
		c-0.2-0.1-0.5-0.1-0.7-0.1c0,0,0,0-0.1,0c-0.1,0-0.1,0-0.2,0c-0.1,0-0.1,0-0.2,0c-0.1,0-0.1,0-0.2,0c-0.3,0-0.5,0.1-0.7,0.2
		c-0.2,0.4-0.6,0.7-1,0.8c-0.4,0-0.8-0.3-1-0.7c-0.2-0.1-0.5-0.1-0.7-0.1c0,0,0,0,0,0c-0.1,0-0.1,0-0.2,0c-0.1,0-0.1,0-0.2,0
		c-0.1,0-0.1,0-0.2,0c-0.3,0-0.5,0.1-0.7,0.2c-0.2,0.4-0.6,0.7-1,0.8c-0.4,0-0.8-0.3-1-0.7c-0.2-0.1-0.5-0.1-0.7-0.1c0,0,0,0,0,0
		c-0.1,0-0.1,0-0.2,0c-0.1,0-0.1,0-0.2,0c-0.1,0-0.1,0-0.2,0c-0.3,0-0.5,0.1-0.7,0.2c-0.2,0.4-0.6,0.7-1,0.8c-0.4,0-0.8-0.3-1-0.7
		c-0.2-0.1-0.5-0.1-0.7-0.1c0,0,0,0,0,0c-0.1,0-0.1,0-0.2,0c-0.1,0-0.1,0-0.2,0c-0.1,0-0.1,0-0.2,0c-0.3,0-0.5,0.1-0.7,0.2
		c-0.2,0.4-0.6,0.7-1,0.8c-0.4,0-0.8-0.3-1-0.7c-0.2-0.1-0.5-0.1-0.7-0.1c0,0,0,0,0,0c-0.1,0-0.1,0-0.2,0c-0.1,0-0.1,0-0.2,0
		c-0.1,0-0.1,0-0.2,0c-0.3,0-0.5,0.1-0.7,0.2c-0.2,0.4-0.6,0.8-1.1,0.8c-0.2,0-0.4-0.1-0.6-0.2c-0.2-0.1-0.3-0.3-0.4-0.5
		c0,0,0,0-0.1,0c0,0,0,0,0,0c-0.2-0.1-0.5-0.1-0.7-0.1c-0.1,0-0.1,0-0.2,0c-0.1,0-0.1,0-0.2,0c-0.3,0-0.5,0.1-0.7,0.2
		c-0.2,0.4-0.6,0.8-1.1,0.8c-0.2,0-0.4-0.1-0.6-0.2c-0.2-0.1-0.3-0.3-0.4-0.5c0,0,0,0-0.1,0c0,0,0,0,0,0c-0.2-0.1-0.5-0.1-0.7-0.1
		c-0.1,0-0.1,0-0.2,0c-0.1,0-0.1,0-0.2,0c-0.3,0-0.5,0.1-0.7,0.2c-0.2,0.4-0.6,0.8-1.1,0.8c-0.2,0-0.4-0.1-0.6-0.2
		c-0.2-0.1-0.3-0.3-0.4-0.5c0,0,0,0-0.1,0c0,0,0,0,0,0c-0.2-0.1-0.5-0.1-0.7-0.1c-0.1,0-0.1,0-0.2,0c-0.1,0-0.1,0-0.2,0
		c-0.3,0-0.5,0.1-0.7,0.2c-0.2,0.4-0.6,0.8-1.1,0.8c-0.2,0-0.3-0.1-0.4-0.1l52.5-46.4L548.7,501.2z M550.1,500.8l5.4-1.5
		c0.2,0.1,0.3,0.2,0.4,0.4c0.8,1,0.7,2.4-0.3,3.3c0.3,0.3,0.6,0.6,0.9,0.9c0.8-0.9,2.3-1.1,3.3-0.3c1,0.8,1.2,2.2,0.4,3.3
		c0.3,0.2,0.7,0.5,1.1,0.7c0.6-1.1,2-1.5,3.1-0.9c1.1,0.6,1.6,2,1.1,3.1c0.2,0.1,0.4,0.2,0.6,0.2c0,0.6-0.1,1.2,0,1.8
		c0,0.2,0,0.2,0.1,0.4l-20.9,38.6c-0.1,0-0.2,0-0.3,0c-0.1,0-0.1,0-0.2,0c-0.1,0-0.1,0-0.2,0c-0.3,0-0.5,0.1-0.7,0.2
		c-0.2,0.4-0.6,0.8-1.1,0.8c-0.5,0-0.9-0.3-1.1-0.7c-0.2-0.1-0.5-0.1-0.7-0.1c-0.1,0-0.1,0-0.2,0c-0.1,0-0.1,0-0.2,0
		c-0.3,0-0.5,0.1-0.7,0.2c-0.2,0.4-0.6,0.8-1.1,0.8c-0.5,0-0.9-0.3-1.1-0.7c-0.2-0.1-0.5-0.1-0.7-0.1c-0.1,0-0.2,0-0.3,0
		c-0.1,0-0.2,0-0.3,0c-0.3,0-0.5,0.1-0.7,0.2c-0.2,0.4-0.6,0.8-1.1,0.8c-0.2,0-0.5-0.1-0.6-0.2c-0.2-0.1-0.3-0.3-0.4-0.5
		c0,0,0,0,0,0c0,0,0,0,0,0c-0.2-0.1-0.5-0.1-0.7-0.1c-0.1,0-0.1,0-0.2,0c-0.1,0-0.1,0-0.2,0c-0.3,0-0.5,0.1-0.7,0.2
		c-0.2,0.4-0.6,0.8-1.1,0.8c-0.2,0-0.5-0.1-0.6-0.2c-0.2-0.1-0.3-0.3-0.4-0.5c0,0,0,0,0,0c0,0,0,0,0,0c-0.2-0.1-0.5-0.1-0.7-0.1
		c-0.1,0-0.1,0-0.2,0c-0.1,0-0.1,0-0.2,0c-0.3,0-0.5,0.1-0.7,0.2c-0.2,0.4-0.6,0.8-1.1,0.8c-0.2,0-0.5-0.1-0.6-0.2
		c-0.2-0.1-0.3-0.3-0.4-0.5c0,0,0,0,0,0c0,0,0,0,0,0c-0.2-0.1-0.5-0.1-0.7-0.1c-0.1,0-0.1,0-0.2,0c-0.1,0-0.1,0-0.2,0
		c-0.3,0-0.5,0.1-0.7,0.2c-0.2,0.4-0.6,0.8-1.1,0.8c-0.2,0-0.5-0.1-0.6-0.2c-0.2-0.1-0.3-0.3-0.4-0.5c0,0,0,0,0,0c0,0,0,0,0,0
		c-0.2-0.1-0.5-0.1-0.7-0.1c-0.1,0-0.2,0-0.2,0c-0.1,0-0.2,0-0.2,0c-0.3,0-0.5,0.1-0.7,0.2c-0.2,0.4-0.6,0.7-1,0.7
		c-0.4-0.1-0.8-0.3-1-0.6c-0.2-0.1-0.5-0.1-0.7-0.1c0,0,0,0-0.1,0c-0.1,0-0.1,0-0.2,0c-0.1,0-0.1,0-0.2,0c-0.1,0-0.1,0-0.2,0
		c-0.3,0-0.5,0.1-0.7,0.2c-0.2,0.4-0.6,0.7-1,0.7c-0.4-0.1-0.8-0.3-1-0.6L550.1,500.8z M566.8,512.9c0.2,0.1,0.5,0.3,0.9,0.6
		c1.2,0.9,0.7,1.6,0.7,2.4c0,0.8,1.4,2.6,3,3.9c0,0,0,0,0,0l1.8,10.2l-5.5,20.5c-0.2,0.1-0.4,0.2-0.7,0.2c-0.2,0-0.4-0.1-0.6-0.2
		c-0.2-0.1-0.3-0.3-0.4-0.5c0,0,0,0-0.1,0c0,0,0,0,0,0c-0.2-0.1-0.5-0.1-0.7-0.1c-0.1,0-0.1,0-0.2,0c-0.1,0-0.1,0-0.2,0
		c-0.3,0-0.5,0.1-0.7,0.2c-0.2,0.4-0.6,0.8-1.1,0.8c-0.2,0-0.4-0.1-0.6-0.2c-0.2-0.1-0.3-0.3-0.4-0.5c0,0,0,0-0.1,0c0,0,0,0,0,0
		c-0.2-0.1-0.5-0.1-0.7-0.1c-0.1,0-0.1,0-0.2,0c-0.1,0-0.1,0-0.2,0c-0.3,0-0.5,0.1-0.7,0.2c-0.2,0.4-0.6,0.8-1.1,0.8
		c-0.2,0-0.4-0.1-0.6-0.2c-0.2-0.1-0.3-0.3-0.4-0.5c0,0,0,0-0.1,0c0,0,0,0,0,0c-0.2-0.1-0.5-0.1-0.7-0.1c-0.1,0-0.1,0-0.2,0
		c-0.1,0-0.1,0-0.2,0c-0.3,0-0.5,0.1-0.7,0.2c-0.2,0.4-0.6,0.8-1.1,0.8c-0.2,0-0.4-0.1-0.6-0.2c-0.2-0.1-0.3-0.3-0.4-0.5
		c0,0,0,0-0.1,0c0,0,0,0,0,0c-0.2-0.1-0.5-0.1-0.7-0.1c-0.1,0-0.2,0-0.2,0c-0.1,0-0.2,0-0.2,0c-0.3,0-0.5,0.1-0.7,0.2
		c-0.2,0.4-0.6,0.8-1.1,0.8c-0.5,0-0.9-0.3-1.1-0.7c-0.2-0.1-0.5-0.1-0.7-0.1c-0.1,0-0.1,0-0.2,0c-0.1,0-0.1,0-0.2,0
		c-0.3,0-0.5,0.1-0.7,0.2c-0.2,0.4-0.6,0.8-1.1,0.8c-0.3,0-0.6-0.1-0.8-0.3L566.8,512.9z M576.1,456.1l-3.1-6.4l2.6-10.5l2.2,14
		L576.1,456.1z M578,454.6l0.3,1.7c-0.4,0.5-0.9,0.9-1.6,1l-0.1-0.2L578,454.6z M575.5,457.1l-0.1,0.1c-0.9-0.3-1.5-1.1-1.5-2.1
		c-0.6,0-1.1,0.1-1.7,0.2c0.2,1-0.3,2-1.3,2.5l1.6-6.7L575.5,457.1z M574.5,525l-0.8,2.9l-1.1-6.6c0.7,1.1,1.1,2.3,1.7,3.2
		C574.3,524.6,574.4,524.8,574.5,525z M573.5,532.2l3,17.5c-0.1,0-0.2,0-0.3,0.1c-0.2,0.4-0.6,0.8-1.1,0.8c-0.5,0-0.9-0.3-1.1-0.7
		c-0.2-0.1-0.5-0.1-0.7-0.1c-0.1,0-0.1,0-0.2,0c-0.1,0-0.1,0-0.2,0c-0.3,0-0.5,0.1-0.7,0.2c-0.2,0.4-0.6,0.8-1.1,0.8
		c-0.5,0-0.9-0.3-1.1-0.7c-0.2-0.1-0.5-0.1-0.7-0.1c-0.1,0-0.2,0-0.2,0c0,0-0.1,0-0.1,0c-0.1,0-0.1,0-0.2,0L573.5,532.2z
		 M576.2,542.8l-2.2-12.8l1-3.8c1.3,3,3.4,8.6,4.1,9.7c0.9,1.3-0.1,1.4-0.4,2c-0.3,0.5-1,0-1.8,0.1c-0.8,0.1-0.4,1.2-0.4,1.8
		c0,0.7,0.8,1.6,0.8,2C577.4,542.1,576.8,542.5,576.2,542.8z M577,544.5c0.6,0.1,0.2,1.1,0,2.7l-0.5-2.8
		C576.7,544.4,576.8,544.4,577,544.5z M579.1,548.7c0.9,0,1.3,0.1,1.8,0.8c-0.2,0-0.5,0.1-0.7,0.2c-0.2,0.4-0.6,0.8-1.1,0.8
		c-0.5,0-0.9-0.3-1.1-0.7c-0.2-0.1-0.3-0.1-0.5-0.1l-0.2-1.4C577.5,548.7,578.2,548.7,579.1,548.7z M626.1,366.2l-47.6,85.6l-2.3-15
		l19.6-80.3C606.4,358.5,616.6,361.8,626.1,366.2z M573.1,354.5c7.4,0,14.7,0.7,21.8,1.9l-19.1,78.1l-12.4-79.6
		C566.5,354.7,569.8,354.5,573.1,354.5z M562.4,355l12.8,81.8l-2.8,11.6l-41.9-86.5C540.6,358.3,551.3,355.9,562.4,355z
		 M529.6,362.2l42.4,87.6l-2,8.3c-0.7,0-1.4-0.3-1.8-0.8c-0.1-0.1-0.2-0.2-0.2-0.4c-0.1-0.2-0.2-0.4-0.3-0.6c0,0-0.1,0-0.1,0
		c-2.3-3.3-4.2-6.2-4.8-7.3c-0.7-1.4-12.4-17.7-24.6-34.8c0.1-0.5,0.1-1,0.2-1.4c0.6-6.1-6.8-13.5-8.1-16.1c-0.9-1.8-4.8-2.8-7-3.3
		c-7.8-10.8-13.7-19.2-14.3-19.9c-0.2-0.3-0.5-0.7-0.8-1.1C515,368.4,522.1,365,529.6,362.2z M515.2,439.1c0.2,0,0.3,0,0.5,0
		l15.1,15.1l-36.5-13.3C501.5,438.7,506.9,439.1,515.2,439.1z M485.9,449.5c0.9-0.4,1.3-1.4,0.9-2.2l-1.2-3c2.2-1.1,4.6-2.2,7.3-3.1
		l39.5,14.4l5.2,5.2c-1.1,1.6-1,3.9-0.6,6.3l-69.7-5.4l8.5-8L485.9,449.5z M471,332.3c0.9,1.8,2.6,5.3,4.4,9.1
		c-1.1-1.2-1.8-2-2.1-2.3c-1.2-1.2-5.3-6.2-10.3-12.4c1.2-3.8,2.3-7.4,2.3-7.4C465.8,319.9,468.8,328.1,471,332.3z M464.5,251.6
		c1.2-1,6.8-5.5,14.1-11.4l-20,62.8c0,0-7.5-1-16-2.1c-2.5-3.3-4.5-5.9-5.6-7.4c-2.6-3.5-6.3-7.8-9.4-11.3
		C441.4,270.8,461.7,254,464.5,251.6z M435.5,352c1.2,1.2,3.7,3.5,6.7,6.1c-0.6,2-1,3.4-1.2,4c-0.8,3-7.1,25.2-8.9,30.2
		c-1.8,5-7.7,23.5-10.4,30.8c-2.6,7.3-9.8,31.1-10.2,33.2c-0.4,2.1-1.5,6.2-2.5,10.6c0,0.1,0,0.2-0.1,0.4c-1.3-1.5-2.6-2.8-3.5-3.9
		c-1.9-2.6-4.8-4.5-4.8-4.5s-1-33.9-0.6-39c0.3-5.2,7.1-34.8,8.7-39.7c1.6-4.8,9-27.1,9.4-31.9c0.1-2.2-0.1-6.6-0.4-11.5
		C424.7,342.3,432.7,349.2,435.5,352z M263.2,266.1c5.5,0,30.6-7.7,34.2-9.4c3.5-1.6,17.4-11.3,20-12.6c2.6-1.3,11.9-3.9,12.6-5.5
		c0.6-1.6,1.9-54.8,1.9-54.8s29.4,4.2,37.1,4.2c7.7,0,43.6,4.5,43.6,4.5s-11.9,18.4-15.5,22.9c-3.5,4.5-25.2,38.4-29.4,42.3
		c-4.2,3.9-9,12.9-9,18.1c0,2.6,0.5,7.2,1.1,11.9c-28.9-4.9-89-15.4-95.4-16.2c-6.9-0.9-11.7-2.3-14.5-3.9
		C256.4,266.8,261.6,266.1,263.2,266.1z M362.7,455.9c-18.4-22.7-40.5-49.7-42.4-52.1c-3.3-3.9-30.2-37.1-34-41.8
		c-3.8-4.7-25.2-31.2-27-33.2c-1.8-2-13.5-16.1-15.1-18.5c-1.6-2.4-2.1-3.8-2.9-5c-0.8-1.2-1.3-2.4-1.3-2.4s-1-2.8,0-6
		c1-3.3,1.8-5.5,4.3-6.8c2.5-1.3,2.6-2.4,7.7-2.4c5.1,0,45,3.3,49.4,4.1c2.3,0.4,31.3,4.9,60.1,9.3c0.9,7.9,0.3,53.1,0.3,54.6
		c0,1.6,2.6,85.2,2.6,85.2s0,0-0.3,7.4C364.1,450.8,363.5,453.5,362.7,455.9z M367,537.2C367,537.2,367,537.2,367,537.2
		C367,537.2,367,537.2,367,537.2c0-0.1,0-0.1,0-0.1C367,537.2,367,537.2,367,537.2C367.1,537.3,367,537.3,367,537.2z M366.8,535.7
		c-0.1-0.1-0.1-0.3-0.2-0.4c-0.3-0.5-0.9-0.8-1.4-0.8c-0.1-0.1-0.3-0.2-0.4-0.4c0,0,0,0,0,0l0,0c-0.2-0.4-0.1-0.9,0.1-1.2
		c0-0.3-0.1-0.5-0.2-0.8c-0.1-0.1-0.1-0.2-0.2-0.3c0,0,0,0,0-0.1c-0.1-0.3-0.3-0.5-0.4-0.7c-0.5,0-0.9-0.3-1-0.8c0,0,0,0,0,0l0,0
		c-0.1-0.3,0-0.6,0.1-0.9c0,0.1,0.1,0.3,0.1,0.4c1.7-0.8,3.8,0,4.6,1.7C368.6,532.9,368.1,534.6,366.8,535.7z M372.1,543.5
		c-0.1-0.3-0.1-0.6,0-0.9c0-0.1-0.1-0.3-0.2-0.4c-0.1-0.2-0.2-0.5-0.4-0.7c-0.2-0.2-0.4-0.4-0.6-0.5c-0.4,0.1-0.9-0.1-1.2-0.4
		c0,0,0,0,0,0c0,0,0,0,0,0c-0.3-0.4-0.3-0.8-0.1-1.2c-0.1-0.3-0.2-0.5-0.4-0.7c-0.1-0.1-0.2-0.1-0.3-0.2c0,0,0,0,0-0.1
		c-0.2-0.2-0.4-0.4-0.6-0.5c0,0-0.1,0-0.1,0c1.5-0.7,3.3-0.4,4.3,0.9C373.6,540.1,373.4,542.2,372.1,543.5z M369.6,527.3
		c2.7-0.4,5.3-0.8,7.8-1.2c0.1,0.2,0.3,0.3,0.4,0.5c0.6,1.2,0.1,2.7-1.1,3.4c0.3,0.5,0.6,0.9,0.9,1.4c1.1-0.8,2.5-0.6,3.4,0.4
		c-1.1,1-1.8,1.8-2,2c-0.5,0.9-2.4,1.6-3.2,1.6c-0.4,0-1.2-0.2-2.1-0.5C372,532.5,370.7,529.9,369.6,527.3z M379.2,549.8
		c-0.2,0-0.5-0.1-0.7-0.2c0,0,0,0,0,0c0,0,0,0,0,0c-0.3-0.3-0.5-0.7-0.4-1.2c-0.1-0.2-0.3-0.4-0.5-0.6c-0.1-0.1-0.2-0.1-0.3-0.1
		c-0.2-0.2-0.4-0.3-0.6-0.4c-0.4,0.1-0.9,0-1.3-0.3c0,0,0,0,0,0l0,0c-0.3-0.3-0.4-0.8-0.3-1.2c-0.1-0.2-0.2-0.5-0.4-0.7
		c-0.1-0.1-0.3-0.2-0.5-0.3c0,0,0,0,0,0c-0.1-0.1-0.2-0.1-0.2-0.2c1.3-0.9,3-1,4.3,0.1c1.5,1.2,1.7,3.4,0.6,4.9
		C379,549.6,379.1,549.7,379.2,549.8z M387,553c0,0-0.1,0-0.1,0c-0.3,0.3-0.8,0.5-1.3,0.3c0,0,0,0,0,0c0,0,0,0,0,0
		c-0.4-0.2-0.7-0.5-0.8-1c-0.2-0.2-0.4-0.3-0.7-0.4c0,0-0.1,0-0.1,0c0,0,0,0,0,0c-0.2-0.1-0.5-0.2-0.8-0.2c-0.4,0.3-0.9,0.3-1.3,0.1
		c0,0,0,0,0,0l0,0c-0.4-0.2-0.6-0.6-0.6-1.1c-0.1-0.2-0.3-0.3-0.6-0.5c1-1.4,2.9-1.9,4.4-1.1C386.6,549.9,387.3,551.5,387,553z
		 M378.3,540.2c0.2-1.2,0.8-3,0.9-3.5c0.1-0.3,1-1.2,2.3-2.4c-0.1,0.4-0.4,0.8-0.7,1.1c0.3,0.3,0.6,0.7,1,1c0.9-1,2.5-1.2,3.5-0.3
		c1.1,0.9,1.2,2.4,0.4,3.5c0.4,0.3,0.8,0.5,1.1,0.8c0.7-1.2,2.2-1.7,3.4-1c1.2,0.6,1.7,2.1,1.2,3.4c0.5,0.2,1,0.4,1.5,0.6
		c-1.2,2.7-1.2,3.9-2.7,4.3c-0.1,0-0.3,0-0.5,0.1C385.5,545.9,381.6,543.3,378.3,540.2z M395.4,554.9c-0.3,0.3-0.8,0.5-1.2,0.4
		c0,0,0,0,0,0c0,0,0,0,0,0c-0.4-0.1-0.8-0.5-0.9-0.9c-0.2-0.2-0.5-0.3-0.7-0.3c-0.1,0-0.2,0-0.3,0c-0.1,0-0.2-0.1-0.3-0.1
		c-0.3-0.1-0.5-0.1-0.8,0c-0.3,0.3-0.8,0.5-1.2,0.4c0,0,0,0,0,0c0,0,0,0,0,0c-0.2-0.1-0.4-0.2-0.6-0.3c0.8-1.4,2.4-2.2,4-1.8
		c1.3,0.3,2.3,1.4,2.6,2.7C395.7,554.9,395.5,554.9,395.4,554.9z M405.5,555c-0.2-0.1-0.5-0.2-0.8-0.2c-0.1,0-0.1,0-0.2,0
		c-0.1,0-0.1,0-0.2,0c-0.3,0-0.5,0.1-0.8,0.2c-0.2,0.4-0.6,0.7-1.1,0.7c0,0,0,0,0,0v0c-0.4,0-0.8-0.3-1-0.7
		c-0.2-0.1-0.5-0.2-0.8-0.2c0,0-0.1,0-0.1,0c0.7-0.8,1.6-1.4,2.8-1.4c1.5,0,2.7,0.9,3.3,2.2C406,555.6,405.7,555.4,405.5,555z
		 M415.8,555c-0.2,0.4-0.6,0.8-1.1,0.8c-0.5,0-0.9-0.3-1.1-0.7c-0.2-0.1-0.5-0.1-0.7-0.1c-0.1,0-0.1,0-0.2,0c-0.1,0-0.1,0-0.2,0
		c-0.3,0-0.5,0.1-0.7,0.2c-0.2,0.4-0.6,0.8-1.1,0.8c-0.5,0-0.9-0.3-1.1-0.7c-0.1,0-0.1,0-0.2,0c0.3-1.3,1.3-2.3,2.6-2.7
		c1.8-0.4,3.6,0.6,4.2,2.4C416.1,554.9,415.9,554.9,415.8,555z M403.2,550.2c-1.9,0-3.7-0.2-5.5-0.5c-1-1.1-1.8-2.5-1.8-3.1
		c0-0.4,0.5-2.3,1.2-4.6c0.7,0.6,1,1.5,0.8,2.4c0.9,0.2,1.8,0.3,2.7,0.3c0.1-1.4,1.2-2.5,2.6-2.5c1.4,0,2.5,1.1,2.6,2.5
		c0.6-0.1,1.2-0.1,1.8-0.2c-0.3-1.3,0.6-2.7,1.9-3c1.3-0.3,2.7,0.5,3.1,1.8c0.6-0.2,1.2-0.4,1.8-0.6c-0.5-1.3,0-2.7,1.2-3.3
		c1.2-0.6,2.7-0.1,3.4,1.1c0.5-0.3,0.9-0.6,1.4-0.9c-0.7-0.9-0.6-2.1,0-3c2.3,2.2,3.3,3.2,3.3,4.9c0,0.7,0,1.4,0,2.2
		C417.8,547.8,410.8,550.2,403.2,550.2z M446.7,554.7c-0.2,0-0.5-0.1-0.6-0.2c-0.2-0.1-0.3-0.3-0.4-0.5c0,0,0,0,0,0c0,0,0,0,0,0
		c-0.2-0.1-0.5-0.1-0.7-0.1c-0.1,0-0.1,0-0.2,0c-0.1,0-0.1,0-0.2,0c-0.3,0-0.5,0.1-0.7,0.2c-0.2,0.4-0.6,0.8-1.1,0.8
		c-0.2,0-0.5-0.1-0.6-0.2c-0.2-0.1-0.3-0.3-0.4-0.5c0,0,0,0,0,0c0,0,0,0,0,0c-0.2-0.1-0.5-0.1-0.7-0.1c-0.1,0-0.2,0-0.2,0
		c-0.1,0-0.2,0-0.2,0c-0.3,0-0.5,0.1-0.7,0.2c-0.2,0.4-0.6,0.7-1,0.7c-0.4-0.1-0.8-0.3-1-0.6c-0.2-0.1-0.5-0.1-0.7-0.1
		c0,0,0,0-0.1,0c-0.1,0-0.1,0-0.2,0c-0.1,0-0.1,0-0.2,0c-0.1,0-0.1,0-0.2,0c-0.3,0-0.5,0.1-0.7,0.2c-0.2,0.4-0.6,0.7-1,0.7
		c-0.4-0.1-0.8-0.3-1-0.6c-0.2-0.1-0.5-0.1-0.7-0.1c0,0,0,0-0.1,0c-0.1,0-0.1,0-0.2,0c-0.1,0-0.1,0-0.2,0c-0.1,0-0.1,0-0.2,0
		c-0.3,0-0.5,0.1-0.7,0.2c-0.2,0.4-0.6,0.7-1,0.7c-0.4-0.1-0.8-0.3-1-0.6c-0.2-0.1-0.5-0.1-0.7-0.1c0,0,0,0-0.1,0
		c-0.1,0-0.1,0-0.2,0c-0.1,0-0.1,0-0.2,0c-0.1,0-0.1,0-0.2,0c-0.3,0-0.5,0.1-0.7,0.2c-0.2,0.4-0.6,0.7-1,0.7c-0.4-0.1-0.8-0.3-1-0.6
		c-0.2-0.1-0.5-0.1-0.7-0.1c0,0,0,0,0,0c-0.1,0-0.1,0-0.2,0c-0.1,0-0.1,0-0.2,0c-0.1,0-0.1,0-0.2,0c-0.3,0-0.5,0.1-0.7,0.2
		c-0.2,0.4-0.6,0.8-1.1,0.8c-0.5,0-0.9-0.3-1.1-0.7c-0.2-0.1-0.5-0.1-0.7-0.1c-0.1,0-0.1,0-0.2,0c-0.1,0-0.1,0-0.2,0
		c-0.3,0-0.5,0.1-0.7,0.2c-0.2,0.4-0.6,0.8-1.1,0.8c-0.5,0-0.9-0.3-1.1-0.7c-0.2-0.1-0.4-0.1-0.6-0.1c0.6-0.2,1.2-0.4,1.8-0.6
		c-0.8-1.7,0-3.8,1.7-4.6c1.7-0.8,3.8-0.2,4.7,1.5c0.7-0.4,1.3-0.8,1.9-1.2c-1.1-1.5-0.9-3.7,0.7-4.9c1.5-1.2,3.7-1,4.9,0.5
		c0.5-0.4,0.9-0.9,1.4-1.3c-1.4-1.3-1.6-3.4-0.4-4.9c1.2-1.5,3.4-1.7,4.9-0.6c0.1-0.2,0.2-0.3,0.3-0.5c2.4,5.7,5.3,11.2,8.4,16.5
		C447.1,554.6,446.9,554.7,446.7,554.7z M448.3,498.1c-0.8-5.6-1.2-11.3-1.2-17.2l8.3-7.8c0.3,0.1,0.6,0.3,0.7,0.6
		c0.2,0.1,0.5,0.2,0.7,0.2c0.1,0,0.1,0,0.2,0c0.1,0,0.1,0,0.2,0c0.3,0,0.5,0,0.8-0.1c0.2-0.4,0.6-0.6,1.1-0.6c0.5,0,0.9,0.3,1.1,0.7
		c0.2,0.1,0.5,0.2,0.7,0.2c0.1,0,0.1,0,0.2,0c0.1,0,0.1,0,0.2,0c0.3,0,0.5,0,0.8-0.1c0.2-0.4,0.6-0.6,1.1-0.6c0.5,0,0.9,0.3,1.1,0.7
		c0.2,0.1,0.5,0.2,0.7,0.2c0.1,0,0.1,0,0.2,0c0.1,0,0.1,0,0.2,0c0.3,0,0.5,0,0.8-0.1c0.2-0.4,0.6-0.6,1.1-0.6c0.5,0,0.9,0.3,1.1,0.7
		c0.2,0.1,0.5,0.2,0.7,0.2c0.1,0,0.2,0,0.3,0c0.1,0,0.2,0,0.3,0c0.3,0,0.5,0,0.8-0.1c0.2-0.4,0.6-0.6,1.1-0.6c0.5,0,0.9,0.3,1.1,0.7
		c0.2,0.1,0.5,0.2,0.7,0.2c0.1,0,0.1,0,0.2,0c0.1,0,0.1,0,0.2,0c0.3,0,0.5,0,0.8-0.1c0.2-0.4,0.6-0.6,1.1-0.6c0.5,0,0.9,0.3,1.1,0.7
		c0.2,0.1,0.5,0.2,0.7,0.2c0.1,0,0.1,0,0.2,0c0.1,0,0.1,0,0.2,0c0.3,0,0.5,0,0.8-0.1c0.2-0.4,0.6-0.6,1.1-0.6c0.5,0,0.9,0.3,1.1,0.7
		c0.2,0.1,0.5,0.2,0.7,0.2c0.1,0,0.1,0,0.2,0c0.1,0,0.1,0,0.2,0c0.3,0,0.5,0,0.8-0.1c0.2-0.4,0.6-0.6,1.1-0.6c0.5,0,0.9,0.3,1.1,0.7
		c0.2,0.1,0.5,0.2,0.7,0.2c0.1,0,0.2,0,0.2,0c0.1,0,0.2,0,0.2,0c0.3,0,0.5,0,0.8-0.1c0.2-0.4,0.6-0.6,1.1-0.6c0.5,0,0.9,0.3,1.1,0.7
		c0.2,0.1,0.5,0.2,0.7,0.2c0.1,0,0.1,0,0.2,0c0.1,0,0.1,0,0.2,0c0.3,0,0.5,0,0.8-0.1c0.2-0.4,0.6-0.6,1.1-0.6c0.5,0,0.9,0.3,1.1,0.7
		c0.2,0.1,0.5,0.2,0.7,0.2c0.1,0,0.1,0,0.2,0c0.1,0,0.1,0,0.2,0c0.3,0,0.5,0,0.8-0.1c0.2-0.4,0.6-0.6,1.1-0.6c0.5,0,0.9,0.3,1.1,0.7
		c0.2,0.1,0.5,0.2,0.7,0.2c0.1,0,0.1,0,0.2,0c0.1,0,0.1,0,0.2,0c0.3,0,0.5,0,0.8-0.1c0.2-0.4,0.6-0.6,1.1-0.6c0.5,0,0.9,0.3,1.1,0.7
		c0.2,0.1,0.5,0.2,0.7,0.2c0.1,0,0.1,0,0.2,0c0.1,0,0.1,0,0.2,0c0.3,0,0.5,0,0.8-0.1c0.2-0.4,0.6-0.6,1.1-0.6c0.5,0,0.9,0.3,1.1,0.7
		c0.2,0.1,0.5,0.2,0.7,0.2c0.1,0,0.1,0,0.2,0c0.1,0,0.1,0,0.2,0c0.3,0,0.5,0,0.8-0.1c0.2-0.4,0.6-0.6,1.1-0.6c0.5,0,0.9,0.3,1.1,0.7
		c0.2,0.1,0.5,0.2,0.7,0.2c0.1,0,0.1,0,0.2,0c0.1,0,0.1,0,0.2,0c0.3,0,0.5,0,0.8-0.1c0.2-0.4,0.6-0.6,1.1-0.6c0.5,0,0.9,0.3,1.1,0.7
		c0.2,0.1,0.5,0.2,0.7,0.2c0.1,0,0.1,0,0.2,0c0.1,0,0.1,0,0.2,0c0.3,0,0.5,0,0.8-0.1c0.2-0.4,0.6-0.6,1.1-0.6c0.5,0,0.9,0.3,1.1,0.7
		c0.2,0.1,0.5,0.2,0.7,0.2c0.1,0,0.1,0,0.2,0c0.1,0,0.1,0,0.2,0c0.3,0,0.5,0,0.8-0.1c0.2-0.4,0.6-0.6,1.1-0.6c0.5,0,0.9,0.3,1.1,0.7
		c0.2,0.1,0.5,0.2,0.7,0.2c0.1,0,0.1,0,0.2,0c0.1,0,0.1,0,0.2,0c0.3,0,0.5,0,0.8-0.1c0.2-0.4,0.6-0.6,1.1-0.6c0.5,0,0.9,0.3,1.1,0.7
		c0.2,0.1,0.5,0.2,0.7,0.2c0.1,0,0.1,0,0.2,0c0.1,0,0.1,0,0.2,0c0.3,0,0.5,0,0.8-0.1c0.2-0.4,0.6-0.6,1.1-0.6c0.5,0,0.9,0.3,1.1,0.7
		c0.1,0.1,0.3,0.1,0.4,0.1l-29.3,15.5c-5,0.9-9,1.5-10.8,1.8C482.3,493.9,461.8,496.6,448.3,498.1z M451.6,514.2
		c2.5-0.5,4.7-1,6.5-1.4l-5.9,3.1C451.9,515.4,451.8,514.8,451.6,514.2z M452.4,516.9l8.7-4.6c5.5-0.9,20-6,24.9-7
		c5-1,42-10,50.9-11.5c1.4-0.2,3.1-0.6,5.1-0.9l-15.5,13.7l-70.9,19.8C454.4,523.2,453.3,520.1,452.4,516.9z M470.8,553.9
		c-0.1,0-0.2,0-0.2-0.1c-5.9-8.2-10.8-17.2-14.6-26.7l68.9-19.3l-51.1,45.2c-0.2-0.1-0.5-0.1-0.7-0.1c-0.1,0-0.2,0-0.2,0
		c-0.1,0-0.2,0-0.2,0c-0.3,0-0.5,0.1-0.7,0.2C471.7,553.6,471.3,553.9,470.8,553.9z M472.6,556.6c0,0,0.1,0,0.1,0c0.1,0,0.2,0,0.3,0
		c0.1,0,0.2,0,0.3,0c0.3,0,0.5-0.1,0.7-0.2c0.2-0.4,0.6-0.7,1.1-0.7c0.2,0,0.4,0.1,0.6,0.1c0.2,0.1,0.3,0.3,0.4,0.4c0,0,0,0,0.1,0
		c0,0,0,0,0,0c0.2,0.1,0.5,0.1,0.8,0.1c0.1,0,0.1,0,0.2,0c0.1,0,0.1,0,0.2,0c0.3,0,0.5-0.1,0.7-0.2c0.2-0.4,0.6-0.7,1.1-0.7
		c0.2,0,0.4,0.1,0.6,0.1c0.2,0.1,0.3,0.3,0.4,0.4c0,0,0,0,0.1,0c0,0,0,0,0,0c0.2,0.1,0.5,0.1,0.8,0.1c0.1,0,0.1,0,0.2,0
		c0.1,0,0.1,0,0.2,0c0.3,0,0.5-0.1,0.7-0.2c0.2-0.4,0.6-0.7,1.1-0.7c0.2,0,0.4,0.1,0.6,0.1c0.2,0.1,0.3,0.3,0.4,0.4c0,0,0,0,0.1,0
		c0,0,0,0,0,0c0.2,0.1,0.5,0.1,0.8,0.1c0.1,0,0.1,0,0.2,0c0.1,0,0.1,0,0.2,0c0.3,0,0.5-0.1,0.7-0.2c0.2-0.4,0.6-0.7,1.1-0.7
		c0.2,0,0.4,0.1,0.6,0.1c0.2,0.1,0.3,0.3,0.4,0.4c0,0,0,0,0.1,0c0,0,0,0,0,0c0.2,0.1,0.5,0.1,0.8,0.1c0.1,0,0.2,0,0.2,0
		c0.1,0,0.2,0,0.2,0c0.3,0,0.5-0.1,0.7-0.2c0.2-0.4,0.6-0.6,1-0.7c0.4,0,0.7,0.2,0.9,0.6c0.2,0.1,0.5,0.1,0.8,0.1c0,0,0,0,0,0
		c0.1,0,0.1,0,0.2,0c0.1,0,0.1,0,0.2,0c0.1,0,0.1,0,0.2,0c0.3,0,0.5-0.1,0.7-0.2c0.2-0.4,0.6-0.6,1-0.7c0.4,0,0.7,0.2,0.9,0.6
		c0.2,0.1,0.5,0.1,0.8,0.1c0,0,0,0,0,0c0.1,0,0.1,0,0.2,0c0.1,0,0.1,0,0.2,0c0.1,0,0.1,0,0.2,0c0.3,0,0.5-0.1,0.7-0.2
		c0.2-0.4,0.6-0.6,1-0.7c0.4,0,0.7,0.2,0.9,0.6c0.2,0.1,0.5,0.1,0.8,0.1c0,0,0,0,0,0c0.1,0,0.1,0,0.2,0c0.1,0,0.1,0,0.2,0
		c0.1,0,0.1,0,0.2,0c0.3,0,0.5-0.1,0.7-0.2c0.2-0.4,0.6-0.6,1-0.7c0.4,0,0.7,0.2,0.9,0.6c0.2,0.1,0.5,0.1,0.8,0.1c0,0,0,0,0,0
		c0.1,0,0.1,0,0.2,0c0.1,0,0.1,0,0.2,0c0.1,0,0.1,0,0.2,0c0.3,0,0.5-0.1,0.7-0.2c0.2-0.4,0.6-0.6,1-0.7c0.4,0,0.7,0.2,0.9,0.6
		c0.2,0.1,0.5,0.1,0.8,0.1c0,0,0,0,0.1,0c0.1,0,0.1,0,0.2,0c0.1,0,0.1,0,0.2,0c0.1,0,0.1,0,0.2,0c0.3,0,0.5-0.1,0.7-0.2
		c0.1-0.2,0.3-0.4,0.6-0.5l-16.9,23.7C485.8,572,478.7,564.7,472.6,556.6z M494.4,579l17.2-24.1c0.1,0.1,0.2,0.2,0.3,0.3
		c0.2,0.1,0.5,0.1,0.8,0.1c0,0,0,0,0.1,0c0.1,0,0.1,0,0.2,0c0.1,0,0.1,0,0.2,0c0.1,0,0.1,0,0.2,0c0.3,0,0.5-0.1,0.7-0.2
		c0.2-0.4,0.6-0.6,1-0.7c0.4,0,0.7,0.2,0.9,0.6c0.2,0.1,0.5,0.1,0.8,0.1c0,0,0,0,0.1,0c0.1,0,0.1,0,0.2,0c0.1,0,0.1,0,0.2,0
		c0.1,0,0.1,0,0.2,0c0.3,0,0.5-0.1,0.7-0.2c0.2-0.4,0.6-0.6,1-0.7c0.4,0,0.7,0.2,0.9,0.6c0.2,0.1,0.5,0.1,0.8,0.1c0,0,0,0,0.1,0
		c0.1,0,0.1,0,0.2,0c0.1,0,0.1,0,0.2,0c0.1,0,0.1,0,0.2,0c0.3,0,0.5-0.1,0.7-0.2c0.2-0.4,0.6-0.7,1.1-0.7c0.2,0,0.4,0.1,0.6,0.2
		c0.2,0.1,0.3,0.3,0.4,0.4c0,0,0,0,0,0c0,0,0,0,0,0c0.2,0.1,0.5,0.1,0.8,0.1c0.1,0,0.1,0,0.2,0c0.1,0,0.1,0,0.2,0
		c0.3,0,0.5-0.1,0.7-0.2c0.2-0.4,0.6-0.7,1.1-0.7c0.2,0,0.4,0.1,0.6,0.2c0.2,0.1,0.3,0.3,0.4,0.4c0,0,0,0,0,0c0,0,0,0,0,0
		c0.2,0.1,0.5,0.1,0.8,0.1c0.1,0,0.1,0,0.2,0c0.1,0,0.1,0,0.2,0c0.3,0,0.5-0.1,0.7-0.2c0.2-0.4,0.6-0.7,1.1-0.7
		c0.2,0,0.4,0.1,0.6,0.2c0.2,0.1,0.3,0.3,0.4,0.4c0,0,0,0,0,0c0,0,0,0,0,0c0.2,0.1,0.5,0.1,0.8,0.1c0.1,0,0.1,0,0.2,0
		c0.1,0,0.1,0,0.2,0c0.3,0,0.5-0.1,0.7-0.2c0.2-0.4,0.6-0.7,1.1-0.7c0.2,0,0.4,0.1,0.6,0.2c0.2,0.1,0.3,0.3,0.4,0.4c0,0,0,0,0,0
		c0,0,0,0,0,0c0.2,0.1,0.5,0.1,0.8,0.1c0.1,0,0.2,0,0.2,0c0.1,0,0.2,0,0.2,0c0.3,0,0.5-0.1,0.7-0.2c0.2-0.4,0.6-0.7,1.1-0.7
		c0.5,0,0.9,0.2,1.1,0.6c0.2,0.1,0.5,0.1,0.8,0.1c0.1,0,0.1,0,0.2,0c0.1,0,0.1,0,0.2,0c0.3,0,0.5-0.1,0.7-0.2
		c0.2-0.4,0.6-0.7,1.1-0.7c0.2,0,0.5,0.1,0.7,0.2l-22.5,41.7C511.5,591,502.5,585.5,494.4,579z M521.9,595.8l22.5-41.6
		c0.1,0,0.3,0.1,0.4,0.1c0.1,0,0.1,0,0.2,0c0.1,0,0.1,0,0.2,0c0.3,0,0.5-0.1,0.7-0.2c0.2-0.4,0.6-0.7,1.1-0.7c0.5,0,0.9,0.2,1.1,0.6
		c0.2,0.1,0.5,0.1,0.8,0.1c0.1,0,0.1,0,0.2,0c0.1,0,0.1,0,0.2,0c0.3,0,0.5-0.1,0.7-0.2c0.2-0.4,0.6-0.7,1.1-0.7
		c0.5,0,0.9,0.2,1.1,0.6c0.2,0.1,0.5,0.1,0.8,0.1c0.1,0,0.2,0,0.3,0c0.1,0,0.2,0,0.3,0c0.3,0,0.5-0.1,0.7-0.2
		c0.2-0.4,0.6-0.7,1.1-0.7c0.2,0,0.4,0.1,0.6,0.1c0.2,0.1,0.3,0.3,0.4,0.4c0,0,0,0,0.1,0c0,0,0,0,0,0c0.2,0.1,0.5,0.1,0.8,0.1
		c0.1,0,0.1,0,0.2,0c0.1,0,0.1,0,0.2,0c0.3,0,0.5-0.1,0.7-0.2c0.2-0.4,0.6-0.7,1.1-0.7c0.2,0,0.4,0.1,0.6,0.1
		c0.2,0.1,0.3,0.3,0.4,0.4c0,0,0,0,0.1,0c0,0,0,0,0,0c0.2,0.1,0.5,0.1,0.8,0.1c0.1,0,0.1,0,0.2,0c0.1,0,0.1,0,0.2,0
		c0.3,0,0.5-0.1,0.7-0.2c0.2-0.4,0.6-0.7,1.1-0.7c0.2,0,0.4,0.1,0.6,0.1c0.2,0.1,0.3,0.3,0.4,0.4c0,0,0,0,0.1,0c0,0,0,0,0,0
		c0.2,0.1,0.5,0.1,0.8,0.1c0.1,0,0.1,0,0.2,0c0.1,0,0.1,0,0.2,0c0.3,0,0.5-0.1,0.7-0.2c0.2-0.4,0.5-0.6,1-0.7L552.9,605
		C542.1,603.3,531.7,600.1,521.9,595.8z M573.1,606.6c-6.5,0-13-0.5-19.3-1.5l14-52.1c0.1,0.1,0.2,0.1,0.2,0.2c0,0,0,0,0.1,0
		c0,0,0,0,0,0c0.2,0.1,0.5,0.1,0.8,0.1c0.1,0,0.2,0,0.2,0c0.1,0,0.2,0,0.2,0c0.3,0,0.5-0.1,0.7-0.2c0.2-0.4,0.6-0.7,1.1-0.7
		c0.5,0,0.9,0.2,1.1,0.6c0.2,0.1,0.5,0.1,0.8,0.1c0.1,0,0.1,0,0.2,0c0.1,0,0.1,0,0.2,0c0.3,0,0.5-0.1,0.7-0.2
		c0.2-0.4,0.6-0.7,1.1-0.7c0.5,0,0.9,0.2,1.1,0.6c0.2,0.1,0.5,0.1,0.8,0.1c0,0,0.1,0,0.1,0l9.1,52.7
		C581.9,606.4,577.5,606.6,573.1,606.6z M587.1,605.8l-9.1-52.8c0,0,0,0,0.1,0c0.2-0.4,0.6-0.7,1.1-0.7c0.5,0,0.9,0.2,1.1,0.6
		c0.2,0.1,0.5,0.1,0.8,0.1c0.1,0,0.1,0,0.2,0c0.1,0,0.1,0,0.2,0c0.3,0,0.5-0.1,0.7-0.2c0.1-0.2,0.3-0.4,0.6-0.5
		c0.6,0.6,1.2,0.3,3.3,1c3,0.9,3.9-1.2,6.5-1.4c1.1-0.1,2-0.5,2.8-1l22.9,47.4C608.3,602.1,597.9,604.6,587.1,605.8z M619,598
		l-23-47.6c0.7-0.6,1.3-1.4,1.7-2.1c0.9-1.6,0.4-3,0.4-3s-0.3-0.9-1-1.6c-0.8-0.7-1.3-0.5-1.6-0.9s-0.1-1.3-0.3-2.4
		c-0.1-1,0,0-0.9-0.8c-0.9-0.8,0,0-0.7-0.4c-0.7-0.4-0.3-0.8-0.3-1.6c0-0.8-0.1-1-0.4-1.7c-0.3-0.7-1.3-1-1.3-1s0,0-1-0.4
		c-1-0.4-0.4-1.2-0.5-1.8c-0.1-0.7-0.9-1.6-2.6-2c-1.7-0.4-2.8-4.3-3.3-5.8c-0.5-1.4-3.3-6.6-2.1-7.3c1.2-0.8,0.7-1.2,0.8-2.6
		c0.1-1.4-0.8-3,1.4-3c2.2,0,2.2-0.3,3.5-0.9c1.3-0.7,3.8-1,5.9-0.8c2.1,0.3,1.6,1.6,2.2,3.1c0.7,1.6,0.7,3.9,2.1,5.1
		c1.4,1.2,2.5-0.1,3-0.9c0.5-0.8,0.5-2,2.1-3.1c0.3-0.2,0.7-0.4,1-0.7l42.8,68.9C638.4,588.9,629,594.1,619,598z M599.7,506.6l2,3.3
		c-0.7,0.9-1,2.2-2,2.9c-1.6,1-0.4-1.6-0.1-2.4C599.8,509.9,599.8,508.2,599.7,506.6z M647.7,582.2L605,513.3c1-0.6,1.9-1.2,2.3-2.1
		c0.7-1.4-1.3-2.5-3.7-2.4c-0.5,0-0.9,0.2-1.2,0.4l-2.8-4.4c0-0.1,0-0.3,0-0.4c0-1.1-1.4-2.9-2.9-4.6c0.5-0.4,1.1-0.6,1.7-0.6
		l14.6,5.3l58.2,55.2C664.4,568.1,656.5,575.7,647.7,582.2z M671.9,558.8l-56.6-53.7l73.1,26.4C684,541.4,678.4,550.5,671.9,558.8z
		 M688.7,530.7l-75.2-27.1l-8.8-8.4l92.7,5.9C695.8,511.4,692.8,521.4,688.7,530.7z M603.7,494.2l-0.8-0.8c0.1-0.2,0.2-0.4,0.2-0.6
		c-1.2-0.4-1.9-1.6-1.6-2.9c0.3-1.2,1.6-2,2.8-1.7c0.1-0.8,0.3-1.7,0.3-2.5c-1.3-0.1-2.3-1.1-2.3-2.4c0-1.3,1-2.3,2.3-2.4
		c0-0.6-0.1-1.1-0.2-1.7c-1.2,0.2-2.5-0.5-2.7-1.8c-0.3-1.2,0.5-2.5,1.7-2.8c-0.2-0.5-0.4-1.1-0.6-1.6c-1.2,0.5-2.5,0-3.1-1.1
		c-0.3-0.6-0.3-1.2-0.1-1.8l98.9-1.4c0.4,3.9,0.6,7.8,0.6,11.7c0,6.7-0.5,13.2-1.5,19.6L603.7,494.2z"/>
</g>
</svg>
