<?xml version="1.0" encoding="utf-8"?>
<!-- Generator: Adobe Illustrator 25.0.0, SVG Export Plug-In . SVG Version: 6.00 Build 0)  -->
<svg version="1.1" id="Layer_1" xmlns="http://www.w3.org/2000/svg" xmlns:xlink="http://www.w3.org/1999/xlink" x="0px" y="0px"
	 viewBox="0 0 1024 1024" style="enable-background:new 0 0 1024 1024;" xml:space="preserve">
<style type="text/css">
	.st0{fill:#C2D500;}
	.st1{fill:#A25EB5;}
</style>
<g id="Layer_2_1_">
	<path class="st0" d="M824,822.6V198.9H0V823 M823.4,610.6c0,13.9-11.2,25.1-25.1,25.1H225.8c-13.9,0-25.1-11.2-25.1-25.1V419.9
		c0-13.9,11.2-25.1,25.1-25.1h572.5c13.9,0,25.1,11.2,25.1,25.1L823.4,610.6L823.4,610.6z"/>
</g>
<g id="Layer_2_copy">
	<path class="st1" d="M998.8,0H25.2C11.3,0,0,11.3,0,25.2v173.7h824V823H201.2v-72.6c0-14-11.3-25.3-25.3-25.3H0v123.2v116.1v34.9
		c0,13.9,11.3,25.2,25.2,25.2h973.6c13.9,0,25.2-11.3,25.2-25.2V849.8v-1.6V173.7v-14.6v-134C1024,11.3,1012.7,0,998.8,0z"/>
</g>
</svg>
