<?xml version="1.0" encoding="utf-8"?>
<!-- Generator: Adobe Illustrator 25.1.0, SVG Export Plug-In . SVG Version: 6.00 Build 0)  -->
<svg version="1.1" id="Layer_1" xmlns="http://www.w3.org/2000/svg" xmlns:xlink="http://www.w3.org/1999/xlink" x="0px" y="0px"
	 viewBox="0 0 950.5 949.6" style="enable-background:new 0 0 950.5 949.6;" xml:space="preserve">
<style type="text/css">
	.st0{fill:#FFFFFF;}
</style>
<path class="st0" d="M475.5,949.6c-263,0-462.1-207.9-474.7-446c-7.1-134.5,34.6-252.8,126.4-351.5C216.5,56,328.3,4.2,459.7,0.2
	c277.8-8.4,485.9,213.2,490.7,464.2C955.6,737.2,735.8,950.9,475.5,949.6z M475.1,940.8C730,943.1,945.5,732,941.7,468.3
	C938,217.3,736,16.3,492.2,9C352.3,4.8,232.9,54,136.5,155C55.2,240.2,12.3,343,8.9,460.9C0.9,732,221.3,942.7,475.1,940.8z"/>
<path class="st0" d="M934.6,474.7c0.3,252.7-202.6,448.9-436.4,458.9c-129.2,5.5-242.4-35.4-336.9-123.9
	C68.7,723,19.4,615,15.9,488.1C8.4,224,220.7,14.6,476.2,15.2C731.5,15.8,935.2,224.3,934.6,474.7z M470.6,24.6
	c-240.7,0-454.4,202.5-446,464.5c3.9,122.1,50.8,226.3,138.8,310.6c91.6,87.8,202.3,129.8,329.1,125.5
	c235-8,429.5-202.5,433.4-443.6C930.1,229.6,721,20,470.6,24.6z"/>
<path class="st0" d="M816.9,474.4c1.6,188-150.8,338.5-329.9,343.4c-202.2,5.6-343.6-153.4-353.7-317.7
	c-5.9-95.4,21.4-179.9,84.5-251.6c65.9-74.8,149.8-114.2,249.5-116.8C663.9,126.8,818.7,288.5,816.9,474.4z M808.4,475
	c0.2-185-148.5-330.1-323.4-334.5c-193-4.8-340.9,148.8-344,327.7c-3.3,190.5,150.7,345.4,342.7,341.1
	C660.6,805.3,808.4,659.3,808.4,475z"/>
<path class="st0" d="M171.3,215c6.8,6.5,12.7,12,18.5,17.6c2.1,1.9,4,4,6.2,5.8c2.8,2.4,2.7,4.2,0.1,6.9c-5.1,5.2-4.9,5.4-10.3,0.4
	c-12.7-11.7-25.4-23.4-37.9-35c4.3-9.2,8-11,16.9-8.9c11.1,2.6,22.2,5.2,34,6.7c-6.2-5.8-12.5-11.7-18.7-17.5
	c-0.7-0.7-1.6-1.2-2.4-1.8c-6.2-5.4-5.9-9,1.4-13c1-0.6,3.5,0.2,4.5,1.2c11.5,10.6,23,21.2,34.3,32c6.4,6.1,6.5,6.4,0.1,12.3
	c-1.7,1.5-5.2,2.2-7.5,1.7c-11.6-2.3-23.1-5.1-34.6-7.7C174.8,215.3,173.7,215.3,171.3,215z"/>
<path class="st0" d="M246.1,168.5c-7.3-9.1-13.6-17.2-20.3-25c-3.3-3.9-3.4-6.4,1.2-9c1.5-0.9,2.8-2.3,4.6-3.9
	c5.1,6.2,10,12.2,14.9,18.2c6.1,7.5,12.2,14.9,18.1,22.6c1.5,2,4.9,3.6,2.6,7.1c-3.1,4.7-8,7-12.2,5.4c-9.4-3.5-18.6-7.2-27.9-10.8
	c-3.1-1.2-6.2-2.3-9.9-2.9c5,6.2,10,12.4,15,18.7c1.5,1.8,3,3.6,4.4,5.4c4.3,5.2,2.7,10.4-4,12.3c-0.9,0.3-2.6-0.5-3.3-1.3
	c-11.3-13.8-22.5-27.6-33.6-41.5c-0.5-0.7-1-1.8-0.8-2.6c0.9-3.7,10.2-8.3,13.8-6.9c11.2,4.4,22.3,8.7,33.5,13.1
	C243.2,167.7,244.1,167.9,246.1,168.5z"/>
<path class="st0" d="M870.8,420.7c-6.9,0.6-13.7,1.2-20.6,1.9c-4.3,0.4-8.6,0.8-12.9,1.3c-5.5,0.7-4.1-3.8-4.6-6.3
	c-0.6-2.7-0.6-5.7,3.7-6.2c15.4-1.5,30.7-3.3,46.1-4.8c9.9-1,10.7-0.2,10.1,9.7c-0.1,1.9-1.6,4.3-3.2,5.6
	c-9.2,6.9-18.6,13.5-27.9,20.2c-1.2,0.9-2.3,1.8-3.3,3.6c7.9-0.8,15.9-1.7,23.8-2.5c2-0.2,4-0.4,5.9-0.6c7.9-0.8,7.7-0.8,8.6,7.2
	c0.4,3.5-0.6,4.6-4.1,4.9c-16,1.5-32,3.5-48.1,5c-2.3,0.2-5.8,2.1-7.3-1.9c-1.8-4.7-0.8-10.6,2.4-12.9c9.3-6.7,18.6-13.5,27.9-20.2
	c1.3-0.9,2.5-2,3.7-3C871,421.3,870.9,421,870.8,420.7z"/>
<path class="st0" d="M823.8,648.9c-10.2,4.8-17.5-5.1-28.6-4.2c2.3-4.8,4-8.8,6.2-12.4c0.4-0.7,3.1-0.5,4.6,0
	c3.6,1.1,7.2,2.7,10.7,4.1c3.7,1.4,6.6,0.5,8.4-3c1.7-3.2,3-6.7,4.7-9.9c1.6-2.9,0.2-4.2-2.3-5.3c-4.4-1.9-8.8-4.1-13.3-5.7
	c-3.5-1.3-3.7-3.3-2.2-6.1c0.6-1.2,1.2-2.4,1.7-3.6c1-3.1,3-3.7,5.8-2.4c15.8,7.1,31.5,14.2,47.3,21.2c2.7,1.2,2.8,2.8,1.8,5.2
	c-3.7,8.2-7.4,16.4-11,24.6c-3.1,7.2-8.7,11.3-16.2,11.2c-7.6-0.2-13.5-4.3-16.3-11.9C824.9,650.2,824.5,649.8,823.8,648.9z
	 M854.5,630.5c-4.1-1.9-7.5-3.6-11-4.9c-0.9-0.3-2.9,0.6-3.4,1.5c-1.9,3.8-3.7,7.8-5.1,11.9c-1.2,3.5-1.1,6.9,3.1,8.7
	c4.1,1.7,7.6,1.1,9.7-3C850.2,640.3,852.1,635.7,854.5,630.5z"/>
<path class="st0" d="M78.5,418.8c11.8,1.8,21.9,3.3,32.1,5c2.1,0.4,5.5,1.6,5.7,2.7c0.4,2.9-0.3,6.3-1.5,9.1c-0.3,0.9-3.6,1-5.4,0.7
	c-11.8-1.8-23.6-3.8-35.5-5.7c-4.1-0.7-8.2-1.5-12.3-1.9c-4-0.4-5.3-1.8-4.7-6.2c0.7-5.9,3-9.3,9-11.3c11.2-3.6,22.1-8.2,33.1-13.3
	c-8.9-1.4-17.8-2.8-26.6-4.2c-1.1-0.2-2.3-0.2-3.5-0.4c-7.3-1.1-7.3-1.3-5.9-8.5c0.7-3.8,2.4-5,6.1-4.4c12.5,2.1,24.9,4,37.4,6
	c4.1,0.7,8.2,1.4,12.3,1.9c3.4,0.4,3.8,2.2,3.6,5.2c-0.4,5.9-2.6,9.5-8.8,11.4c-10.1,3.1-19.9,7.4-29.9,11.2
	C82.3,416.7,81.1,417.5,78.5,418.8z"/>
<path class="st0" d="M192.5,779.7c-12.5-0.1-20.3-7.5-26-17.4c-5.2-9.2-3.4-18.4,2.3-26.8c5-7.4,11.3-13.4,20-16.6
	c17-6.2,37.6,8.1,37.8,26.3C226.7,761.6,208.9,779.6,192.5,779.7z M176.6,751.8c-0.4,11.1,11.5,18.9,21.2,13.1
	c5.5-3.2,10.5-8.3,14-13.7c5.4-8.3-1.1-20.4-10.5-21.2C190.9,729.1,176.9,741.4,176.6,751.8z"/>
<path class="st0" d="M142.2,234.5c14.8,0.1,32.1,13.7,34.2,26.7c2,12.8-3.6,22.7-13.3,29.8c-9.4,7-19.9,5.2-29.8,0
	c-8.1-4.3-14.8-10-18.4-18.9C108.7,256.4,122.8,232.6,142.2,234.5z M126.2,263.1c0.1,0.4,0.1,2,0.7,3.2c4.5,9.2,12.1,14.5,22.1,15.9
	c6.1,0.8,10.5-2.6,13.5-7.6c2.7-4.5,2.9-9.2,0-13.7c-3.8-5.9-9.3-10-15.8-12.5C136,244.4,126.7,250.8,126.2,263.1z"/>
<path class="st0" d="M85.2,453.7c7.4-9.9,19.1-1.5,28.2-9c0,5.7,0.3,9.7-0.2,13.7c-0.1,1-2.3,2.4-3.7,2.6c-3.8,0.5-7.6,0.5-11.4,0.7
	c-5.3,0.3-7.3,2.2-7.3,7.4c0.2,16.2-2.4,13.2,13.2,13.5c0.5,0,1,0,1.5,0c7.8,0,10.2,3.2,7.8,10.7c-0.4,1.1-2.3,2.4-3.6,2.4
	c-17.3,0.2-34.7,0.1-52,0.1c-2.8,0-3.7-1.2-3.7-3.9c0.2-8.8,0.3-17.7,0-26.5c-0.2-8.4,2.6-14.9,10.7-17.8
	C72.5,444.9,79.3,446.7,85.2,453.7z M80.4,474.8c-0.3-3.3-0.4-5.7-0.8-8.2c-0.7-4-2.6-6.8-7.1-6.8c-4.8,0-7,3-7.4,7.1
	c-0.4,4.1-0.3,8.3-0.1,12.4c0,1,1.2,2.8,2,2.8c3.9,0.2,8.1,0.6,11.7-0.5C80,481.4,80,476.8,80.4,474.8z"/>
<path class="st0" d="M823,280.8c3.8,7.1,7.1,13.8,10.9,20.2c2.5,4.2,0.3,5.8-3.1,7.6c-3.2,1.7-5.1,1.9-7-2
	c-3.3-6.9-7.2-13.4-10.9-20c-0.9,0-1.4-0.1-1.8,0.1c-13.5,6.6-11.2,4.6-5.5,15.1c2.8,5.1,5.4,10.3,8.2,15.4c2,3.7-0.3,5.2-3.1,6.3
	c-2.5,1.1-5,3.7-7.3-0.9c-5.7-11.1-11.7-22-17.7-33c-1.4-2.6-1.1-4.1,1.7-5.6c15.3-8.1,30.5-16.3,45.8-24.4c2.5-1.3,4.2-1.1,5.7,1.7
	c5.3,10.4,10.6,20.7,16.3,30.9c2.3,4.2,0.6,5.6-2.8,7.6c-3.8,2.2-5.6,1.3-7.4-2.2c-3.1-6.1-6.7-11.9-9.5-18.1
	c-1.8-3.9-3.8-4.6-7.2-2.1C826.6,278.6,825,279.5,823,280.8z"/>
<path class="st0" d="M293.4,108.1c-9,5.1-17.6,10-26.6,15.1c1.9,3.2,3.5,6.2,5.5,9.5c7-3.9,13.9-7.3,20.3-11.3
	c4.9-3.1,5.8,0.7,7.7,3.5c2.2,3.1,1.4,4.8-1.9,6.6c-6.8,3.5-13.3,7.4-20.6,11.5c1.9,3.6,3.5,7.1,5.7,10c0.6,0.8,3.6,0.4,5.1-0.3
	c7.2-3.7,14.3-7.8,21.5-11.7c0.7-0.4,1.5-0.6,2.8-1.2c1.3,2.4,3.1,4.6,3.7,7c0.4,1.4-0.5,4-1.6,4.7c-10.9,6.4-22.1,12.4-33.1,18.6
	c-2.5,1.4-3.9,0.7-5.2-1.6c-8.3-15.2-16.6-30.4-25.1-45.5c-1.6-2.8-1.2-4.2,1.7-5.8c10.6-5.6,21-11.4,31.5-17.4
	c2.8-1.6,4.3-0.8,5.6,1.7C291.2,103.5,292.1,105.4,293.4,108.1z"/>
<path class="st0" d="M835.8,688.7c0,12.1-8.9,23.5-20.7,26.2c-1.4,0.3-3.1,0.8-4.4,0.3c-2.8-1-5.5-2.5-8.2-3.9c1.7-3,3.3-6,5.2-8.9
	c0.4-0.6,2.1-0.7,3.2-0.6c6.5,0.7,13.3-5,13.2-11.6c0-2-1.3-4.9-2.8-5.6c-1.5-0.8-4.6-0.1-6.2,1.1c-4,3-7.6,6.4-11.2,9.9
	c-9.3,8.9-16,10.1-24.2,4.1c-7.6-5.5-10-16.2-4.6-25.5c3.2-5.6,7.9-10.7,12.8-14.9c5-4.3,11.5-3.8,17.5-1.3c0.9,0.4,2,1.5,2.2,2.4
	c0.6,3.3-6,9.8-9.2,8.7c-7-2.3-15.9,9.9-13.7,16.9c1.2,3.7,5.3,4.7,9,1.8c4.1-3.3,8-7,11.8-10.7c8.1-7.7,15.5-8.6,23.7-2.8
	C834.1,677.9,835.9,682.9,835.8,688.7z"/>
<path class="st0" d="M246,758.5c11.3,0.3,25.2,12,27.2,23c0.3,1.8,0.6,3.8,0.1,5.4c-1.1,3-2.9,5.7-4.4,8.5c-2.9-1.9-5.8-3.7-8.5-5.9
	c-0.6-0.5-0.3-2.5-0.2-3.7c1.1-7-6.8-16-13.8-15.6c-4.1,0.2-7,4.7-4.8,8.1c3,4.6,6.5,8.8,10,13c6.5,8.1,7.8,14.8,3.8,21.4
	c-4.5,7.5-12.6,10.8-21,8.1c-10.1-3.2-17.5-9.4-20.2-20.1c-0.4-1.7-0.8-3.8-0.3-5.4c1-3.1,2.5-5.9,3.9-8.9c2.8,1.8,5.8,3.5,8.4,5.7
	c0.8,0.7,0.8,2.7,0.6,4c-0.9,6.4,4.4,13.2,10.9,13.4c1.9,0.1,4.9-0.7,5.5-2c0.9-1.7,0.6-4.8-0.4-6.4c-3-4.5-6.7-8.7-10.2-12.9
	c-4.9-5.9-7.5-12.5-3.8-19.8C232.4,761.9,238.2,758.2,246,758.5z"/>
<path class="st0" d="M873.2,572.7c-10.4-4.1-10.5-4.1-13,5.6c-1.1,4.4-2.5,8.7-3.1,13.1c-0.7,5.4-3.6,5.2-7.7,4.3
	c-4.7-1-4.2-3.8-3.3-7.2c1.7-6.9,3.4-13.9,5.3-21.5c-3.7-1-7.1-2.4-10.6-2.8c-1.1-0.1-3.3,1.9-3.7,3.3c-2.2,7.5-4.1,15.1-5.8,22.7
	c-0.8,3.8-2.6,4.6-5.9,3.4c-3-1-6.9-0.8-5.4-6.1c3.2-11.7,5.9-23.6,8.8-35.4c0.7-3,2.2-4.1,5.4-3.3c16.6,4.2,33.3,8.3,49.9,12.4
	c2.6,0.6,3.6,1.6,2.9,4.5c-3,11.9-5.9,23.9-8.9,35.9c-1.2,5-4.7,2.1-7.3,1.8c-2.5-0.3-4.9-1.1-3.9-4.8
	C869.1,590.1,871,581.5,873.2,572.7z"/>
<path class="st0" d="M696.4,137.8c-5.2-2.6-10.9-3.7-10.2-11.6c0.4-4.7-8.5-10.6-13.3-9.9c-4.8,0.8-6.6,5.9-3,9.9
	c3.9,4.3,8.1,8.3,12.3,12.5c6.7,6.7,8.3,13.3,4.9,20.1c-3.6,7.2-11.7,11.2-20.2,9.7c-9.5-1.7-16.9-6.9-22.4-14.7
	c-3.6-5.1-3.8-10.8-1.6-16.7c0.9-2.4,2.2-3.2,4.5-1.9c3.9,2.3,8.2,3.5,7.3,10.1c-0.8,6.4,11.2,13.6,17.1,11.1c3.8-1.7,4.6-5.5,1.4-9
	c-4.2-4.5-8.7-8.8-13-13.1c-6.1-6.2-7.3-12.5-3.7-19.4c3.9-7.4,11.6-11.2,19.6-9.5c10.2,2.2,18.2,7.3,22.2,17.4
	C700.4,127.8,699.9,132.9,696.4,137.8z"/>
<path class="st0" d="M102,581c2.1,6.5,3.8,12.4,6,18.1c0.4,1,3.3,1.9,4.6,1.5c5.4-1.5,10.8-3.4,16.1-5.4c3.3-1.3,5.4-1,6.2,2.9
	c0.3,1.3,0.8,2.6,1.3,3.8c1.2,3.1,0.6,4.9-2.8,6c-16.2,5.2-32.3,10.5-48.4,15.9c-2.7,0.9-4.5,0.5-5.4-2.5c-0.5-1.8-1.1-3.5-1.8-5.2
	c-1.1-2.6-0.1-4,2.5-4.8c4.8-1.5,9.5-3,14.1-5c1.2-0.5,2.7-3.1,2.4-4.3c-1.5-5.6-3.6-11-5.7-17.1c-5.7,1.7-11.1,3.3-16.4,5.1
	c-3.2,1.1-5.6,1-6.2-3c-0.5-3.4-4.8-7.4,2.1-9.6c15.9-5,31.6-10.3,47.4-15.6c4.1-1.4,5.9,0.2,6.7,4c0.7,3.5,3.6,7.4-2.7,9
	C115.4,576.5,109.2,578.8,102,581z"/>
<path class="st0" d="M107.3,537.9c-1.2-8.8-2.5-17.1-3.5-25.5c-0.2-2-0.4-5.5,0.6-5.9c2.6-1.2,5.7-1.3,8.7-1.4c0.6,0,1.8,1.9,1.9,3
	c1.9,12.7,3.6,25.3,5.5,38c0.4,2.5-0.5,3.6-3.1,3.9c-17.5,2.4-34.9,5-52.4,7.3c-1.1,0.1-3.3-1.3-3.5-2.2c-2-12.6-4.1-25.3-5.5-38
	c-0.5-4.5,4.1-3.1,6.7-3.8c2.9-0.8,4.3,0.3,4.7,3.3c1,7.3,2.3,14.5,3.1,21.7c0.6,5.6,3.9,4.3,7.5,4.2c4.4-0.2,4.2-2.4,3.6-5.6
	c-1-6.1-1.3-12.3-2.5-18.3c-0.9-4.4,1-5.5,4.7-6.1c3.9-0.6,6.2-0.1,6.6,4.6c0.4,5.3,1.5,10.5,2.2,15.8c1,6.9,1,7.1,8.2,6.3
	C102.8,539,104.9,538.4,107.3,537.9z"/>
<path class="st0" d="M463,868.7c8.8,12.4,8.3,21.6-1.3,29.5c-7.4,6.1-24.1,4.8-30.5-2.3c-7.6-8.4-6.4-18.4,3.6-29
	c-6.2-9.8-5.7-18,1.6-24c7-5.8,21.6-5,28.2,1.6C471.2,851.1,470.8,858.8,463,868.7z M455.7,882.5c0-5.6-2.8-8.7-7.9-8.7
	c-4.6,0-7.3,3.1-7.4,8.5c0,6.2,2.6,9.2,7.9,9C452.8,891.2,455.7,887.7,455.7,882.5z M449.9,863.4c4.4-0.1,6.7-2.5,6.6-6.9
	c-0.1-4.3-2.5-6.6-7-6.5c-4.1,0-6.9,2.9-6.8,6.9C442.9,860.9,445.7,863.5,449.9,863.4z"/>
<path class="st0" d="M539.5,109.6c5.4,0,8.5-2.8,9.7-9.4c1.9-10.8,3.6-21.7,5.2-32.5c0.9-5.7,1.1-5.9,8.2-4.9
	c4.1,0.6,6.6,1.4,5.5,6.8c-2.1,9.4-3.1,19-4.7,28.6c-0.6,3.6-1.3,7.3-2.5,10.7c-3,8.2-10.7,13.3-19.5,12.7c-4.1-0.3-8.3-1-12.2-2.3
	c-10.8-3.5-16.1-12.7-14.3-23.8c1.8-11,3.8-22,5.3-33c0.6-4.7,2.1-6.2,7-5.2c7.5,1.5,7.4,1.1,6.3,8.3c-1.7,10.7-3.4,21.4-4.7,32.1
	C527.7,105.5,531.7,109.6,539.5,109.6z"/>
<path class="st0" d="M185.9,696.2c-1.9,3.5-2.9,8.1-5.8,10.4c-11.2,9.1-23,17.5-34.7,26c-0.9,0.7-3.9,0-4.8-1.1
	c-6.4-7.8-6.2-7.7,2.1-13.6c8.7-6.1,17.5-12.2,25.8-18.8c5.1-4.1,5-7.8,1-12.9c-3.8-4.9-8.6-6.2-13.5-2.9
	c-9.4,6.2-18.6,12.9-27.9,19.3c-1.7,1.2-5.3,2.7-5.9,2.1c-2.5-2.6-4.2-5.8-5.9-9c-0.2-0.5,1.2-2.2,2.2-2.9c9.5-6.7,19-13.5,28.7-20
	c12-8,22.4-5.9,31,5.9C183.1,685.2,184.8,689.7,185.9,696.2z"/>
<path class="st0" d="M510.4,877.7c-4.7,0.9-8.9,2.7-12.9,2.3c-12.9-1.3-18.1-9.2-17.1-24.4c0.6-10,9.1-17.3,20.2-17.3
	c10.8,0,17.2,4.7,20.2,15c3.5,11.9,4.7,23.8,0.2,35.8c-4.8,12.7-23.5,16.9-32.8,7.1c-2.1-2.2-2.5-6.1-3.7-9.2
	c3.4-0.5,6.7-1,10.1-1.3c0.6-0.1,1.5,0.7,2,1.3c2.4,3.1,5.2,4.6,9.1,2.8c3.9-1.8,4.9-5.2,4.9-9.1
	C510.6,879.5,510.5,878.4,510.4,877.7z M509.3,859.5c-0.3-3.9-1.1-8.3-6.3-10c-3.7-1.2-7.1,0.1-8.5,3.3c-1.2,2.7-1.4,6.4-0.9,9.4
	c0.9,5.5,4,7.7,8.4,7.1C506.5,868.6,509.3,865.2,509.3,859.5z"/>
<path class="st0" d="M820.2,369.7c1.2-10.2,4.8-16,14.3-19.1c12-3.9,24.3-7.1,36.4-10.6c2.7-0.8,4.1,0,4.8,2.7
	c0.3,1.3,0.8,2.6,1.2,3.8c1.5,3.8,0.3,5.8-3.7,6.9c-10.1,2.7-20.2,5.6-30.2,8.6c-9.6,2.8-12.3,7.7-8.8,15.6c2.3,5.3,6,7,12.3,5.2
	c10.3-2.8,20.5-5.9,30.8-8.6c2.2-0.6,6.2-1.2,6.8-0.3c1.8,2.9,2.3,6.5,3.1,9.9c0.1,0.6-1.3,1.9-2.2,2.1
	c-13.1,3.7-26.1,7.9-39.5,10.6c-9.7,2-16.4-2.2-20.4-11.3C822.7,380.3,821.7,374.8,820.2,369.7z"/>
<path class="st0" d="M716.3,203.4c6.5-3.2,13.1-6.4,19.6-9.6c10.1-4.8,20.1-9.6,30.2-14.2c2.1-1,5.5-2.4,6.8-1.5
	c3.5,2.4,6.1,6,9,9.2c0.3,0.4-0.1,1.6-0.4,2.3c-8.3,17.4-16.6,34.8-25,52.2c-0.2,0.4-0.7,0.6-1.8,1.5c-2.7-2.7-6-5.1-7.9-8.4
	c-0.9-1.6,0.3-5.2,1.6-7.1c2.8-3.9,2.1-6.6-1.4-9.2c-1.1-0.8-2.1-1.7-2.9-2.8c-4.5-6.1-9.5-9-16.6-3.5c-0.8,0.6-3,0.5-4-0.2
	c-3-2.1-5.7-4.5-8.5-6.9C715.7,204.8,716,204.1,716.3,203.4z M747,203.2c3.2,3.1,6,5.9,9.3,9.2c3.1-6.1,6-11.8,8.9-17.4
	c-0.4-0.3-0.8-0.6-1.3-0.9C758.5,197,753,200,747,203.2z"/>
<path class="st0" d="M310.3,105c0-11.9,5.6-20.5,16.1-24.6c12.4-4.8,21.6-3.3,29.3,5c4,4.3,3.7,5.3-1.6,7.6c-3.9,1.7-7,2.7-11-1
	c-5.5-5.1-14.9-1.9-18.3,5.3c-4.5,9.5,3.8,27.8,13.9,30.5c6.7,1.8,14.2-3.5,14.7-10.3c0.3-4.4,6.9-9.7,11.1-8.5c1,0.3,2,2.5,2.1,3.9
	c1.2,13.6-9,25.5-23.1,27.2c-11.4,1.4-20.2-2.7-26.3-12.5C312.9,120.7,310.2,113.2,310.3,105z"/>
<path class="st0" d="M116,294.7c-1.3,3.4-2.2,5.4-2.8,7.5c-1.1,3.3-2.7,5-6.7,5.1c-7.6,0.3-12.9,9.5-10.1,16.7
	c3.5,9.1,19.9,16.6,29.1,13.3c7.1-2.5,10.6-12.1,6.7-18.2c-1.3-2-3.9-4.2-3.7-6c0.5-3.4,2.7-6.6,4.2-9.9
	c9.5,3.7,15.1,15.7,12.7,26.5c-3.9,17.2-18.4,25.5-35.2,20.4c-9.1-2.8-17.4-6.8-22.7-15.2c-9.7-15.4,0.4-38.1,18.3-40.9
	C108.8,293.5,112,294.4,116,294.7z"/>
<path class="st0" d="M502.7,93.5c-0.4,13.7-13,23.7-27,22.4c-14.2-1.4-23.7-10.4-25.1-25.3c-1.1-11.3-0.1-22.2,9.1-30.9
	c10.1-9.7,36.3-9,42.1,7.8c0.8,2.3,1.1,6-0.2,7.4c-2.2,2.4-10.7,0.4-11.9-2.3c-2.5-5.6-6.7-7.9-12.7-7.5c-6.2,0.4-9.8,4.1-11.5,9.5
	c-2.3,7.3-2.3,14.7,0.8,21.9c2.1,4.9,6,7.3,10.8,7.6c5,0.3,9.4-1.6,11.7-6.8C491.9,90.5,497.7,94.6,502.7,93.5z"/>
<path class="st0" d="M564.2,859c8.3,6,11.1,12.4,8.9,20.9c-2.2,8.5-8.1,13.1-16.5,14.7c-11.9,2.2-20.5-1.8-23.9-11.5
	c-0.7-2-2.9-4.8,0.9-6.3c4.9-2,9.5-1.4,10.8,1.8c1.8,4.2,4.5,6.6,9.3,5.6c4.5-1,7.1-4.8,6.6-9.2c-0.6-5-3-7.3-8.4-7.3
	c-3.6,0-6.1,0.3-6.8-4.7c-0.7-5.1,2.9-4.4,5.3-6c2.1-1.4,4.7-4,4.7-6c0-2.5-2-5.9-4.1-7.1c-1.8-1-5.4,0.1-7.6,1.3
	c-1.4,0.7-2,3.3-2.5,5.2c-1,3.4-5.6,6.2-9.7,4.7c-1.4-0.5-2.3-4.3-2.1-6.5c1-8.5,6.2-13.6,15.1-15.7c8.6-2.1,16.4-0.3,21.3,7
	C569.4,845.7,569.1,852.7,564.2,859z"/>
<path class="st0" d="M853.1,517.9c9.9,4.1,19.9,8.2,29.8,12.2c10.8,4.4,10.9,4.6,7.8,17.4c-3.9-1.7-7.8-3.3-11.6-5.1
	c-13.7-6.3-27.4-12.8-41.2-19c-3.6-1.6-3.8-4.4-3.4-7.4c0.4-3.1,0-6.8,4.5-7.8c17.9-4,35.7-8.1,53.5-12.1c2.8-0.6,3.9,0.4,3.9,3.3
	c0.3,8.4-1,10-9.2,11.5c-5.7,1-11.5,2-17.2,3c-5.6,1-11.1,2-16.7,3C853.3,517.2,853.2,517.6,853.1,517.9z"/>
<path class="st0" d="M751.9,793.6c-3.5,2.9-6.1,4.9-8.6,7.1c-2.5,2.2-4.9,2.3-7.7,0.7c-4.7-2.6-9.5-4.9-14.3-7.2
	c-1.6-0.8-3.2-1.4-6.1-2.6c1.1,4.7,1.9,8.2,2.7,11.7c0.7,2.9,1.2,5.9,2.1,8.7c1.5,4.3,0.3,7.4-3.6,9.6c-2.1,1.2-4,2.8-6.9,4.8
	c-1.1-5.9-2.1-11-3-16.1c-0.9-4.8-2.2-9.5-2.4-14.3c-0.3-10-6.2-17-12.2-23.8c-3.4-3.9-2.3-6.1,1.4-8.8c3.4-2.5,6.4-4.8,9.2,0.3
	c6.6,12.2,18.2,17.3,30.4,21.8C738.9,787.9,744.8,790.6,751.9,793.6z"/>
<path class="st0" d="M790.7,212.6c8-7.7,8.1-7.8,14.1,0c7.1,9.2,14,18.7,21.2,27.8c3,3.8,0.7,5.4-1.9,7.6c-2.8,2.2-5.1,3.3-7.3-0.5
	c-0.2-0.3-0.4-0.5-0.6-0.8c-7.2-9.3-7.2-9.4-16.5-2.4c-8.3,6.2-16.5,12.3-24.8,18.6c-2.4,1.8-4.3,3.7-7,0.2c-5.2-6.7-5.5-7.5-1.1-11
	c9.9-7.6,19.8-15.2,29.9-22.5c3.1-2.3,3.7-4.2,1.2-7.2C795.3,219.4,793.2,216,790.7,212.6z"/>
<path class="st0" d="M107.7,681.3c-0.5-0.6-1.6-1.6-2.2-2.8c-5.9-12.3-11.7-24.7-17.7-36.9c-1.7-3.5,0.3-4.4,2.8-5.3
	c2.5-1,5.1-4.3,7.4,0.3c0.1,0.3,0.3,0.6,0.5,0.9c6,11.4,6,11.5,17.7,5.8c8.7-4.2,17.3-8.7,25.9-13c5.3-2.7,5.5-2.4,9,4.3
	c2.3,4.4,1,6.4-3.2,8.4c-11.3,5.2-22.4,11-33.8,16.1c-3.6,1.7-3.9,3.4-2.1,6.5c1.1,1.9,1.9,3.9,2.9,5.8
	C117.5,676.5,114.3,681.4,107.7,681.3z"/>
<path class="st0" d="M748.1,168.4c-4.5-3.5-8.7-6.7-13.6-10.5c-4.1,5.1-8.1,10.1-12.1,15.1c-5.1,6.5-10.3,13.1-15.3,19.7
	c-1.6,2.2-3.1,2.5-5.4,0.9c-7.9-5.5-8-5.5-2.1-13.1c7.8-10.1,15.7-20.2,24-30.8c-3.4-2.9-6.4-5.7-9.8-8c-3-2.1-3.7-3.9-1.2-6.8
	c2.3-2.6,4-5.9,8.3-2.4c7.4,6.1,15.1,12,22.7,17.9c2.1,1.6,4.2,3.3,6.3,4.9c5.6,4.5,5.6,4.6,1,9.9
	C750.2,166.2,749.4,167,748.1,168.4z"/>
<path class="st0" d="M398,73.3c1.8,9.6,3.5,18.8,5.3,27.9c1,5.1,1.8,10.2,2.9,15.2c0.8,3.5-0.4,5-3.8,5.4c-1.3,0.1-2.6,0.4-3.9,0.8
	c-3.3,1-4.8-0.1-5.5-3.6c-2.2-12.1-4.6-24.2-7-36.3c-1.4-7-1.4-7-8.4-5.6c-1.3,0.3-2.6,0.5-3.9,0.8c-6.4,1.2-6.6,0.9-7.8-5.3
	c-0.6-3.3,0.2-4.8,3.7-5.4c12.9-2.4,25.8-4.9,38.7-7.7c4.1-0.9,5.4,0.9,5.8,4.5c0.4,3.2,1.5,6.4-3.4,7
	C406.6,71.5,402.6,72.5,398,73.3z"/>
<path class="st0" d="M594.2,133.9c-14.5-4.2-13-1.5-8.7-15.2c3.2-10.2,6.5-20.3,10-30.4c1-2.9,0.5-4.3-2.5-5.1
	c-2.3-0.5-4.4-1.5-6.6-2.3c-6.1-2.1-7.3-5.2-3.5-10.6c0.6-0.9,2.9-1.5,4.1-1.1c13.2,4.1,26.3,8.5,39.4,12.8c3,1,2.8,3,1.8,5.1
	c-1.2,2.3-0.4,6.8-5.2,5.7c-3.2-0.7-6.4-1.8-9.5-3.1c-3.9-1.6-4.9,0.6-5.8,3.7c-3.9,12.5-8.1,25-12.1,37.5
	C595.3,131.9,594.7,132.8,594.2,133.9z"/>
<path class="st0" d="M763.5,767.6c-12.4-11.9-23.7-22.7-34.7-33.3c0.6-1.3,0.7-1.9,1-2.2c9.5-9.7,6.6-8.8,15.2-0.5
	c7.8,7.5,15.4,15.2,23,23c2.6,2.7,4.7,3.4,7.2,0.1c1.2-1.6,2.8-2.8,4.2-4.2c4.6-4.6,8.1-4.1,11.1,1.9c0.5,0.9,0,3-0.8,3.8
	c-9.7,9.9-19.5,19.6-29.2,29.5c-2.9,2.9-4.5,0.5-6.1-1.3c-1.7-1.9-5.5-3.4-2-6.8C755.7,774.3,759.2,771.3,763.5,767.6z"/>
<path class="st0" d="M412.1,837c-1.8,9.6-3.3,18.3-5,26.9c-1.7,8.8-3.7,17.5-5.2,26.4c-0.8,4.4-3,5-6.7,3.9c-3.4-1-7.6-0.5-6.3-6.4
	c2.2-10,3.8-20.2,6-30.3c0.9-4.1-0.2-5.9-4.2-6.5c-1.5-0.2-2.9-0.7-4.4-0.9c-3.1-0.4-4.3-1.9-3.6-5.1c0.7-3.1,1.9-4.9,5.4-4.1
	c5.7,1.2,10-0.5,13.1-5.6c2.2-3.7,5.4-1.1,8-0.6C410.4,834.8,411.4,836.3,412.1,837z"/>
<path class="st0" d="M807.3,734.4c-2.4,2.9-4.4,6-7.1,8.3c-0.7,0.6-3.8-1-5.3-2.2c-12.9-10.2-25.6-20.7-38.5-30.9
	c-2.7-2.2-3.1-4-0.7-6.6c1.1-1.2,2.1-2.6,3.1-3.9c1.6-2.3,3.3-2.4,5.4-0.7c13.6,11.1,27.3,22.3,40.9,33.4
	C805.9,732.5,806.4,733.3,807.3,734.4z"/>
<path class="st0" d="M866.9,470.2c8.3,0,16.6,0.2,24.9-0.1c3.6-0.1,4.8,1.2,4.6,4.6c-0.1,1.3-0.1,2.7,0,4c0.2,3.5-1.3,5.1-5,5.1
	c-16.6-0.1-33.2-0.1-49.8,0c-4,0-5.1-1.6-5.1-5.4c0-8.4-0.2-8.3,8-8.1C852,470.4,859.4,470.2,866.9,470.2
	C866.9,470.2,866.9,470.2,866.9,470.2z"/>
<path class="st0" d="M424.6,62.1c-0.5-6.2,4.5-4.9,7.9-5.5c3.7-0.6,5.1,0.9,5.4,4.9c1.2,16.5,2.8,33,4.4,49.5c0.3,3,0,4.9-3.6,4.9
	c-1.1,0-2.3,0.3-3.4,0.6c-3.7,0.8-6.1-0.1-6.4-4.4c-0.4-6.3-1-12.6-1.5-18.8C426.4,82.9,425.5,72.5,424.6,62.1z"/>
<path class="st0" d="M654.8,568.2c1.4,0.2,2.8,0.4,4.4,0.5c-1.3,4.6-3.5,7.6-8.4,7.9c-0.8,0-1.8,0.1-2.4,0.6
	c-2.1,1.5-4.1,3.2-6.2,4.8c2.8,1.1,5.9,3.6,8.3,3c6.6-1.7,11.4,1.8,16.9,3.4c0,0.4,0.1,0.9,0.1,1.3c-3,1.1-5.9,2.3-9.4,3.6
	c4.4,2.8,8.5,5.3,12.5,7.8c-3.5,1.7-6.9,3.3-10.4,5c0.1,0.1,0.2,0.2,0.3,0.3c-2.4,0.6-4.7,1.1-8.1,2c-1.3-1.5-3.6-4-6.2-7
	c-1.3,2.3-3.8,3.5,0,5.3c1.6,0.8,4.7,2,2.4,5.8c-1,1.7,0.9,5.2,1.7,8.8c4.6-4.2,8.3-7.8,12.3-11.3c9.7-8.4,19.5-16.9,32.9-18.8
	c4-0.6,8.1-0.1,12.1-0.1c0.2,0.5,0.4,1,0.6,1.5c-1.6,2-3.3,3.9-4.6,6.1c-3.4,5.7-6.7,11.4-9.9,17.2c-1.6,2.9-0.3,4.5,2.6,5.6
	c5.6,2.2,11.3,4.1,16.5,7c4.3,2.4,7.9,6.1,11.8,9.2c-7.7,1.6-15.1,1.6-20.9,4.8c-9,4.8-16.9,11.6-25,17.9
	c-4.2,3.2-7.7,7.3-11.8,10.8c-4.3,3.6-6.7,2.9-9-2.3c-0.8-1.8-1.6-3.7-2.2-5.6c-2.4-6.7-3.5-7-10.2-2.7c1.3,3.7,2.5,7.4,3.9,11.2
	c2.1,5.7,1.7,8.9-3.8,11.7c-7.8,3.9-16,7.7-24.4,9.6c-16.9,3.8-34,6.4-51,9.5c-3.9,0.7-7.7,1.9-12.6,3.2c5.3,3,5,6.1,3.5,10.5
	c-5.1,15.3-9.7,30.8-14.3,46.3c-3.8,12.6-9.1,17.6-22.3,16.7c-16.2-1.1-32.4-3.3-48.4-5.9c-21.2-3.5-42.2-7.4-63.7-9
	c-21.8-1.6-43.9-2.4-65.1-8.7c-2.4-0.7-4.7-1.8-6.8-3c-3.5-1.9-4.7-4.8-3.2-8.8c1.4-3.7,2.2-7.7,3.5-11.4c1.2-3.3,0.1-4.6-3-5.9
	c-15.5-6.2-30.8-12.6-46.2-19c-1.2-0.5-2.4-1.2-3.6-1.8c-10.4-6-10.1-6.5-6.8-18.1c4.3-15.1,6.4-10-6.3-19.3
	c-13.2-9.6-26.3-19.3-39.1-29.3c-3.6-2.8-6.2-6.9-9.1-10.6c-2.7-3.6-2.1-5.3,2.4-6c4.2-0.7,8.6-0.9,12.9-1.2c1.6-0.1,3.2,0,4.1,0
	c-1.5-17.4-2.9-34.2-4.3-51c0.6-0.2,1.1-0.4,1.7-0.5c0.7,0.9,1.5,1.8,2,2.8c6.2,11.4,13.7,21.6,24.1,29.6c2.8,2.1,5.3,4,7.1-1.1
	c0.5-1.5,2.4-2.6,4.4-4.6c-3.6-0.3-6.7-0.6-9.7-0.9c-0.1-0.5-0.2-0.9-0.3-1.4c4.3-2,6.6-7.1,12.6-6.8c2.7,0.1,5.6-0.9,8.2-1.8
	c1.2-0.4,2.1-1.9,3.1-2.9c-1.1-1-2.1-2.5-3.5-3c-1.6-0.7-3.6-0.9-5.4-0.7c-4.9,0.7-8.3-1-10.4-6.2c7.8,1.7,9.4-11.6,18.8-6
	c-40.2-39.4-38-84.3-19.7-132.2c-2,0.7-3.7,1.3-5.4,1.9c-4.2-6,4.8-10.2,2.3-16.6c-4.9,3.8-9.6,7.4-14.2,11c-0.5-0.4-1-0.7-1.5-1.1
	c0.6-1.9,1.2-3.8,1.9-6.2c-2.8,0-5.5,0-8.1,0c0.6-9.4,3.7-13.5,11.6-13.8c-1.7-3.3-3.2-6.2-4.8-9.2c0.6-1.7,1.4-3.8,2.2-5.8
	c2.3-1,4.9-1.9,7.1-3.2c0.9-0.5,1.9-2.2,1.7-3.1c-0.2-1-1.7-2.2-2.8-2.3c-1.9-0.2-3.9,0.5-5.9,0.3c-3.7-0.3-7.3-0.9-11-1.4
	c0-0.6,0-1.2-0.1-1.8c2-1.2,3.9-2.4,6.8-4.2c-3.9-2.1-7.1-3.9-10.9-5.9c3.7-3.1,7.5-6.3,11.5-9.7c1.6,1.7,3.3,3.5,5,5.3
	c0.3-0.1,0.7-0.3,1-0.4c-0.2-2.2-0.3-4.4-0.6-7.3c2.9,0.2,5.6,0.5,9.3,0.7c1-1.8,2.4-4.2,4-7.2c1.1-0.1,2.9-0.3,5.2-0.6
	c-1.8-2.9-3.6-5.6-5.7-9.1c5.3,0,10,0,14.8,0c0.8,1.8,1.6,3.9,2.6,6.1c2.5-2.1,4.6-3.9,6.7-5.7c0.6,0.2,1.2,0.5,1.8,0.7
	c0,2.5,0.1,4.9,0,7.4c-0.1,2.8-0.7,5.6-0.6,8.4c0,1.1,1.5,2.2,2.2,3.3c0.9-0.9,1.9-1.6,2.5-2.7c0.5-0.8,0.5-1.9,0.8-2.9
	c0.9-2.5,1.8-5,2.9-7.8c2.1,1.3,3.1,2,4.7,3c3.9-14.3,5.9-28.1,1.1-42.1c-1.4-4.2-3.3-6-8-3.5c-7.7,4-16.1,5.2-24.7,4.7
	c-6.8-0.4-14.4-6.4-15.9-12.6c-1.7-7.2,1-14.1,7.2-17.6c1.5-0.9,3.5-1.6,5.1-1.4c15.3,2.3,29,7.7,37.7,21.6
	c5.8,9.2,7.7,19.5,6.6,30.2c-0.8,7.2-2.6,14.4-4,21.6c-0.7,3.5-1,7.1-2.1,10.4c-1.6,4.9-3.7,9.6-5.8,15c5-2.2,6.9-6.6,8.6-10.5
	c7.4-17.5,11-35.6,7.6-54.6c-3.2-18-18.8-32.9-39.2-37.5c-2.1-0.5-4.3-0.6-6.4-1.3c-1.4-0.5-3.5-1.5-3.7-2.6
	c-0.3-1.5,0.5-4.1,1.6-4.7c4.4-2.3,9-4.2,13.6-5.8c6.9-2.5,13.9-4.5,20.8-7c13.6-4.9,21.5-16.4,30.3-26.8c6-7.1,11.6-14.5,17.5-21.8
	c1.1-1.4,2.5-3,4.1-3.6c1.7-0.7,3.9-0.8,5.5-0.2c0.8,0.3,1.2,2.8,1,4.2c-1.4,11.9,0.6,22.9,8.2,32.5c10.8,13.6,25.5,19.2,42.4,20
	c13,0.6,24.9-3.5,36.4-9.2c3.7-1.8,5.9-4.9,5.1-9.3c-0.7-4.4-3.4-7.8-7.7-8.1c-3.3-0.2-6.9,1.5-9.9,3.1c-1.1,0.6-1.2,3.5-1.2,5.4
	c0,0.5,2.2,1.8,2.7,1.5c1.3-0.7,2.2-2.2,3.4-3.2c0.9-0.7,2.4-1.9,3.2-1.6c1.4,0.5,2.8,1.7,3.5,3.1c0.4,0.8-0.2,2.9-1,3.4
	c-3,1.7-6.2,3.2-9.4,4.5c-19.8,7.7-38.9,7.2-56.3-6.1c-11.3-8.6-15.9-20.4-13.6-34.4c0.5-2.9,3.4-6.2,6.2-7.7
	c6.2-3.5,16.3-0.9,21.1,4.5c4.8,5.3,5.4,13.2,1.2,19.9c-2.2,3.5-4.8,6.8-7.6,9.8c-3.5,3.9-3.7,5.2,1.2,7.2
	c6.1,2.5,12.5,5.3,18.9,5.8c5.5,0.4,11.3-2.1,17-3.3c-0.1-0.7-0.1-1.3-0.2-2c-4.8,0-10.1,1.4-14.1-0.4c-3.9-1.7-8.2-5.4-7.7-12.3
	c4.4,0.4,8.8,0.8,13.7,1.3c-1.4-4.8-4.9-5.3-8.1-5.6c-4.9-0.5-7.4-2.6-6.5-8c1.8-0.3,3.6-0.6,6-0.9c-1.4-1.6-2.4-2.8-3.9-4.5
	c1.9-3.5,4-7.3,6.3-11.6c2,2.9,3.6,5.3,5.6,8.1c0.9-1.8,1.6-3.3,2.3-4.7c3.5-0.7,6.9-1.3,10.7-2c-3.4-8,5-8.5,8.8-13.2
	c0.7,3.5,1.2,5.9,1.8,9c1.6-1.2,2.8-2.1,5.1-3.8c-1,6.5,2.7,8.2,7.1,9.6c1.1,0.4,1.6,2.4,2.6,3.5c1.2,1.4,2.5,2.5,3.8,3.8
	c0.5-0.3,1-0.5,1.5-0.8c-0.2-1.6,0-3.4-0.6-4.8c-0.8-2-1.9-4-3.4-5.4c-4.1-3.8-5.3-7.4-0.1-11.7c1.3,1,2.8,2.1,5,3.7
	c0-2.6,0-4.6,0-7.2c4.2-1.6,8.5-3.3,13.3-5.1c-0.4,3.6-0.7,6.7-1,10.1c2.2-0.9,4.1-1.6,6.3-2.4c1.2,4.9-4.1,9.6,0.4,13.7
	c0.6,0.6,2.3-0.1,3.5-0.2c-0.8-8.6-0.8-8.6,4.8-10.1c1,1.5,2,3.1,3.7,5.8c0.8-2.8,1.4-4.6,2.2-7.3c4.3,0.2,8.9,0.4,13.9,0.7
	c-2.1,3.3-3.8,5.8-5.8,8.8c2.5,0,4.4,0,6.3,0c0.1,2.5,0.2,4.6,0.3,6.8c0.4,0.2,0.9,0.4,1.3,0.6c3.1-9.4,9.6-5.4,15.6-5
	c-1.5,2.6-2.9,5-4.7,8c2.4,0,4,0,5.6,0c-0.9,7.7-9.4,7-13.4,12.5c5.2,0.7,9.5,1.4,14.1,2c-3.7,9.3-12.2,8.1-18.9,10.6
	c3.6,4.9,7.3,2.8,10.7,1.8c5.8,7.3-2.2,8.2-6.2,11.9c13.1,1.6,24.1-0.9,34.6-8.3c-2.3-2.8-4.5-5.3-6.4-7.9c-1.6-2.1-3-4.4-4.3-6.7
	c-7.4-13.4,0.3-26.1,15.7-25.8c8.4,0.2,12.5,4,13.2,12.4c1.2,16.2-6.4,27.8-19.9,35.3c-19.3,10.8-38.8,8.2-57.8-1.6
	c-1.2-0.6-2.2-2.8-2.3-4.4c-0.1-0.9,1.8-2.8,2.7-2.8c1.2,0.1,2.3,1.7,3.5,2.6c2,1.4,4,2.6,7,3.3c-0.9-2.8-1-6.7-2.9-8.2
	c-2.5-2-6.9-3.6-9.7-2.7c-2.8,0.9-5.3,4.7-6.5,7.8c-1.5,3.9,1,7.3,4.4,9.1c23.3,12.3,50.8,14.4,73-4.3c11-9.3,15.7-21.6,13.8-36.2
	c-0.3-2.3,0.6-4.8,1-7.2c2.6,0.9,6,1.1,7.7,3c8,8.9,16.1,17.9,22.9,27.6c12.5,17.9,30.6,25.4,50.6,30.2c3.2,0.8,6.5,1.8,9.2,3.6
	c1.7,1.2,2.4,3.9,3.6,6c-1.8,0.9-3.5,2.4-5.4,2.6c-22.5,2.9-40.1,17.6-44.3,38.9c-2.7,13.5-1.8,27.2,2.7,40.5
	c2.3,6.8,4.9,13.5,7.4,20.2c0.4,1.1,1.2,2.1,2.6,4.4c1.4-5.8,1.3-9.8-0.4-14.1c-4.9-12.6-8.4-25.6-8.2-39.4
	c0.3-20.8,12-36.6,32-42.6c2.4-0.7,4.8-1.4,7.2-1.9c8.2-1.8,14.5,1.3,17.2,8.6c2.7,7.2-0.4,15.7-7.2,19.4c-7.5,4.1-15.5,3-23.4,1.4
	c-3.7-0.8-7.3-2.3-10.7-4c-3.7-1.9-5.3-0.5-6.7,2.9c-4.3,10.6-3.9,21.6-1.7,32.4c1.5,7.6,4.3,15,6.6,22.5c0.3,0.9,0.8,1.9,1.5,2.5
	c3.3,2.8,5.7,5.9,5.3,10.6c-0.1,1.1,1.2,2.4,1.8,3.6c0.6,0,1.2-0.1,1.7-0.1c0.4-2.4,0.9-4.8,1-7.2c0.1-1.5-0.3-3-0.7-4.4
	c-1.6-6.4-1.3-6.9,5.5-8.5c0.8,1.5,1.7,3.1,3,5.4c1.1-2.3,1.9-4,2.6-5.5c2.4-0.6,4.7-1.6,6.9-1.5c2.4,0.1,4.7,1.1,7.1,1.7
	c-1.7,2.8-3.3,5.4-5.1,8.5c2.1,0,4.1,0,6.5,0c-1.2,2.5-3.3,4.9-3,6.8c0.3,2,3,3.6,4.5,3.8c3.3-1.3,6.5-2.6,10.8-4.3
	c-0.6,3.8-1,6.1-1.7,10.1c3-2.6,4.9-4.2,7.1-6.2c3.8,2.9,7.7,5.8,11.8,9c-4,2-7.3,3.6-11.2,5.6c2.3,1.7,4.2,3.1,6.6,4.8
	c-3.9,1.9-6.5,5-10.8,3c-0.6-0.3-1.4-0.5-2-0.3c-2.4,0.6-4.8,1.4-7.2,2.1c1.7,1.9,3,4.4,5,5.5c6.3,3.3,7.4,6.7,3.1,12.6
	c-0.5,0.6-0.8,1.4-1.6,2.7c2.4,0,4.2,0,6.6,0c2,5.1,4,10,6.2,15.7c-3.6-1-6.5-1.8-10.3-2.9c1.2,2.9,2.1,5,2.9,7.1
	c-0.4,0.4-0.8,0.8-1.1,1.2c-2.7-1.6-5.6-2.9-8-4.9c-2.3-1.9-4.2-4.3-6.3-6.5c-0.7,0.4-1.3,0.8-2,1.1c1,2.5,1.5,5.3,2.9,7.5
	c2.1,3.2,2.7,6.3,1.2,9.9c-0.4,1.1-0.4,2.6-0.1,3.8c3.6,12.8,5.5,25.8,4.7,39c-1.6,26.2-10.7,48.9-31.2,66.3c-1.1,1-2.5,1.6-3.8,2.4
	C654,567.2,654.4,567.7,654.8,568.2z M683.6,409.6c0.4,3-4.4,6.3-0.5,8.7c1.5,0.9,5-1.5,7.6-2.4c0.1,0,0.1-0.3,0.2-0.6
	C688.4,413.4,686,411.5,683.6,409.6c-2.2-3.7-0.6-6.2,3-7.3c2.3-0.7,4.9-0.3,7.3-0.4c1.7,0,3.4,0,5.1,0c-4.6-4.7-4.4-5.8,0.6-8.6
	c1.3-0.8,2.4-2,3.8-3.2c-3-3.2-5.5-5-9.2-1.6c-0.9,0.9-3.2,1.7-3.9,1.2c-1-0.8-1.3-2.7-1.7-4.2c-0.2-0.7,0-1.5,0-2.3
	c-0.4-0.2-0.9-0.4-1.3-0.7c-1.2,1.7-2.6,3.3-3.5,5.2c-1.5,3.1-2.5,6.5-4.2,9.6c-1.9,3.4-5.7,4.1-7.9,1.7c-2.4-2.6-4.7-5.3-7.4-8.5
	c-1,3.2-2.9,6.2-2.3,8.5c1.6,7.3-0.7,13.7-2.8,20.3c-0.2,0.7-0.1,1.5-0.3,3.8c4-5.9,7.2-10.6,10.2-15
	C674.5,408.7,679.2,407.3,683.6,409.6z M668.6,272.1c0-0.5,0.1-0.9,0.1-1.4c-7.6-2.2-15.3-4.4-22.9-6.8
	c-10.3-3.2-20.1-7.4-27.2-15.9c-7.8-9.3-15.3-18.9-23-28.2c-3-3.7-6.3-7.2-9.2-10.5c-0.9,7.3-1,14.4-2.8,21
	c-7.1,24.7-33.3,37.5-57.6,36.6c-14-0.5-26.7-5.1-38.6-12.1c-9.4,11.6-12.8,11.7-23.4,0.4c-0.3,0-0.7,0-1,0.2
	c-0.5,0.2-0.9,0.5-1.3,0.7c-18.4,9.7-37.5,14.1-58.2,8c-19.5-5.7-40-24.8-38.2-48.9c0.1-1.7,0-3.4,0-5.2c-0.4-0.2-0.9-0.3-1.3-0.5
	c-5.4,6.7-11.2,13.1-16.1,20.1c-14.3,20.3-32.5,34.5-57.7,38.5c-2.9,0.5-5.6,2-8.4,3.1c1.8,1.4,3.2,1.8,4.6,2.1
	c1.6,0.4,3.3,0.8,4.8,1.3c18.7,6,32.6,17,38.2,36.7c4.8,16.7,2.9,33.1-2.5,49.1c-3.7,10.9-6.3,22.1-10.8,32.8c-0.2,0.6,0,1.3,0,1.9
	c0,3,0.8,6.5-0.4,9c-1.3,2.7-4.5,4.4-6.8,6.4c3.6,1.4,6.3,4.2,5,8.9c-1.3,4.5-4.4,6.4-9.1,5.6c-1.5-0.2-3.1,0.5-4.9,0.8
	c0-1.7,0-3.2,0-4.7c-0.3,0-0.6,0-0.9,0c-0.2,3.1-0.3,6.1-0.5,9.2c-0.4-0.2-0.7-0.4-1.1-0.6c-1.8,2.1-3.8,4-5.3,6.3
	c-1.3,1.9-1.9,4.2-2.8,6.4c-8.1,19.8-13.5,40-10.3,61.8c2.3,16.2,8.2,30.8,19.5,43c2,2.2,3.4,2.4,5.2,0.3c0.7-0.9,1-2.1,1.2-2.3
	c4.7,2.4,8.1,4.2,11.5,6c0.3-0.5,0.6-1,0.9-1.5c-1.7-1.4-3.3-2.9-5-4.3c0.2-0.5,0.3-0.9,0.5-1.4c4.9-0.3,9.9-0.9,14.8-0.6
	c2.3,0.1,5.3,1.4,6.5,3.1c3,4.8,6.7,8.7,11.6,11.4c0.4,0.2,0.6,0.9,1,1.1c1.9,0.9,3.9,1.8,5.8,2.6c2.5,1,5.5,1.3,7.6,2.8
	c3,2.1,3.3,7.7,8.8,6.9c0.3,0,0.7,1.4,1.2,2c0.8,1,1.5,2.7,2.5,2.9c5.9,1.3,7.6,6.5,11,10.8c-1.5,0.5-2.5,0.9-3.7,1.4
	c14.4,5.6,29.4,4.8,44,6.5c14.1,1.7,28.3,3.1,40.6,11c4.1,2.6,7.6,6.1,11.5,9.3c6.5-7.7,14.3-12.9,23.6-15
	c12.1-2.7,24.5-4.4,36.8-6.2c8.7-1.3,17.5-2,26.2-3.2c1.6-0.2,3.4-1.3,4.6-2.5c1.8-1.8,3.2-4,4.7-6c0.5,0.4,1,0.7,1.4,1.1
	c0-6,3-8.3,8.5-10.4c4.9-1.9,8.5-7.1,12.7-10.9c0.2-0.2,0.1-0.6,0.2-1c2.9-10.3,11.9-15,22.1-11.5c-0.9,1.6-1.8,3.2-2.7,4.8
	c0.4,0.4,0.8,0.7,1.3,1.1c2.8-2.7,5.6-5.3,8-7.5c2.4,1.1,4.8,3.1,6.1,2.6c5.3-2.1,9.2,1,13.7,2.7c-0.4,1.1-0.7,2.1-1.1,3
	c0.4,0.3,0.7,0.5,1.1,0.8c5.4-6,11.6-11.5,16.1-18.2c17.3-25.4,16.2-53,7.7-81c-0.4-1.4-2.5-2.3-3.5-3.5c-3.2-3.8-9.6-5.4-8.5-12.2
	c0.1-0.8-0.2-1.6-0.5-3.7c-0.6,2.9-1,4.4-1.7,7.5c-2-3-3.2-4.9-4.6-6.7c-0.8-1-1.6-2.1-2.7-2.8c-5.9-3.8-6.4-9.3-1.3-13.9
	c3.4-3,3.1-5.7-0.8-8.2c-1.7-1.1-3.7-1.8-5.1-3.2c-2.9-2.8-5.2-5.3-4.3-10.6c0.7-4.4,2.5-9.3,0-14.4c-7.4-15.5-12.7-31.8-14.8-49
	c-3.3-27.3,10.1-50.9,35.4-60.5C659,274.6,663.9,273.5,668.6,272.1z M575.4,604c-4,1-8,2.3-12,2.8c-15.5,1.9-31.1,3.2-46.6,5.2
	c-17.8,2.2-31.3,9.9-35.8,28.8c-1.1,4.6-3.2,8.9-5.3,14.3c-1.1-2.1-1.8-3-2.2-4c-1.4-3.6-3-7.1-3.8-10.8
	c-4-16.6-15.4-24.8-31.4-27.3c-12.6-1.9-25.4-3-38.1-4.1c-5.2-0.5-10.5-0.7-15.6,0.1c-3.8,0.6-6.9,0.5-10.2-1.7
	c-1.9-1.2-4.3-1.9-6.5-2.3c-1.2-0.2-2.6,0.7-4,1.1c0.5,1.2,0.6,2.7,1.5,3.4c2.5,2.1,5.1,4.5,8,5.7c5.3,2.2,5.5,7.7,9.2,10.9
	c-0.3,0.3-0.6,0.7-0.8,1c-3.4-1-6.7-2-10.8-3.2c2.3,4.6,4.2,8.5,6.4,12.7c-4.3-0.8-8.4-1.5-12.6-2.3c-2.4-0.7-4.8-1.4-8-2.3
	c-0.3-2.4-0.7-5.8-1.3-10.5c-3.2,3-5.4,5-7.2,6.7c-2.5-1.4-4.4-2.6-6.8-3.9c-0.6-3.8-8.2-11-12.1-10.8c-1.2-1.7-2.3-3.3-3.5-5
	c-0.6,0.2-1.2,0.5-1.8,0.7c0.8,3.7,1.7,7.5,2.4,11.2c0.3,1.7,0.9,3.5,0.6,5.1c-0.9,3.9-0.3,6.7,3.5,8.7c4.7,2.3,5.6,6.1,3.7,10.9
	c-1.2,3.1-1.8,6.4-3,9.5c-1.4,3.7,0.2,5.2,3.4,6.2c5.4,1.6,10.9,2.9,16.2,4.9c8.7,3.3,17.3,6.8,25.7,10.7c4.2,1.9,5.4,5.6,3.4,10.1
	c-1.2,2.9-2.2,5.9-3.2,8.9c-1.9,5.6-1.6,6.3,4.3,7c17.3,2.1,34.7,3.9,52,5.9c16.5,1.9,33,3.9,49.5,5.9c4.7,0.6,9.3,1.3,14.2,2
	c0.1-1.4,0.2-2.1,0.1-2.7c-1.9-12.1,0.5-23.4,7.2-33.3c7.2-10.7,17.6-17.8,29.7-21.8c12-4,24.3-6.9,36.5-10.3c1.5-0.4,3.7-1,4.2-2.1
	c1-2.5,1.2-5.4,1.8-8.5c-3.2,1.7-6.2,3.3-9.2,4.9c-0.4-0.5-0.9-1-1.3-1.5c2.4-3.8,4.6-7.8,7.2-11.5c1.7-2.4,4.2-4.3,5.9-6.7
	c0.7-1,0.4-2.7,0.6-4.1c-1.4,0-2.9-0.4-4.2,0.1c-1.8,0.7-3.9,1.6-5.1,3.1c-3.4,4.4-7.6,4.9-12.3,3.2
	C561.8,616.1,565.4,607.4,575.4,604z M352.2,703.6c-3.2,10.3-6.4,20.5-9.5,30.6c-1.8,6-1.2,7.9,4.7,9.8c6.6,2.1,13.4,4.1,20.3,4.9
	c23.2,2.8,46.6,4.4,69.8,7.6c24.2,3.3,48.2,7.8,72.3,11.6c9.1,1.4,18.3,2.5,27.1-1c3-1.2,6.6-3.7,7.6-6.5c4-11,7-22.4,10.4-33.6
	c-4.8,0.9-9.2,2.1-13.6,2.5c-18.6,1.7-36.8-2.2-55.1-4.3c-26.5-3.1-53.1-6.1-79.6-9.3C388.3,713.7,369.5,713.2,352.2,703.6z
	 M535.5,720.6c0.7-8.5,4.1-14.7,10.8-18c7.4-3.7,15.2-7,23.1-9c16.5-4,33.3-6.6,49.8-10.5c7.2-1.7,14-5.1,20.8-8.1
	c4.9-2.2,6.1-5.8,3.5-10.9c-1.8-3.4-2.6-7.2-4-10.8c-1.4-3.6-2.8-7.2-3.8-9.8c-7.8,2.8-14.8,5.9-22.2,7.6c-12,2.8-24.2,4.5-36.3,6.8
	c-18.7,3.4-37.3,7.1-53.8,17.3c-13.5,8.4-21.3,20.2-21.9,36.4c-0.1,2.7,0.1,5.2,3.5,5.6C515,718.5,525,719.5,535.5,720.6z
	 M344.7,719.2c0.8-2.1,1.5-3.7,2.1-5.4c2-6.3,4-12.7,6-19c2.3-7,3.3-7.7,10.7-7.6c3,0,5.9,0,8.9,0c0.1-0.8,0.3-1.7,0.4-2.5
	c-7.7-2.9-15.3-6.1-23-8.8c-18.5-6.6-38.5-9.4-55.4-21.5c-0.7,1.9-1.4,3.5-1.9,5.2c-2.5,7.8-4.9,15.5-7.5,23.3
	c-2.4,7.4-2.1,9,4.8,12.7c8.2,4.3,16.7,8.4,25.2,12C324.6,711.7,334.5,715.3,344.7,719.2z M288,666c2.3-6.8,4.2-12.7,6.2-18.7
	c2.8-8.5,3.8-9.1,12.6-7.6c2.6,0.4,5.2,1.1,7.8,1.7c3.1,0.7,6.2,1.4,9.2,2c-29.2-13-59.2-24.4-77.2-53.6c-0.6,0.2-1.1,0.5-1.7,0.7
	c1.6,11,3.2,22.1,4.9,33.7c-4.7,0-9.5,0-15.8,0C249.7,642.2,268.6,653.5,288,666z M352.7,597.6c0.7-0.3,1.4-0.6,2-0.9
	c-0.4-2.8-1.2-5.7-1.2-8.5c0-4-0.4-7.2-4.9-8.5c-3.4-1-6.6-3.2-9.9-3.5c-6.6-0.6-9.6-2.3-11.8-8.7c-1.5-4.3-3.4-4.9-7.4-2.5
	c-1.7,1.1-3.4,2.1-5.3,3.3c3.4,0.6,6.4,0.7,9.2,1.6c1.3,0.4,3,2.2,2.9,3.3c-0.1,1.5-1.3,3.5-2.7,4.2c-2,1-4.5,1.1-6.7,1.6
	c-3.6,0.8-7.6,0.9-10.8,2.4c-2.9,1.3-4.8,4.6-7.6,6.3c-3,1.9-3.7,3.9-1.9,7.9c3.3-1.3,6.4-2.5,9.5-3.8c3.8-1.5,7.9-2.2,10.3,1.7
	c2.5,3.9-0.3,7.1-3.4,9.2c-3.4,2.3-7.1,4.3-10.8,6c-2.7,1.3-3.9,2.7-2.4,5.7c0.9-0.1,1.6-0.3,2.2-0.2c2.1,0.3,4.3,0.6,6.4,0.9
	c-0.4,2.1-0.9,4.2-1.3,6.4c-0.2,1.3-0.6,2.8-0.1,3.9c1.2,2.5,2.9,4.8,5,8.2c1.6-3.7,2.5-6.1,3.7-8.4c0.5-1.1,1.4-2.6,2.3-2.7
	c1-0.2,2.4,0.8,3.3,1.6c0.9,0.8,1.5,2.1,2.2,3.2c0.8-2.5,0.6-4.9,0.2-7.2c-0.4-2.4-1.8-5-1.4-7.2c0.5-2.8,2.4-5.3,3.8-8
	c2.5,1.3,5.3,2.2,7.4,3.9c1.6,1.3,2.2,3.6,3.4,5.4c0.6,0.9,1.4,1.5,2.2,2.4c4.3-7.3,4.1-9-0.2-14.9c-1.9-2.6-3.5-5.7-4.4-8.8
	c-1-3.5,1.1-6.1,4.5-4.9c3.5,1.2,6.6,3.8,9.8,6C350.4,594.8,351.5,596.3,352.7,597.6z M708.7,628.8c-5.9-2.2-10.4-3.8-14.9-5.4
	c-3.3-1.2-4.6-3-3-6.5c2.3-5.1,4.5-10.2,7.2-16.3c-21.2,6.3-32.6,24.8-50,35.2c3.5,9.3,6.8,18.3,10.6,28.4
	C675.2,651.7,687.1,634.5,708.7,628.8z M599,632.8c3.3-3,3.8-5.4,0.6-8.6c-2.5-2.5-4.5-5.8-5.7-9.1c-0.7-1.9,0.1-5.4,1.5-6.5
	c1.7-1.3,5-1.5,7.2-0.8c2.1,0.7,3.5,3.3,5.3,4.9c1.4,1.3,3,2.5,4.8,3.9c1.4-2.4,2.9-3.9,3.1-5.6c0.8-6.6-3.9-13.4-10.6-15.9
	c-4.7-1.7-8.9-3.9-7.9-10.9c-2.6,0.6-5.2,0.5-6.3,1.7c-6.4,6.6-7.9,6.9-15.9,1.6c-2.4-1.6-4.3-2.3-5.7,1.4c-0.8,2.2-3,3.8-4.4,5.8
	c-1.1,1.6-1.9,3.5-2.8,5.2c0.4,0.3,0.9,0.6,1.3,0.9c1.1-0.6,2.2-1.3,3.3-1.8c2.7-1.2,5.4-2.8,8.3-3.1c2.3-0.2,4.8,1.2,7.2,2
	c-0.9,2.2-1.2,5-2.8,6.4c-3.2,2.8-7,5-10.7,7.2c-3.8,2.3-5.5,6.6-4,11.2c3.3-2.2,6.5-4.7,10.1-6.3c2-0.9,4.6-0.1,7-0.1
	c-0.2,2.5,0.4,5.4-0.6,7.4c-1.6,3-4.5,5.3-6.7,8c-1,1.2-1.5,2.8-2.6,4.9c7.9-2.5,7.9-2.4,6.6,4.9c-0.3,1.4,0,2.9,0,4.7
	c6.1-2.2,11.1-4.4,11-11.8c0-3.6,2.4-4.9,5.9-3.4C596.5,631.3,597.6,632,599,632.8z M340.3,743c-2.1,5-2,5.8,2.2,8
	c2.9,1.5,6,3.1,9.2,3.6c14.1,2.2,28.2,4.3,42.4,5.9c13.9,1.6,27.9,1.7,41.7,3.8c24.8,3.7,49.4,8.7,74.3,12.3
	c7.9,1.1,16.2-0.3,24.2-1.3c3.4-0.4,6.6-2.6,7.4-6.2c-6.9,0.9-13.7,2.9-20.2,2.3c-14.9-1.4-29.8-3.4-44.4-6.4
	c-30.2-6.2-60.9-8.3-91.4-11.4C370,752.1,354.3,750.9,340.3,743z M475.8,639c0.8-1.9,1.5-3.5,2-5.2c3.4-9.7,9-17.9,18.9-21.3
	c9-3.1,18.5-5.3,27.9-6.8c9.3-1.5,18.9-1.6,28.3-2.5c3.3-0.3,6.2-1.4,6.1-5.8c-0.8-0.2-1.4-0.6-2-0.5c-16,1.8-32.1,3-48,5.5
	c-13.2,2.1-24.8,7.7-32.1,19.9c-0.4,0.6-1.2,1-2.1,1.7c-8.7-14.8-22.7-20.3-38.4-22.5c-9.5-1.4-19.2-2-28.8-3
	c-14.9-1.6-30-2.4-42.4-12.5c-1.1-0.9-3.5-0.3-5.2-0.4c-0.1,0.5-0.2,1.1-0.3,1.6c1,0.8,1.9,1.6,2.9,2.3c5.7,4.2,14.5,3,18.5,10.5
	c0.3,0.5,1.5,0.5,2.3,0.7c3.1,0.6,6.2,1.4,9.3,1.8c15,1.7,30.1,2.9,45.1,5c11.8,1.7,22.8,5.8,29.9,16.2
	C471,628.2,473,633.6,475.8,639z M355.1,696.7c-2.2,3.9,0.1,5.8,2.6,7.1c3.1,1.6,6.4,3.1,9.8,3.6c18.7,2.8,37.5,5.5,56.2,7.9
	c19,2.4,38,4.4,56.9,6.6c16.7,1.9,33.3,4.3,50,5.5c7,0.5,14.1-1.2,21.1-2.6c2.2-0.4,4-3,6-4.6c-0.3-0.5-0.6-0.9-0.9-1.4
	c-13.1,5.2-26.5,3.9-39.8,2.3c-20.1-2.4-40.1-5.8-60.3-8.1c-21-2.4-42-3.8-63-6.3C380.6,705.1,367.2,704,355.1,696.7z M636.2,634.6
	c1.1-1.6,2.4-2.6,2.4-3.8c0.1-2.9,3.6-5.4,0.7-8.7c-1.3-1.5-1.8-3.6-2.7-5.4c2-0.8,4.1-1.6,6.1-2.3c0.6-0.2,1.2-0.3,1.9-0.5
	c0.6-4.2-2.1-5-5.2-5.9c-4.1-1.2-8.2-2.5-12.1-4.4c-2.6-1.3-5.7-3.8-3.7-7c1.3-2.1,4.6-3.6,7.1-3.9c2.8-0.3,5.8,1.3,8.7,1.5
	c1.4,0.1,3.1-0.7,4.2-1.6c0.5-0.4,0.3-2.7-0.3-3.1c-3.5-2.4-7-5.6-11-6.4c-5.6-1.1-11.6-0.3-18-0.3c1,1.9,1.7,3.2,2.3,4.4
	c-0.1,0.5-0.3,1.1-0.4,1.6c-5.3-0.6-10.6-1.3-15.9-1.9c-0.2,0.6-0.4,1.1-0.7,1.7c6.3,4,12.6,8,17.6,11.1c0,3.6-1,6.8,0.2,7.9
	c4.8,5,4,10.9,4.1,16.9c0,2.1,0.6,4.3,1,7.4c1.3-1.5,1.8-1.9,2.1-2.4c3.4-5.1,4-5,7.1,0.1C633.1,631.3,634.6,632.7,636.2,634.6z
	 M376.5,584.9c-0.2-2.4-9.4-11.9-11.1-11.8c-0.5,0-1,0.2-1.4,0.4c-4.4,1.5-10.1,10.4-7.8,14.1c2.9,4.7,0.2,8.7,0.8,13
	c-4.7,0.2-7.6-1-9.9-5.4c-1.6-3.2-4.8-6.6-9.7-4.6c0.1,6.1,1.3,7.3,6.5,7.7c4.1,0.3,6.6,3,6.1,7c-0.6,3.8-2,7.7-3.7,11.2
	c-1.7,3.6-2,6.2,1,7.2c3.5-1.4,6.9-3.9,8.3-3.1c2.2,1.3,3.1,4.8,5.2,8.6c2.1,0.7,5.7,1.9,10.9,3.6c-1.2-3.2-1.9-4.9-2.6-6.6
	c-1.1-3-0.8-5,3.1-4.6c1.1,0.1,2.1,0.3,3.2,0.5c-0.5-2.1-1.5-3.5-2.9-4.5c-1.9-1.4-4.1-2.2-5.9-3.6c-2.9-2.4-7-5.1-4.4-9.3
	c2.4-4,6.8-2.1,10.5-1c2.4,0.8,4.7,1.9,7.9,3.2c-1.6-5.9-3.3-9.7-8.7-11.1c-3.7-1-7.3-2.4-10.5-4.4c-1.8-1.1-2.5-3.9-3.6-5.9
	c2.1-1.1,4.1-2.6,6.3-3.2c1.6-0.4,3.6,0.2,5.4,0.6C371.7,583.5,374,584.2,376.5,584.9z M499,708.1c2.5-18.3,13.2-30.4,29.3-38.3
	c17.7-8.7,36.9-12,56.1-15.4c12.4-2.2,24.8-4.9,37.1-7.8c3.6-0.9,6.9-3.2,9.9-5.4c1.1-0.8,1-3.1,1.5-4.6c-1.5,0.1-3.1-0.2-4.4,0.3
	c-4.5,1.6-8.8,4-13.5,5.2c-7.6,1.9-15.2,3.8-23,4.6c-7.8,0.8-14.9,3.6-22.7,4.6c-15,2-29.6,6.2-43.2,13.4
	C508.6,673.8,498.7,687.7,499,708.1z M295.4,397.4c0.2,1.5,0.8,2.8,0.5,4c-0.4,1.9-1.3,3.8-1.9,5.6c-1.7-1.1-3.5-2.1-5-3.3
	c-0.6-0.5-0.9-1.4-1.1-2.2c-1.8-4.9-4.9-8.2-10.5-8.3c-1,0-2,0.3-3.1,0.4c0.2,1.2,0.1,2.6,0.7,3.5c1.2,1.7,3.4,3,4.1,4.8
	c0.7,1.8,0.6,4.7-0.4,6.1c-0.8,1.1-4,1.4-5.6,0.7c-2.7-1.1-4.8-3.4-7.3-5c-0.7-0.5-1.8-0.6-2.7-0.4c-0.3,0.1-0.8,1.5-0.5,2
	c2.7,5.1,0,6.5-4.5,7.9c-1.8,0.5-2.8,3.6-4.1,5.5c1.9,0.3,3.8,0.5,5.7,0.8c0.5,0.1,0.9,0.3,1.6,0.5c0,1.7,0,3.3,0,5.8
	c2.5-2.5,4.2-4.8,6.4-6.4c1.5-1.1,3.7-1.2,5.7-1.8c0.5,1.8,1.6,3.8,1.3,5.5c-0.5,2.7-1.9,5.2-3,8.1c3.6,0.5,6.3,0.4,7.6-3.6
	c0.7-2,1.6-4.2,3-5.7c1.5-1.6,3.8-2.5,5.8-3.7c0.6,2.3,1.7,4.6,1.5,6.8c-0.2,2.6-1.7,5.1-2.7,7.9c4-0.2,9.5-4.8,9.4-7.8
	c-0.2-4.9,1.5-8.7,5-11.9c1-0.9,2.1-2.9,1.8-3.7C300.8,405.5,298.1,401.7,295.4,397.4z M491.8,206c-2.1,1.2-3.4,2.5-4.9,2.7
	c-2.6,0.4-5.3,0.1-7.9,0.1c0.7-2.5,1-5.1,2.1-7.4c1.1-2.2,2.9-4,5.4-7.4c-5.3,1.5-7.9,1.3-6.6-3.5c0.2-0.8-0.5-2.4-1.3-2.8
	c-0.8-0.4-2.5,0-3,0.6c-1.1,1.3-2.5,3-2.5,4.5c-0.2,4.3-1.4,5.7-5.4,3.1c-0.6-0.4-1.5-0.3-3.5-0.6c1.3,2.4,2.1,3.8,3,5.3
	c1.2,2,2.6,3.8,3.7,5.9c1.4,2.8,2.7,6.4-0.9,7.7c-2,0.7-5.3-1-7.6-2.4c-1.8-1-3-3.1-4.7-4.9c-2.6,5.3,0.7,13.8,5.8,16.7
	c2,1.2,4.2,2.2,5.7,3.9c2,2.3,2.2,4.6-1.8,5.2c-0.9,0.1-1.8,0.3-3.6,0.7c1.4,1.9,2.4,3.2,3.3,4.5c0.1-0.5,0.2-1,0.4-1.5
	c3.6-0.5,7.3-0.9,10.9-1.6c3.4-0.7,7.1-1,10-2.7c2.8-1.6,6.3-3.8,5.7-8.6c-2.9,1-5.5,2.4-8.2,2.6c-1.9,0.1-4.7-0.9-5.5-2.3
	c-0.6-1.1,0.8-3.9,2-5.4c1.2-1.5,3.1-2.6,4.9-3.3C491.2,213.7,492.2,210.8,491.8,206z M680,450.3c0.5-0.5,1-1,1.5-1.5
	c-1-2-2.6-4-3-6.2c-0.4-2.2,0.4-4.6,0.7-6.9c2.2,0.5,4.8,0.5,6.6,1.7c2.1,1.4,3.5,3.7,5.9,6.4c-0.3-6.1-0.3-6.1,6.8-6.9
	c0.3-3.6-1.3-6.3-4.8-6.7c-4.5-0.5-4.9-2.3-3.5-5.9c0.3-0.8-0.1-2-0.2-3c-1.1,0.2-2.3,0.2-3.1,0.7c-2.4,1.5-4.4,3.7-6.9,4.8
	c-1.5,0.7-4.4,0.5-5.3-0.5c-1.1-1.3-1.5-4-0.9-5.7c0.7-2,2.9-3.5,4.2-5.3c0.6-1,1-2.5,0.7-3.6c-0.2-0.6-2-1.5-2.8-1.2
	c-4.8,1.6-10,2.8-11.3,9c-0.3,1.4-1.2,2.8-2.2,3.8c-1,0.9-2.8,1.8-3.7,1.4c-1-0.4-1.8-2.2-2.1-3.5c-0.3-1.5,0.2-3.1,0.4-6.1
	c-2.8,1.6-4.7,2.6-6.6,3.7c1,1.4,2.1,2.8,3,4.3c1.1,1.8,2.4,3.7,2.7,5.7c0.7,4.6,0.8,9.4,1.3,14c0.4,3.6,5,7.6,8.3,7.5
	c-0.8-3.6-2.1-7.3-2.3-11c-0.2-3.6,2.6-4.8,5.2-2.3c2.3,2.3,3.7,5.5,5.8,8C676.1,447.1,678.2,448.6,680,450.3z M634.8,567.6
	c5.3-1.5,11.4-1.8,15.9-4.7c9.1-6,15.9-14.5,21.3-24.1c11-19.5,13.3-40.5,10.3-62.3c-1.6-11.6-4.5-22.7-11.1-32.6
	c-1.2-1.7-2.7-3.3-4-4.9c1,6.8,3.1,12.9,5.1,19c4.8,14.6,6.6,29.6,5,44.8C674.4,531.6,659.9,553.1,634.8,567.6z M288.4,422.7
	c-0.6-0.1-1.2-0.2-1.7-0.4c-0.2,0.2-0.6,0.4-0.7,0.7c-11.7,24.5-20.8,49.6-18.3,77.6c1.6,18.2,7,34.8,18.7,49.1c1,1.3,4,2.5,5,1.9
	c3-1.6,0.6-3.5-0.7-5.1c-13.4-16.8-18.4-36.5-18-57.4c0.3-15.2,4-30,9.9-44C285.7,437.8,281.9,429.2,288.4,422.7z M308.3,356.3
	c-0.9,3.1-1.1,5.5-2.4,7.2c-1.4,1.9-3.7,3.1-5.6,4.6c-1.3-1.8-3.3-3.5-3.8-5.6c-0.6-2.3,0-4.9,0.2-7.4c0.1-1.5,0.3-3,0.5-4.5
	c-4.4,4-7.3,4.9-10.3-1c-0.7-1.4-3.9-1.5-5.9-2.2c-0.3,0.4-0.6,0.8-0.9,1.2c0.7,1.4,1.7,2.7,1.9,4.2c0.2,1.5-0.3,3.2-0.5,5
	c1.5,1.3,3.4,2.5,4.7,4.1c2,2.5,3.7,5.3,5.1,8.1c1.3,2.6,1.5,5.7,3,8.1c1.6,2.5,1.6,4.2,0.1,6.8c-0.9,1.4-0.4,3.7-0.5,5.6
	c0.6,0,1.2,0.1,1.8,0.1c0.7-3.9,1.3-7.8,2-11.7c0.5-0.1,1.1-0.2,1.6-0.2c1.1,2.4,2.1,4.9,3.2,7.3c1.5,3.2,7.4,6.2,10.4,5
	c3.8-1.5,3.7-4.6,2.9-8c-0.3-1.1,0.1-2.4,0.2-5.1c-1.2,1.7-1.5,2.4-1.9,2.8c-1.9,1.7-4,4.8-6.5,2c-1.1-1.3,0.3-4.7,0.7-7.1
	c0.1-0.6,0.8-1,1.2-1.6C313,369.2,312.8,362.7,308.3,356.3z M539.2,720.2c1.1-0.9,3-1.6,3.2-2.7c1.9-9.8,9.7-13,17.7-14.7
	c19.5-4.2,39.2-7.4,58.7-11.4c9.6-2,19.2-4.3,26.9-11c2.3-2,3.1-4.1,0.9-6.7c-3.4,2-6.5,4.2-10,5.8c-15.2,7.3-31.9,8.9-48.1,12.2
	c-13.4,2.7-26.9,4.7-39,11.6C543.3,706.9,538.3,711.4,539.2,720.2z M671.4,364.3c-2.1,1.5-4.7,2.7-6.2,4.7c-2.3,3.1-4,3.1-6,0
	c-0.4-0.6-1-1.2-2.5-2.9c-0.3,2.8-0.7,4.4-0.6,6c0.1,2,0.9,3.9,0.8,5.9c-0.1,3.5-0.2,7.9-4.7,8.1c-3.9,0.1-5-3.5-5-7.3
	c0-1.2-0.6-2.8-1.4-3.4c-0.8-0.5-3.1-0.4-3.5,0.3c-2.7,3.8-2.3,10.8,0.6,14.9c1,1.5,2.4,3,2.7,4.7c0.3,1.7-0.4,3.6-0.7,5.4
	c-1.6-0.5-3.2-0.9-4.7-1.7c-0.9-0.5-1.7-1.4-2.6-2.3c-1.7,9.6-0.3,12.5,7.2,14.7c-0.6-10.4,0.7-11.7,11.6-14.6
	c2.2-0.6,5.1-3.6,5.3-5.7c0.6-7.8,4.2-12.5,11.6-14.5c0.2,0,0.2-0.6,0.4-1.3C664.4,373.3,674.7,368.6,671.4,364.3z M292.8,404.5
	c0.5-1.5,0.8-2.1,0.7-2.5c-2.3-7.6-2.9-15.4-2.7-23.3c0-2-1-4.2-1.8-6.1c-1.1-2.7-4.3-3-5.9-0.6c-0.9,1.4-0.7,3.4-1.3,5.1
	c-0.6,1.9-1.5,3.8-2.3,5.6c-2-0.9-4.5-1.4-5.9-2.9c-1.6-1.7-2.4-4.3-3.4-6.6c-0.9-2.1-1.5-4.4-2.4-6.5c-0.3-0.7-1.4-1.6-2.2-1.6
	c-0.6,0-1.5,1.2-1.7,2c-1.5,5.6-1.3,5.3-6.7,2.8c-1.6-0.7-4.1,0.4-6.2,0.7c0.6,1.5,0.9,3.9,1.9,4.3c5,2,5.4,4.6,1.2,8.6
	c6.4,1.9,16.4-5.2,16.6,8.4c2-1.2,3.4-2,4.1-2.4c3.3,0.5,5.9,0.9,9.4,1.4C286.5,394.7,289.4,399.2,292.8,404.5z M532,228.5
	c-0.4-0.5-0.7-1-1.1-1.5c-1.3,0.2-2.7,0.7-3.9,0.4c-2.2-0.6-4.2-1.7-6.4-2.7c1.3-2.1,2.2-4.6,3.8-6.3c1.4-1.4,3.6-2,6.6-3.5
	c-8.5-2.1-1.2-6.6-3.2-11.1c-2.3,1.9-4.3,3.2-5.8,5c-1.9,2.3-3.5,3.6-5.8,0.6c-0.4-0.5-1.2-0.7-2.7-1.5c0.3,2.9,0.6,5,0.7,7.1
	c0.1,2.1,0.3,4.4-0.3,6.3c-0.5,1.4-2.4,3.1-3.7,3.2c-1.3,0.1-3-1.6-3.8-3c-0.8-1.3-0.4-3.5-1.3-4.7c-0.7-1-3.5-1.8-3.9-1.4
	c-3.2,3.8-1,12.9,3.6,15.4c4.7,2.6,7.7,6.1,8,11.8c0.1,1.5,1.7,3.4,3.1,4.1c4.3,2.1,7.8,0.5,10.9-4.8c-2.1,0-4.1,0.5-5.5-0.1
	c-2.2-1-4-2.8-6-4.3c1.8-1.6,3.4-3.6,5.5-4.7c1.7-0.9,4-0.2,5.8-0.9C528.4,231.2,530.1,229.7,532,228.5z M298,585.4
	c2.5-5.5,10.1-9.3,15.8-9.1c3.4,0.1,6.8-0.9,10.2-1.3c0-0.7,0.1-1.4,0.1-2.2c-1.7-0.6-3.3-1.5-5.1-1.7c-2.1-0.3-4.4,0.1-6.5-0.2
	c-1.3-0.2-2.4-1.3-3.6-1.9c0.9-0.9,1.7-1.8,2.6-2.6c0.5-0.4,1.2-0.6,1.8-0.9c6.2-2.9,6.9-3.4,3.1-9c-2.3-3.3-7-5.7-11-6.9
	c-2.5-0.8-5.9,1.3-8.7,2.4c-1.3,0.6-2.2,2.1-3.3,3.2c1.2,0.7,2.3,1.6,3.6,2.1c3.3,1.4,7.1,2.1,9.8,4.1c3.6,2.8,2.5,6.7-2,7.6
	c-3.1,0.7-6.6,0.5-9.8,0c-7-1.1-9.6,0.1-13,7.1C287.8,577.8,296.8,574.1,298,585.4z M297.5,647.4c-2.5,2.6-1.7,5,0.8,6.7
	c3,2,6.1,4.2,9.5,5.4c11.9,4.3,23.9,8,35.8,12.2c9.8,3.5,19.5,7.4,29.3,11.1c1.7,0.7,3.6,1,5.4,1.5c-0.9-2-1.6-4.1-2.8-5.9
	c-0.7-1-2.2-1.5-3.4-2c-6.8-2.7-13.5-5.7-20.4-8.1C333.4,661.9,314,658.4,297.5,647.4z M305.9,301.4c-2.5-2-4.2-4.1-6.3-5
	c-6.8-2.6-13.6-5.2-20.6-7.1c-5.7-1.5-11,4.9-8.3,10.2c1.7,3.2,5.1,6.9,8.3,7.7C288.1,309.2,297.1,307.7,305.9,301.4z M644.8,301.2
	c9.2,6.5,18.8,8.1,28.8,5.6c2.6-0.7,5.3-4.1,6.5-6.9c1.9-4.5-2.3-11.4-6.4-11C663,290.1,653.4,293.8,644.8,301.2z M646.3,631.7
	c0.6,0.3,1.3,0.5,1.9,0.8c2-1.3,4.2-2.5,6.1-4c7.5-6.3,14.9-12.7,22.4-19c6-5,12.4-9.8,20.5-10.7c3.6-0.4,5.2-2,6.8-5.5
	c-3.1,0-5.7-0.3-8.2,0.1c-9.1,1.5-16.8,6.2-23.8,11.9c-8.3,6.8-16.3,14-24.3,21.3C646.6,627.7,646.7,630,646.3,631.7z M559.6,236.5
	c0.7-0.2,1.4-0.4,2.1-0.7c4.9-7.1,7.6-14.8,5.8-23.6c-0.3-1.3-1.2-2.8-2.2-3.7c-2.5-1.9-10.1-0.5-13.1,2.1
	c-3.3,2.8-4.5,6.5-2.5,10.2C552.7,226.3,556.3,231.3,559.6,236.5z M719.1,636.8c-6.6-6.4-7.7-6.9-15-3.9c-4.8,2.1-9.8,4.4-13.8,7.7
	c-8.9,7.2-17.3,14.9-25.9,22.6c-1.9,1.7-6.8,2.8-3.4,6.5c2.9,3.2,5.4-0.9,7.3-2.6c5.4-4.6,10.3-9.9,15.7-14.6
	C693.8,643.9,704.4,636.6,719.1,636.8z M390.4,237.7c3.8-6,7.4-10.9,10.3-16.2c2-3.7,1.3-8.2-2.3-10.3c-3.5-2-8-2.3-12.1-2.8
	c-0.9-0.1-2.7,2.2-2.9,3.5C382,220.8,383.1,229.1,390.4,237.7z M451.5,202.7c-7.3,4.4-3.4-5.3-7.8-5.2c-0.7,1.1-2.3,2.5-2.1,3.6
	c1,5.2-0.8,7.6-7.6,6.6c3.4,3,6.1,4.6,7.6,7c1.3,2.1,1.3,5,1.9,7.6c-2.6-0.1-5.2,0-7.7-0.3c-1.6-0.3-3.2-1.3-4.7-2
	c2.2,6,4.1,11.9,11.3,11.8c7.4-0.2,12.4-3.5,12.9-12.1c-2-1.8-5.7-3.7-6.5-6.4C448.1,210.3,450.3,206.7,451.5,202.7z M305.3,631.1
	c-0.1-1.6,0.2-3.3-0.3-3.7c-3-2.3-6.1-4.7-9.5-6.3c-19.5-9.3-36.5-21.5-48-40.3c-0.4-0.7-1.1-1.2-2.1-2.3
	C247.7,597.3,279.9,623.9,305.3,631.1z M436,249.9c7.3-5.3-1.6-9.6-0.7-14.3c1.5-0.2,2.9-0.3,5-0.6c-10-4.8-14.6-11.6-11.1-22.7
	c-5.9,6-5.8-2.7-9.8-2.5c-0.3,1.7-1.5,4.2-0.7,5.2c3.6,4.8,1.1,6.6-5.1,7.9c3,1.3,4.4,2,5.8,2.6c2.3,1,4.9,1.5,6.8,3
	c1.4,1.1,2.8,4,2.2,5.1c-0.7,1.4-3.3,2.5-5.2,2.6c-2.1,0.2-4.3-0.9-6.4-1.4c-0.3,1-0.6,1.3-0.5,1.6c0.1,0.5,0.1,1.1,0.4,1.4
	c3.9,3.7,8,6.7,14.1,5c1.8-0.5,4.4,0.7,6.3,1.6C437.4,244.7,436.5,247.4,436,249.9z M281.5,694.4c-2.2,4.4,2.1,6.6,5.4,8.1
	c17.3,7.7,34.7,15,52.1,22.3c1,0.4,2.7-0.6,4.1-1c-1.1-1.3-1.9-3.1-3.2-3.7c-9.3-3.9-18.9-7.4-28.1-11.4
	C301.7,704.2,291.8,699.3,281.5,694.4z M592.6,632.4c-2.2,9.2,0.4,12,8.3,10.3c4.5-1,9-2.2,13.6-3c4.7-0.8,5.7-2.9,3.9-7.3
	c-2.4-5.9-5.5-11.9,0.4-17.7c0.1,0-0.3-0.5-1-1.6c-5.9,8.1-11.7,15.9-17.4,23.6C597.9,635.3,595.5,634,592.6,632.4z M229,624.6
	c-0.4,0.7-0.8,1.4-1.3,2.1c15.7,19.6,37,32,57.4,45.9c2.1-4.3,2.1-4.2-2.4-7.1c-17.7-11.2-35.4-22.4-49.4-38.4
	C232.4,625.9,230.5,625.4,229,624.6z M612.1,578.3c0.1,0.6,0.3,1.2,0.4,1.8c14.2,0.5,28.3,0.2,42.4-8.6c-4.3-1.7-8.2-4.7-11.2-4.1
	c-9.5,2.1-18.6,5.6-27.9,8.7C614.5,576.6,613.4,577.6,612.1,578.3z M331.5,645.8c-11.6,1-21.6-5.2-33.6-3.4c1.6,2,2.2,3.5,3.2,4
	c8,3.8,16.1,7.6,24.3,11.1c0.7,0.3,2.7-0.6,3-1.4C329.6,653,330.3,649.9,331.5,645.8z M496.1,196.9c-0.5,0.1-1,0.2-1.5,0.3
	c0.5,2.1,0.7,4.2,1.4,6.1c1.5,4-0.9,10.7-4.7,12.6c-2.6,1.3-5.1,2.9-7.8,4.4c0.8,1.3,1.4,2.7,1.5,2.6c4.4-1.5,9.2-2.6,12.8-5.3
	c1-0.8,1.5-4.6,3.9-6.2c3.2-2.2,6.3-4.6,9.8-7.2c-8.3-2.3,0.7-6.3-1.8-10.3c-1.7,0.8-4.1,1.2-5.3,2.6
	C500.3,201.5,500.5,201.6,496.1,196.9z M646.3,587.9c0.5,3.1,0.8,5.7,1.3,9.1c-4.4,0-8.4,0-12.8,0c0.3,1.6,0.4,3.6,1,5.4
	c0.4,1.2,1.7,2.8,2.6,2.8c1.3,0,3.2-1.1,3.6-2.2c1.8-4.5,4.2-4,7.2-1.5c4.8,4,8.4,3.7,13.6-1.3c-1.9-1.4-3.7-2.6-5.4-4
	c-0.9-0.8-2.3-1.8-2.3-2.7c0-1,1.4-2,2.3-2.8c0.9-0.7,2.1-1,3.2-1.5c0-0.4-0.1-0.9-0.1-1.3C656.2,587.9,651.8,587.9,646.3,587.9z
	 M300.4,606.4c5.3-1.7,5.8-3.6,3.5-9.6c-3.7,0.3-7.2,0.7-11.1,1c0.1-2.3,0.6-4,0.1-5.4c-0.4-1.3-2-3.4-2.7-3.2
	c-4.1,0.8-9.1-0.4-11.9,4.2c7,1.7,7.2,2.4,2.5,7.7c-1,1.1-1.5,2.8-2.2,4.1c4.8,3.1,9.4,2.2,12.5-2.1c2.9-3.9,5.5-3.8,7.9,0.5
	C299.4,604.4,299.8,605.3,300.4,606.4z M483.4,249.2c0-5.3-3.2-9.2-7.7-9.3c-4.4-0.1-8.1,4.3-8,9.6c0.1,4.6,3.8,8.9,7.7,8.9
	C479.7,258.5,483.4,254.2,483.4,249.2z M624.1,570c0-10.9,9.3-10.7,14.7-15.6c-3.9-1.3-8.1-0.5-11.1-2.1c-4.7-2.4-7.2,0.1-9,3
	c-1.8,2.9-3.2,6.8-2.8,9.9C616.1,567.1,620.6,568.2,624.1,570z M375.8,690c-5.5,0-10.8-0.1-16,0.1c-1.1,0-2.8,0.9-3.2,1.9
	c-0.3,0.8,0.5,2.9,1.3,3.3c4.5,2,9.1,3.6,13.6,5.4C373,697,374.4,693.5,375.8,690z M650.6,649.8c-3.1-8.1-5.5-14.6-7.6-20.3
	c-0.9,1.3-1.7,2.8-2.7,4c-3.2,3.7-3.3,11.7,1,15.5C642.9,650.4,646.6,649.6,650.6,649.8z M296,617.5c0-5.1,0-9.7,0-14.2
	c-0.6-0.1-1.2-0.2-1.8-0.3c-1.7,2.8-3.3,5.7-4.5,7.7c-2.5-0.5-4.4-0.8-6.2-1.2c-0.2,0.7-0.4,1.4-0.6,2.1c5.4,2.8,10.7,5.7,16.1,8.5
	c5.1,2.6,6.2,1.9,7.5-4.3C303.2,616.3,300.2,616.8,296,617.5z M546.6,719.7c3.5-1.4,7.1-2.5,10.4-4.2c1.3-0.7,2.8-3.6,2.4-4.3
	c-0.9-1.4-3-2.7-4.8-2.9C549.3,707.6,545,713.4,546.6,719.7z M318.5,630.2c-1.5,1.2-3.3,2-3.2,2.7c0.2,1.3,1,3.1,2.1,3.8
	c3.6,2,7.4,3.7,11.1,5.4c1.1,0.5,2.5,0.2,3.8,0.3c-0.2-1.4,0-3.4-0.8-4C327.4,635.5,323,633,318.5,630.2z M306.3,602.1
	c1,0.5,1.9,1,2.9,1.4c1.9-2.7,3.8-5.5,5.7-8.2c-2-0.7-4-1.4-6-2.2C308,596.1,307.2,599.1,306.3,602.1z M261.3,397.2
	c3.7-0.1,4.8,7,9.3,3.2c0.9-0.8,0.8-4.5-0.1-5.5C266.9,391.2,264.7,396.8,261.3,397.2z M605.3,624.6c3.6-4.5,2.7-8.7-2-12.9
	C598.3,616.8,604.3,619.9,605.3,624.6z M608.5,571.4c3.3,4.7,2.6,3.5,12.5,0.2C612,567.7,612,567.7,608.5,571.4z M607.9,576.9
	c-1.5,2.1-3.2,4.5-5.1,7.1c3.4,0.9,6.8,1.7,10.6,2.7C611.3,583,609.7,580,607.9,576.9z M631.6,604.3c0.8-0.5,1.6-1.1,2.4-1.6
	c-1.4-2.6-2.8-5.2-4.2-7.8c-1.3,0.8-2.7,1.7-4,2.5C627.8,599.7,629.7,602,631.6,604.3z M643.3,653.4c1,4.8,1.2,4.8,8.5,1.3
	C650.6,650.7,650.2,650.6,643.3,653.4z M343.3,600.5c-0.6,0.4-1.2,0.8-1.8,1.3c7.6,4,1.8,9,2.2,14.2c2.5-4.6,5.3-8.5,3.2-13.4
	C346.5,601.6,344.5,601.2,343.3,600.5z M682.7,423.3c0-0.8,0-1.7,0-2.5c-2-0.3-4.1-0.5-6.1-0.8c-0.2,1.5-0.3,3-0.5,4.6
	C678.3,424.1,680.5,423.7,682.7,423.3z M298.2,559.4c-0.3,0.5-0.6,0.9-0.9,1.4c1.9,1.6,3.8,3.3,5.8,4.7c0.6,0.4,1.7-0.1,2.5-0.1
	c-0.1-0.9,0-2.2-0.5-2.5C302.9,561.5,300.5,560.5,298.2,559.4z M271,403c0,0.9-0.1,1.8-0.1,2.7c2,0.2,4.1,0.5,6.1,0.7
	c-0.1-1.3-0.2-3.8-0.5-3.8C274.7,402.5,272.8,402.8,271,403z M601.3,609.1c-5.9,0.9-6.8,3-3.6,7.4
	C598.9,614.2,599.9,612.1,601.3,609.1z M274.4,372.6c-0.6,0.6-1.3,1.2-1.9,1.8c1.8,2,3.6,4.1,5.4,6.1c0.6-0.5,1.2-1.1,1.7-1.6
	C277.9,376.9,276.2,374.8,274.4,372.6z M299.7,386c-1,2.9-1.8,5.6-2.8,8.6C302.5,392.4,302.8,391.3,299.7,386z M435.2,219.1
	c2.1-5,1.6-7.3-4-7.9C432.6,214,433.6,215.9,435.2,219.1z M506.2,209.9c-0.1,0.7-0.3,1.4-0.4,2.1c1.5,0.8,3,1.5,4.5,2.3
	c0.1-1.3,0.7-3.3,0-3.8C509.4,209.8,507.7,210.1,506.2,209.9z M508.3,221.7c0.7,0.2,1.4,0.4,2.1,0.6c0.5-1.5,1-3,1.5-4.5
	c-1-0.2-2.1-0.4-3.1-0.6C508.6,218.8,508.4,220.3,508.3,221.7z"/>
<path class="st0" d="M378.5,311c-6.8,10.1-6.8,10.1-12.8,7.1c-1.2,1.5-2.4,3-4.2,5c-1.6-2-2.9-3.7-4.2-5.4c-8,2.8-8,2.8-9.4-2.7
	c-3,0.5-6,0.9-9.3,1.4c-0.8-6.3,3.5-9.5,6-12.9c-1-2-2.9-4.5-2.5-5c1.7-2.1,4.1-3.5,6.3-5.1c1.7-1.2,3.3-2.6,5.2-3.3
	c2.2-0.9,4.6-1,6.9-1.6c1.6-0.4,3.2-0.9,6.2-1.7c2.5,1.3,6.3,3.2,10.1,5.3c3.3,1.8,5.1,4.5,4.6,8.6c-0.3,2.6,6.7,8.5,9.7,8.5
	c4.6,0,8.3-3.4,8.3-7.7c0-6.3-0.2-12.7,0.1-19c0.1-2.7-2.2-7.1,3.8-7.3c6-0.1,3.9,4.3,4,7c0.2,7.6,0.1,15.3,0.7,23
	c2.6-3.8,8.7-5.6,5.4-12.4c-0.9-1.8,1.1-5.4,2.5-7.7c2.3-3.6,5.2-6.8,7-9.1c2.6-0.5,4.1-0.6,5.5-1.1c2.4-1,4.5-4.7,7.5-0.5
	c0.2,0.4,2.1-0.4,3.1-0.6c1.9-0.4,3.9-1.1,5.8-0.9c4,0.4,4.8,2.5,3.2,6.3c3.4,2,6.9,4.1,10.3,6.1c-0.1,0.5-0.2,1.1-0.3,1.6
	c-3,1.2-5.9,2.4-9,3.7c0,1.6,0,3.2,0,5.5c-1.8,0-3.5-0.3-5,0.1c-1.2,0.3-3.1,1.5-3.1,2.3c0.4,7.1-3.3,4.8-8.2,2.2
	c0.6,2.7,0.4,4.7,1.3,5.4c1.3,1,3.7,1.8,5,1.2c9.1-4,12.6-2.6,16,6.3c1.5,4.1,3.4,8.1,5.5,12c4.2,7.8,3.6,10.9-3.4,15.7
	c2.6,1.3,5.5,2.3,7.7,4.1c3,2.4,1.8,4.8-1.5,6.5c3.3,1.8,3.3,1.8,7.9-2.3c-0.1-0.3,0-0.8-0.2-0.9c-5.1-3.3-5.1-6,0.3-9.1
	c1.3-0.7,2.8-1.1,4.2-1.5c3-0.7,6.5,0.1,7.6-4.6c0.5-2,3.8-3.3,4.8-5.4c3-5.8,5.6-11.8,8.1-17.7c2.4-5.6,8.1-7.5,14.2-4.7
	c1.2,0.5,2.7,1.7,3.5,1.3c1.8-0.9,4.5-2.5,4.5-3.8c-0.2-3.4-2.9-1-4.5-1.3c-1.3-0.2-2.3-1.8-3.4-2.9c-1.1-1-2.3-3-3.4-3
	c-4.9,0.2-5.9-2-4.3-6.5c-1.8-0.5-3.3-1-4.8-1.5c-1.5-0.6-2.9-1.3-5.9-2.6c4.5-2.8,7.7-4.9,11.3-7.1c-0.3-0.7-0.8-1.9-1.8-4.4
	c2.7-0.6,5.3-1.7,7.8-1.7c2.8,0,5.6,3.1,8.6-0.1c0.4-0.4,2.8,1.2,4.4,1.7c1.6,0.5,3.3,0.9,6.3,1.7c1.9,2.6,4.9,6.2,7.4,10.1
	c1.1,1.7,2.2,4.3,1.6,5.9c-2,5.5,0.9,8.7,5.4,12.5c0.1-2.6,0.3-4.6,0.3-6.6c0-6.3,0-12.7,0-19c0-2.8,0.7-4.9,4.1-5
	c3.7-0.1,3.9,2.2,3.9,4.9c0,7,0.4,14-0.1,21c-0.4,5.5,2.6,7,6.8,7.8c4.2,0.8,11.1-3.8,11.1-7.8c0-5.6,2.9-8.5,7.6-10.5
	c2.8-1.1,5.4-2.6,6.9-3.3c3.1,0.5,5.1,1,7.1,1.1c2.9,0.1,6.2-1.1,7.1,3.4c0.1,0.6,1.9,0.9,2.9,1.4c1.7,0.7,3.6,1.1,5,2.1
	c4.1,2.9,4,4.8-0.3,7.7c1.9,2.5,4,4.8,5.5,7.5c0.8,1.4,0.6,3.4,0.8,5.1c-1.6,0.2-3.2,0.5-4.7,0.4c-1.3,0-2.6-0.4-4-0.7
	c-0.6,1.7-1.1,3.2-1.8,5.2c-2.7-0.9-5.1-1.7-7.9-2.7c-1.1,1.7-2.2,3.4-3.6,5.8c-1.8-2-3.3-3.6-4.8-5.2c-5.7,2.9-5.7,2.9-12-6.1
	c-1.4,1.1-2.7,2.2-5.3,4.3c3.3,2.3,6,4.1,8.6,5.9c3,2.1,6.2,3.8,8.7,6.4c2.2,2.3,3.7,3.6,7.2,2.5c6.6-2,10.8,1.5,11.6,8.5
	c0.2,2,1.4,4.3,2.8,5.8c3.7,3.9,4.3,7.4,2,12.2c-0.8,1.7-1.3,3.9-1.1,5.8c0.4,4.7-0.5,8.5-5.1,10.9c-1.2,0.6-1.9,2.3-2.6,3.7
	c-1.4,2.8-2.6,5.8-3.7,8.3c0.6-0.2,2.3-0.6,3.9-1c-0.1,0.4-0.3,0.8-0.4,1.2c1.5,1,3,2.2,4.6,2.8c2.7,1,5.8,0.8,6.7,4.8
	c0.3,1.5,3.3,2.4,5.1,3.6c5.2,3.7,5,7.3-0.1,10c1.4,4.3,2.7,8.5,4.1,12.8c-0.5,0.3-1,0.7-1.4,1c-3.1-1-6.2-2-9.2-2.9
	c-3.7,4.2-3.7,4.2-11.3-1.3c-1.2,1.8-2.5,3.7-4.3,6.6c-1.7-3.2-2.8-5.1-3.8-7.1c-6.7,0.2-6.7,0.2-10.5-9.9c-6,1.2-5.9,1.5-4,6.5
	c1.9,5.2,5.1,8.2,10.6,9.3c2.8,0.5,5.4,1.9,7.9,3.7c-7.2,3-14.7,0.9-22.4,2.2c0.9,1.2,1.6,2.3,3.3,4.8c-7.3,0.7-13.5,1.3-20.1,2
	c0.5,3.1-0.5,5.3-4.3,4.6c-9.1-1.7-18.3-3.5-27.4-5.3c-1-0.2-1.9-1.1-4-2.3c2.5-1.7,4.3-3.3,6.4-4.3c4.1-1.9,8.2-3.8,12.5-5.1
	c4.3-1.3,5.9-3.7,5.4-8c-0.2-1.8,0-3.7,0-5.5c0-18.9,0-18.9-11.7-33.6c-0.9-1.1-3.2-2.2-4.4-1.8c-1.1,0.4-2.3,2.6-2.4,4
	c-0.2,3.7,1.6,7.1,2.5,10.5c2,7.3,1.3,15.3,1.6,23c0,0.4-0.3,1.1-0.7,1.3c-6.2,2.4-7.2,8.4-9.8,13.4c-2.4,4.6-8.1,4.7-13.2,1.5
	c-2-1.2-4.3-2.2-6.6-2.6c-5.1-0.9-8.2-3.8-8.4-8.9c-0.1-2.7-0.5-4.6-3.1-6.1c-3.7-2.2-4.3-6-3.6-10.1c0.4-2.7,0.8-5.4,0.6-8.2
	c-0.2-4.6,0.5-8.3,4.6-11.4c1.8-1.3,2.3-4.4,3.8-7.6c-7.1,2.9-5.4-4-8.2-5.7c-2.8,1.3-5.6,2.6-8.7,4c-0.6-1.5-1.1-2.4-1.2-3.3
	c-0.1-3.1-1.3-3.9-4.5-3.4c-3.2,0.5-6.5,0.1-10.2,0.1c-1.1,8.1-5.2,1.4-8.6,0.7c-0.7,1.2-1.4,2.4-2.4,4c6.9,0.3,11.4,2.7,11.9,9.8
	c0.1,1,1.6,2,2.6,2.8c3.6,3,4.3,6.8,3.9,11.2c-0.2,2.3-0.3,4.8,0.4,6.9c1.5,4.4,0.5,8-3,10.7c-2.2,1.6-3.4,3-3.4,5.9
	c-0.1,6.1-3.7,9.1-9.9,9.5c-1.6,0.1-3.5,0.7-4.8,1.7c-6.7,5.3-14.4,2.8-15.8-5.5c-0.5-3.2-1.7-4.8-4.5-6.2c-4.9-2.4-5.8-7-3.6-12.4
	c0.7-1.7,0.8-4.1,0.3-5.9c-1.2-4-1-7.7,2.1-10.7c3.5-3.4,0.4-7.5,1.5-11.1c-1.7-0.2-4.3-1.1-4.9-0.4c-6.5,8.6-16.6,15.4-14.3,28.6
	c0.7,4.2,0.3,8.7,0.1,13c-0.1,3.1,1.1,4.9,4,6c4.5,1.7,9,3.5,13.4,5.6c2.3,1.1,4.3,2.6,6.2,4.8c-11.1,4.9-22.4,7.3-34.7,7.4
	c0.3-2.3,0.5-3.8,0.8-6.3c-6.7,0-13.3,0-21,0c1.5-2.4,2.2-3.5,3.4-5.4c-7.6,0-14.9,0-22.2,0c-0.2-0.5-0.4-0.9-0.5-1.4
	c0.8-0.8,1.5-1.8,2.5-2.2c1.7-0.8,3.4-1.5,5.2-1.7c7.8-0.8,10.7-6.2,12.6-13.4c-1.6-0.8-3.4-1.6-5-2.4c-4.3,2.9-1.5,13.3-11.2,9.5
	c-1,2.2-1.9,4.1-3.1,6.6c-2.3-1.9-4.1-3.4-6-4.9c-2.2,1.8-4.2,3.4-6.5,5.2c-1.4-1.9-2.4-3.3-3.6-5c-3,1.1-6,2.1-9.3,3.3
	c-2.7-5.7,0.8-9.5,3.2-13.5c-6.3-3.2-6.3-6.6-0.2-10.6c2.2-1.5,4.7-2.1,5.6-5.6c0.5-1.7,5.4-2.2,8.7-3.3c0-0.5,0-1.6,0-3.1
	c2.2,0.4,4,0.7,5.4,0.9c-1.2-2.9-2.2-5.8-3.6-8.6c-0.8-1.5-2-2.9-3.4-3.9c-3.8-2.7-5.4-6-4.1-10.7c0.4-1.6-0.2-3.8-1-5.5
	c-2.4-5-1.7-8.6,2.1-12.7c1.3-1.4,2.3-3.6,2.6-5.5c1-7.3,5.3-10.5,12.2-8.1c2.8,1,4-0.1,6-1.7c3.7-3.2,7.9-5.7,11.7-8.7
	c1.6-1.2,3.8-2.8,4.1-4.4C381.9,315.1,379.9,313.3,378.5,311z M586.9,386.2c-1.5-1.9-2.6-3.9-4.2-5.2c-1.7-1.3-4.1-1.8-6.1-2.8
	c-1-0.5-2.1-1.3-2.5-2.3c-2.4-5.5-4.6-11.1-6.7-16.7c-0.6-1.5-0.4-3.3-1.1-4.7c-3.3-6.5-2.3-10.9,4.1-14c3.7-1.8,3.5-4.1,2.7-6.4
	c-6.3,3.6-12.5,6.9-18.5,10.6c-1.5,0.9-2.7,3.3-2.8,5.1c-0.3,7.3,0.1,14.7-0.2,22c-0.3,5.3,1.2,9.7,4.7,13.6
	c3.3,3.7,6.3,7.7,9.5,11.5c2.6,3.2,12.4,1.9,13-2C579.7,389.6,583,387.4,586.9,386.2z M378.5,335.1c-0.4,2.5,0,4.8,3.3,6.7
	c5.6,3.1,6.8,7.7,4.2,13.5c-0.6,1.5-0.7,3.2-1.3,4.7c-2.2,5.9-4.6,11.7-6.9,17.5c-0.3,0.7-1.2,1.2-1.9,1.6
	c-4.1,2.4-8.2,4.7-13.6,7.7c6,1.5,8.4,3.9,10.1,8.4c1,2.6,5.9,3.9,9.3,5.2c1,0.4,3.2-1.1,4.2-2.3c4-4.7,7.8-9.6,11.4-14.5
	c1.1-1.5,2.1-3.6,2.1-5.4c0.2-9.3,0.2-18.7,0-28c0-1.5-1.1-3.6-2.4-4.4C391.1,342.2,384.9,338.8,378.5,335.1z M483.3,340.2
	c-5.1-0.4-10.1-0.7-13.4,4.7c2.5,1.4,4.8,2.7,7.5,4.3c-2.9,1.9-5.5,3.4-7.7,5.2c-0.8,0.6-1.3,2.4-1,3.3c0.5,1.1,1.8,2.2,3.1,2.6
	c1.1,0.4,2.5-0.2,4-0.4c0.7,2.2,1.3,4.2,2,6.7c2.9-1.6,5.4-3,8.1-4.5c1.3,2.5,2.4,4.8,3.9,7.6c1.6-2.4,2.7-4,4-6
	c2.1,1.7,4,3.1,6.6,5.1c2.6-4.1,5.1-7.9,8-12.6c3.3,2.8,6.3,5.6,9.5,8c1,0.8,2.7,0.6,4.1,0.8c-0.2-1.7,0.3-4-0.6-5
	c-2.2-2.4-5.3-4.1-7.6-6.4c-2.3-2.2-4.4-3.1-7.8-2.3c-4,0.9-8.1-0.8-9.2-5c-1-4-2.8-6.3-6.2-8.6
	C485.6,334.6,485.9,334.1,483.3,340.2z M616.4,417.2c0.5-0.5,1-1,1.5-1.5c-2.6-3.8-5.1-7.6-7.9-11.7c2.7-0.4,5.1-0.7,7.4-1
	c0.3-0.5,0.5-1.1,0.8-1.6c-3.2-2.1-6.4-4.2-10.3-6.7c0-0.5-0.2-2-0.4-4.3c-3.2,0.2-6,0.5-9.2,0.7c-0.2-1.1-0.5-2.4-0.8-3.9
	c-3.7,0.5-7.3,0.7-10.6,1.7c-2,0.6-4.9,2.7-4.9,4.1c-0.2,5.9-4.4,6.5-8.5,7.7c-1.2,0.3-2.1,1.9-3.1,2.8c1.4,0.3,3,1.2,4.3,0.9
	c2.9-0.7,5.7-1.9,8.9-3.1c-1.2,9.8,0.1,11.2,8.8,11c0.6,1.4,1.2,2.9,1.8,4.3c0.5,0.3,1,0.6,1.5,1c1-2.1,1.9-4.3,3-6.7
	c2.7,3.3,4.2,5.2,5.9,7.3c1.7-1.9,3-3.3,4.1-4.7C611.4,415,613.9,416.1,616.4,417.2z M358.8,413.4c3.1-0.4,6.6,3.4,8.1-1.5
	c0.8-2.7,0.9-5.6,1.3-8.8c2.3,0.8,4.7,1.9,7.2,2.3c1.7,0.3,3.5-0.4,5.2-0.6c-1.2-1.1-2.3-2.5-3.8-3.1c-3.7-1.5-6.9-2.5-7.8-7.7
	c-1-5.2-6.8-4.6-10.9-5c-2-0.2-4.2,1.4-6.3,2.2c-1.5,1-3.3,0.6-5.1,0.8c-1.2,0.1-3.3,1.1-3.3,1.5c0.5,4.1-2.5,4.1-5.1,5.1
	c-2.1,0.8-3.6,2.8-6.5,5.2c4,0.9,6.4,1.5,8.8,2c-2.5,3.8-4.9,7.5-7.3,11.2c0.5,0.4,1,0.9,1.4,1.3c2.5-1.3,5-2.6,7.8-4.1
	c1.2,1.6,2.4,3.2,3.9,5.2c1.8-2.1,3.2-3.8,5-5.9c1.9,1.7,3.6,3.3,5.5,5C357.7,416.7,358.2,415.1,358.8,413.4z M606.2,298
	c-0.5-0.9-0.7-1.4-1-1.8c-3-3.7-10-0.8-11.8-6.9c-0.1-0.2-2.2,0-3.3,0.4c-1.5,0.6-2.8,1.5-4.2,2.3c-1-1-1.8-2.3-2.8-2.6
	c-4.1-0.9-11.7,5.3-11.1,9.3c0.5,3.5-0.8,5.2-3.5,6.8c-1.6,0.9-3.2,1.9-4.4,3.2c-0.9,1-1.2,2.6-1.7,3.9c1.4,0,3.1,0.4,4.2-0.2
	c2.8-1.6,5.3-3.7,7.8-5.7c2.1,3.6,3.8,6.6,5.7,9.9c2.3-1.6,3.9-2.7,5.7-3.9c1.2,1.6,2.3,3,3.6,4.7c1.3-2.1,2.5-3.9,3.6-5.8
	c2.3,1.5,4.3,2.9,6.6,4.4c0.5-2.4,0.9-4,1.2-5.7c3,0.7,5.7,1.3,8.5,1.9c0.3-0.5,0.7-1.1,1-1.6c-3.2-3.2-6.5-6.4-9.8-9.7
	C602.4,300,604.1,299.1,606.2,298z M375.8,306.7c3.3,2.7,5.9,5.1,8.9,7.2c0.9,0.7,2.5,0.4,3.8,0.6c-0.3-1.4-0.3-3.1-1.1-4.1
	c-1-1.2-2.7-1.9-4-2.8c-2.7-1.8-5.1-3.3-4.3-7.8c0.8-4.6-4-5.8-7.2-7.8c-2.8-1.8-5.1-1.5-6.1,0.3c-3.8-0.3-9-1.2-9.2-0.6
	c-1.3,4.3-4.6,3.6-7.6,4.2c-1.5,0.3-2.8,1.6-4.7,2.8c2.5,1.6,4.2,2.7,5.5,3.6c-3.2,3.6-6.1,6.7-8.9,9.8c0.4,0.5,0.8,1,1.2,1.5
	c2.6-0.8,5.1-1.5,8-2.4c0.5,2.1,1,3.9,1.7,6.6c2.3-2,4.1-3.5,6.1-5.3c1.2,2.1,2.4,4.2,3.7,6.5c1.4-1.9,2.5-3.5,3.6-5
	C371.5,318.6,373.3,317.4,375.8,306.7z M513.4,300.4c3.3-3.5,5.6-3.7,7.4,0.4c0.3,0.8,3.1,1.1,4.4,0.6c1.7-0.6,3-2.3,4.5-3.5
	c8.2,9.2,8.2,9.2,10.8,8.4c-1.1-1.7-2-3.5-3.3-4.9c-2.3-2.7-3.9-4.9-2.1-9.1c1.9-4.6-2.4-7.9-5.4-10.9c-1-1-3-1-3.8-1.2
	c-2.7-1.8-6.3-4.9-6.8-4.5c-3.3,3-5.8,0.3-8.6-0.5c-1.3-0.3-2.7-0.1-4.8-0.1c1.5,2.3,2.5,4,3.5,5.6c-4,1-7.6,2-11.1,2.9
	c0.1,0.6,0.2,1.3,0.3,1.9c2.4,0.7,4.9,1.5,7.4,2.2c-0.2,2-0.3,3.7-0.5,5.8c2.6,0,4.8,0,7.2,0C512.8,295.6,513,297.3,513.4,300.4z
	 M435.1,277.9c-2.3-4.2-4.6-1.8-6.9,0.8c-0.8,0.9-1.7,2.4-2.7,2.5c-6.8,1.1-10.5,7.5-8.1,14.2c0.4,1-0.1,2.5-0.7,3.5
	c-1,1.7-2.6,3.1-3.5,4.9c-0.6,1.2-0.5,2.8-0.7,4.3c1.3-0.6,3-1,3.8-2c1.9-2.4,3.5-5.1,5.2-7.7c7,5.6,7,5.6,12,0.1
	c1.5,0.4,3,0.8,5,1.4c-1.5-7.1,4.2-5.5,7.9-6.9c-3.1-7.9,5.7-3.7,7.6-8.4c-3.9-1.1-7.7-2.1-11.8-3.3c1.3-1.7,2.5-3.3,3.7-4.9
	c-0.2-0.5-0.4-1-0.6-1.5C442,275.7,438.8,276.7,435.1,277.9z M525.4,359.8c0.8-1.5,1.5-2.1,1.6-2.8c1.1-9.3,6.1-15.9,14.1-20.6
	c1-0.6,2.2-1.9,2.3-3c0.3-4.3,0.3-8.6,0.1-12.9c-0.1-0.8-1.9-2.2-2.9-2.2c-3.9,0.1-6.9,3.9-7.8,7.7c-0.8,3.3-2.8,6.3-4.3,9.5
	c-0.5,1-1.5,1.9-1.6,2.9c-0.7,6-3.7,9.4-9.9,9.8c-0.8,0.1-2.1,0.7-2.2,1.3c-0.2,0.7,0.4,1.9,1,2.5
	C518.6,354.6,521.7,357,525.4,359.8z M371.8,328.7c0.4,0.6,0.8,1.2,1.2,1.8c1.9-0.5,3.8-1.3,5.7-1.3c1.8,0,4.8,0.4,5.3,1.5
	c2.7,5.5,7.6,7.7,12.7,9.8c3.7,1.6,7.4,3,10.8,5.1c9.8,6,11.9,16.3,5.5,25.7c-1.3,1.9-2.9,3.7-4,5.7c-0.8,1.5-1.1,3.2-1.6,4.9
	c0.5,0.2,1,0.4,1.5,0.6c2.4-3.2,4.7-6.3,7.1-9.5c3.8-5.1,6.6-5.7,12.5-3.3c1.1,0.5,2.6,0.3,3.8,0.4c0.1-0.7,0.3-1.3,0.4-2
	c-3-1.1-6.1-2-9-3.3c-1.4-0.6-3.4-1.9-3.5-3c-0.3-13-8.6-19-19.4-23.3c-3.7-1.5-7.5-3.1-10.6-5.4c-5-3.6-4.6-10.4,0.5-13.9
	c2-1.4,4.4-2.4,6.5-3.8c0.9-0.6,1.3-1.7,2-2.5c-0.3-0.4-0.7-0.8-1-1.3c-2.1,1-4.6,1.7-6.4,3.1c-5.7,4.4-9.5,11.3-17.4,12.6
	C373.6,327.6,372.7,328.3,371.8,328.7z M578.9,329.5c0.2-0.6,0.3-1.2,0.5-1.9c-2.3-0.9-4.7-1.7-6.9-2.9c-2-1.1-3.8-2.5-5.5-4
	c-3.7-3.1-7.3-6.3-11.2-9.2c-0.8-0.6-2.5-0.1-3.8-0.1c-0.1,0.5-0.2,0.9-0.4,1.4c2.4,1.3,4.9,2.4,7.2,3.8c7.8,4.6,7.9,12.4,0,16.8
	c-3.2,1.8-6.6,3.1-10,4.5c-7.5,3.1-13.9,7.4-16.4,15.6c-1,3.4-1.2,7-1.6,9.3c-4.1,2.5-7.5,4.5-10.8,6.5c1.1,0.6,1.9,0.6,2.6,0.2
	c7.5-3.2,9.3-2.8,14.2,3.9c2.1,2.8,4.3,5.7,7.2,9.6c0.5-7-3.7-10.2-6.2-14c-4.2-6.7-4.3-15,1.6-20.5c3.6-3.4,8.4-5.8,12.9-8.1
	c5.7-2.9,12.2-4.5,15.5-10.9c0.4-0.9,2.8-1.1,4.2-1C574.4,328.5,576.7,329.1,578.9,329.5z M423.2,353.4c0,0.7-0.1,1.3-0.1,2
	c1.4,0,2.9,0.4,4.1-0.1c6.5-2.3,6.4-2.3,9.5,3.7c0.7,1.4,2.7,2.7,4.3,3.1c2.2,0.6,4.6,0.3,6.8,0.4c0,0.4,0,0.9,0,1.3
	c1-1.2,2.1-2.4,3.3-3.8c1.9,1.3,3.7,2.5,5.6,3.9c0.9-1.7,1.6-3.2,2.4-4.7c2.5,0.7,4.8,1.4,7.1,2.1c0.3-0.4,0.7-0.9,1-1.3
	c-2.9-3-5.9-6-9-9.2c1.9-0.9,3.6-1.7,5.3-2.6c0.1-0.4,0.2-0.9,0.2-1.3c-2.7-1-5.3-1.9-7.9-2.9c-4.2,8.4-9,9.9-16.7,6.3
	c-2.1-1-4.8-1.5-7-0.9C429.1,350.1,426.2,352,423.2,353.4z M428.3,347.5c-3-5.1-6.1-10-8.9-15.1c-0.8-1.4-1.2-3.2-1-4.8
	c0.4-5.1-2.8-7-6.9-8.3c-2.5-0.8-3.9-0.1-4,2.7c-0.1,3.2,0.1,6.3-0.1,9.5c-0.2,3.2,1.1,5,3.8,6.8c3.5,2.4,6.7,5.4,9.3,8.8
	C422.9,350.2,424.9,350.7,428.3,347.5z M458.3,377.7c0-4-3.2-7-7.4-6.9c-4.2,0.1-7,2.6-7.1,6.6c-0.1,3.9,3.8,8.1,7.3,7.9
	C454.5,385.2,458.3,381.2,458.3,377.7z M430,307.7c-3.9,0-7.2,3.3-7.1,6.9c0.1,3.9,3.8,7.7,7.3,7.6c3.9-0.1,7.2-3.7,7-7.6
	C437.1,311,433.6,307.7,430,307.7z M507.5,376.5c0.3-3.3-1.2-5.9-4.7-6.1c-5.7-0.3-9.7,2.7-9.7,6.6c0,3.5,3.9,7.4,7.4,7.5
	C504.6,384.6,507.5,381.3,507.5,376.5z M514.6,385.5c5.2,0.2,8.2-2.4,8.4-6.6c0.2-4.2-2.7-7.2-7-7.3c-4.9-0.1-6.2,1.7-6.5,8.7
	C509.4,384.6,512.2,385.1,514.6,385.5z M436.6,387.4c1.9-1.9,5.1-3.6,5.3-5.7c0.8-6.4-1.7-9.7-6.1-9.8c-3.8,0-7.1,3.5-7.1,7.5
	C428.7,383.2,431.8,386.4,436.6,387.4z M520.8,307c-3.6,0-7,3.3-7.1,7.1c-0.1,3.9,3.3,7.3,7.3,7.3c3.5,0,6.7-3.5,6.8-7.3
	C527.9,310.6,524.5,307.1,520.8,307z M511,314.2c0-5.3-1.5-7.2-5.6-7.3c-4.3-0.1-7.5,3.2-7.4,7.7c0.1,3.4,3.6,6.8,6.9,6.7
	C508.8,321.2,511.1,318.6,511,314.2z M439.6,313.7c-0.1,5.2,2.2,8,6.3,7.9c3.8,0,6.6-3.1,6.6-7.1c0-4.4-2.9-7.5-7-7.2
	C441.5,307.6,439.1,309.7,439.6,313.7z M369.6,332.1c-3.2-0.1-6.7,3.2-6.8,6.5c-0.2,3.3,3.6,7.5,6.6,7.5c2.9,0,6.6-3.7,6.8-6.8
	C376.3,335.4,373.5,332.3,369.6,332.1z M563.7,419.5c0.3-0.5,0.7-1,1-1.5c-3.9-5.7-7.8-11.4-11.8-17.2c-0.4,0.2-0.9,0.3-1.3,0.5
	c0,5.1-0.2,10.1,0.1,15.2c0.1,1,1.6,2.7,2.7,2.8C557.5,419.8,560.6,419.5,563.7,419.5z M588.5,337.6c-0.1-4-2.6-6.8-6.4-6.7
	c-3.9,0-6.8,3.1-6.6,7.1c0.1,3.5,3.4,6.7,6.8,6.6C585.8,344.5,588.6,341.4,588.5,337.6z M493,408.4c4.1,0.1,7.3-3.1,7.3-7.1
	c-0.1-5.2-3.4-4.1-6.6-3.5c-1,0.2-2.2-0.4-3.3-0.6c-3.4-0.8-4.6,1-4.6,4C485.7,405,489,408.3,493,408.4z M459.5,409.2
	c0.7-0.3,2.9-0.6,3.5-1.7c1.3-2.2,2.6-4.9,2.4-7.3c-0.4-3.6-3.5-2.3-5.9-1.9c-1.1,0.2-2.3,0.1-3.4-0.2c-3.7-0.9-4.8,1-4.7,4.2
	C451.6,406.1,454.7,409.1,459.5,409.2z M490.8,381.6c-4.4,3.2-5.6,7.8-2.8,11.2c2.7,3.3,7.9,3.6,11,0.3c1.7-1.8,3.8-4.2,0.1-6.4
	C496.4,385.1,493.8,383.5,490.8,381.6z M461,382.4c-2.9,1.8-5,3.9-7.6,4.7c-4,1.2-3.4,3.8-1.5,5.5c2,1.8,5.2,3.5,7.6,3.1
	c2.1-0.3,4.7-3.1,5.5-5.4C466.2,386.9,464.3,383.9,461,382.4z M379.6,341.6c-3.4,3.9-6.5,6.3-7.8,9.4c-1.1,2.6,3.2,6.3,6.3,6.3
	c3.3,0,7.8-4,7-7.1C384.3,347.5,382,345.2,379.6,341.6z M573.9,355.6c3.4,0,7.5-3.7,6.2-6.1c-1.7-3-5.1-4.9-7.7-7.3
	c-1.9,2.2-4.7,4.2-5.4,6.8C566,352.2,570.1,355.6,573.9,355.6z M452.2,422.3c3.5,0,7-3.5,7-7.1c0-4.7-4.4-5.1-6.7-4.7
	c-2.9,0.5-6.3,2.9-7.8,5.4C443.5,418.1,448.8,422.3,452.2,422.3z M399.5,403.4c-0.5-0.3-1-0.5-1.6-0.8c-3.7,5.6-7.3,11.2-11.8,18.1
	c3.8,0,5.9-0.2,8,0c4.1,0.4,5.6-1.4,5.4-5.5C399.3,411.3,399.5,407.4,399.5,403.4z M492.8,414.3c-0.3,4,2.4,7,6.6,7.2
	c3.9,0.2,6.3-1.7,7.1-5.5c0.4-1.9-4.8-6.8-7.2-6.3C496.8,410.3,492.9,409.8,492.8,414.3z M360.3,338.5c1.1-3.8-0.4-5.4-3.8-5.5
	c-3.5-0.1-6.2,2.8-6.3,6.8c-0.1,3.6,2.9,7.2,6.2,7C362.9,346.5,361.1,342,360.3,338.5z M436.1,388.9c-3.8,0.7-7-4.5-10.3,0.1
	c-2.1,3-1.4,5.9,0.9,8.6c2,2.3,4.3,3.5,7.4,2.1C440.3,397,434.5,392.8,436.1,388.9z M518,399.4c4.9,0.1,9.4-3.7,8.8-7.2
	c-0.3-2.2-2.3-5.4-4-5.7c-4.1-0.8-8.8,4.5-8.2,9.1C514.9,397.2,517.3,398.6,518,399.4z M601.5,338.2c-0.5-2.9-1.6-6-5.7-6.4
	c-4.5-0.4-5.3,2.2-4.7,6c0.2,1.1-0.7,2.4-0.5,3.4c0.3,1.2,0.9,2.8,1.9,3.4C596.5,346.8,601.4,343.6,601.5,338.2z M518.4,417.2
	c-1.5-1.2-3.7-3.9-6.4-4.7c-3.5-1-2.7,2.6-3.1,4.7c-0.2,1.1-0.8,2.2-1.5,3.1c-2.8,3-0.6,4.4,1.8,5.5
	C513.5,427.7,518.4,424.1,518.4,417.2z M439,399.5c-0.6,1.4-2,3.3-1.9,5.2c0.1,3.9,2.9,6.7,6.7,6.4c2.1-0.2,5.3-2.6,5.7-4.6
	C450.4,402.3,445.9,399.3,439,399.5z M518.5,413.1c5.8,0,9.6-2.8,9.1-6.5c-0.3-1.9-2.3-4.8-3.9-5.1c-4.4-0.8-8.9,3.9-8.4,8.6
	C515.4,411.4,517.9,412.5,518.5,413.1z M440.1,412.7c-1.4,0.9-2.8,1.4-3.7,2.4c-1.3,1.4-3.6,3.7-3.2,4.7c1,2.6,2.8,5.3,5.1,6.6
	c1.3,0.8,4.2-0.7,6.2-1.6c0.5-0.2,1.1-1.9,0.8-2.5C443.8,419.3,442,416.2,440.1,412.7z M599.3,357.6c5.6,0,8.8-2.7,8.7-6.3
	c-0.1-3.3-1.7-5.9-5.2-6.2c-3.3-0.3-7.1,4.3-6.5,8C596.6,355.1,598.6,356.7,599.3,357.6z M434.1,402.4c-3.4,1.6-8.4-4-9.6,2.6
	c-0.4,2.3,1.1,6,3,7.5c2.7,2.1,6.5,2.2,9.3-1c-0.6-1.5-1.2-2.7-1.5-3.9C434.8,406.1,434.6,404.6,434.1,402.4z M514.5,402.1
	c-0.6-0.6-1.8-3-3.2-3.2c-5.7-0.5-10,2.9-9,7.2c0.4,1.8,3.4,3.9,5.5,4.2C511.4,411,514.5,407.4,514.5,402.1z M378.4,419.4
	c4.5-1.1,20.9-25.8,20.3-29.8C391.3,399,383.3,407.6,378.4,419.4z M552.8,388c-0.6,0.3-1.3,0.6-1.9,0.9c6.2,9.5,12.4,19,18.7,28.4
	c0.3,0.5,1.6,0.4,3.3,0.8C568.4,405.8,559.8,397.4,552.8,388z M366.5,380.5c-1.5-2.2-2.7-4.1-4.1-5.9c-0.9-1.1-2.2-2.9-3.2-2.8
	c-1.5,0.2-3.5,1.3-4.3,2.7c-2,3.3-1.1,6.4,2,8.7C360.2,385.6,363.3,384.7,366.5,380.5z M355.2,353.4c-0.2-3.3-4.2-8.1-6.3-7
	c-2.2,1.2-4.3,4-4.8,6.4c-0.7,3.5,3,6.2,6.9,5.8C354.1,358.4,355.8,356.8,355.2,353.4z M365.8,358.3c0.7-0.6,3.3-1.7,3.8-3.5
	c1-3.9-2.6-8.5-5.9-7.9c-2.6,0.5-6.3,1.2-6.1,5.3C357.9,356,360,358.3,365.8,358.3z M585.4,379.3c3.2,4.4,6.4,5.1,9.7,2.3
	c3-2.5,3.2-6.9,0.6-9.7c-2.3-2.4-4.5-2.7-6.3,0.6C588.1,374.8,586.7,377,585.4,379.3z M582.4,350.8c-0.8,5.4,2.1,6.2,4.6,6.4
	c3.7,0.3,6.3-1.9,6.9-5.7c0.7-4.1-2.9-5.4-5.5-5.7C584.3,345.4,582.4,348.4,582.4,350.8z M504.5,397.4c5.4,0,9.6-3.3,8.5-6.5
	c-0.8-2.4-3.5-4.5-5.9-5.7c-1.9-0.9-5.6,5.1-5.3,9.4C501.9,395.9,504.1,397,504.5,397.4z M446.2,398.2c0.7-0.6,3.2-1.5,3.6-3
	c0.8-3.3-3.5-10.3-5.2-9.5c-2.3,1.2-5,3.3-5.8,5.6C437.7,394.6,441.5,398.1,446.2,398.2z M439.1,342c2.2-0.7,3.5-0.7,3.9-1.3
	c1.5-2.3,4-4.9,3.8-7.1c-0.5-4-3.6-1.6-5.7-0.9c-0.6,0.2-1.3,0.2-2,0.2c-2.8,0-6.2,0.6-5.5,3.9C434.2,339,437.5,340.5,439.1,342z
	 M512.1,341c1.3-1.2,4.3-2.6,4.8-4.7c0.7-3.1-2.2-4.3-5.2-4.4c-1.1,0-2.3-0.3-3.3-0.7c-4-1.9-4.9,0.6-4.6,3.6
	C504.3,338.7,507,340.3,512.1,341z M518.3,332.2c2.6,2.4,5.7,3.4,8.4,1.1c1.8-1.5,3-4.2,3.5-6.5c0.3-1.3-1.3-4.2-2.2-4.3
	c-1.6-0.2-3.9,0.9-5,2.1C521,326.7,519.8,329.5,518.3,332.2z M594.9,357.3c-2.9,0.9-5.6,1.5-7.9,2.6c-1.4,0.7-2.7,2.3-3.2,3.8
	c-0.2,0.9,1.1,2.6,2.2,3.4c2.9,2.4,5.7,0.9,8.1-1.1C596.8,363.6,597,360.7,594.9,357.3z M433.2,333.8c-2.1-3.6-3.2-6.2-5-8.3
	c-1.2-1.3-3.3-2.4-5-2.3c-0.8,0-2.6,3-2.2,4.2c0.8,2.6,2.2,5.6,4.3,6.9C427,335.3,430.1,334.1,433.2,333.8z M372.2,366.8
	c-3,2.5-5.2,4.4-7.4,6.2c1.9,1.8,3.6,4.4,5.9,5.2c2.8,1,7.1-2.8,6.5-5.9C376.8,370.6,374.4,369.2,372.2,366.8z M582.3,376.9
	c1.2-1.3,3.1-3.3,4.9-5.3c-2.3-1.6-4.5-3.9-7-4.4c-2-0.4-5.7-0.1-5.6,3.9C574.7,374.9,577.2,376.5,582.3,376.9z M362.3,370.6
	c2.3-2.1,4-3.5,5.7-5c-1.5-1.7-2.9-3.4-4.6-4.9c-0.6-0.6-1.9-0.5-2.8-0.6c-1.4-0.2-3.8-0.6-3.9-0.2c-0.6,1.6-1.2,3.9-0.5,5.1
	C357.4,366.9,359.7,368.3,362.3,370.6z M459.1,327.7c-2.3,1.5-4.1,3.6-6.4,4.1c-3,0.7-3.8,2.5-2.7,4.5c0.8,1.4,3.4,2.8,5,2.6
	C460.2,338.3,462.1,332.8,459.1,327.7z M444,364.4c-0.4,0.4-0.7,0.9-1.1,1.3c-2.2-0.6-5-0.7-6.5-2.1c-1.9-1.8-2.7-4.7-4.4-7.8
	c-2.2,1.3-4.2,2.5-6.3,3.8c3.7,2,6.8,3.2,9.3,5.2c2.6,2,4.7,4.8,7.2,7.3c1.8-1.4,3.1-2.4,4.5-3.6C445.8,367.1,444.9,365.7,444,364.4
	z M430.4,325.8c2.3,1.8,4.1,4.1,6.2,4.5c2.1,0.4,4.6-1,6.6-2.3c0.5-0.3,0.3-3.3-0.5-4.2C438.6,319.7,435,322.6,430.4,325.8z
	 M519.4,324.4c-2.1-1.3-4.2-3.5-6.3-3.6c-2.1-0.1-4.2,2.1-6.3,3.3c1,1.7,1.6,4.1,3.1,5C513.9,331.3,517.7,329.2,519.4,324.4z
	 M491.7,327.5c-3,4.9-0.9,10.2,4.3,10.7c1.6,0.1,3.4-1.7,5.1-2.6c-0.9-1.4-1.6-3.2-2.9-4.2C496.4,329.9,494.2,328.9,491.7,327.5z
	 M569.9,358.4c-0.5,3.1,0.7,5.6,4,6.6c3.5,1.1,6.2-0.5,7.9-3.6c0.5-0.8,0.5-2.5,0-3.2c-0.7-0.8-2.2-1.4-3.3-1.4
	C575.7,357.2,573,357.8,569.9,358.4z M382.1,359.9c-3.2-0.6-5.8-1.2-8.5-1.5c-1.2-0.1-2.9,0.1-3.5,0.8c-0.6,0.8-0.6,2.6-0.2,3.6
	c1.5,3.4,4.5,4.3,7.9,3.4C381.1,365.3,382.6,363,382.1,359.9z M356.4,371.3c-1.5-3.8-2.1-5.8-3.2-7.6c-0.6-1.1-2-2.3-3.1-2.4
	c-1.1,0-2.8,1-3.4,2.1c-1.8,3.4-0.3,6.5,2.6,8.1C350.9,372.4,353.6,371.4,356.4,371.3z M439.9,347.3c6.3,3.8,11.1,2.9,12.3-1.7
	c0.3-1.3,0-3.6-0.9-4.3c-0.9-0.7-3.2-0.7-4.3,0C444.5,342.9,442.5,345,439.9,347.3z M510,347.1c-0.6-4.6-4.4-5.9-7.9-7
	c-2.4-0.7-4.1,0.7-3.7,3.7C499.2,348.5,504.7,351.8,510,347.1z M599.8,360.1c-1.4,2.8-3.1,4.7-3.1,6.6c0,5.2,3.2,6,6.4,2.6
	c1.5-1.6,1.7-5,1.6-7.6C604.6,361.1,601.3,360.6,599.8,360.1z M551.9,330.5c0.6,0.4,1.2,0.8,1.7,1.2c2.1-2.2,5.9-4.3,6-6.5
	c0.2-3.7-3.5-5.4-7.7-5.7C551.9,323.3,551.9,326.9,551.9,330.5z M495.6,317.9c-3.3,4.9-1.7,9.8,3.7,10.9c1.4,0.3,3-0.4,4.5-0.7
	c-0.6-1.7-0.8-3.8-1.9-5.1C500.2,321.1,497.9,319.7,495.6,317.9z M455.4,318.7c-2.6,2-5.1,3.7-7.1,5.8c-0.9,0.9-1.5,2.9-1.1,3.9
	c0.3,0.8,2.4,1.4,3.7,1.3C456.6,329.2,458.8,324,455.4,318.7z M397.4,332.8c0.5-0.4,1-0.8,1.6-1.2c0-3.6,0-7.2,0-10.8
	c-0.5-0.3-1.1-0.6-1.6-0.9c-1.8,2.2-5,4.3-5.1,6.5C392.3,328.6,395.5,330.7,397.4,332.8z M504.9,367.2c4.6,5.1,6.3,4.6,10.1-3
	c-1.9-1.3-3.9-2.7-6.2-4.3C507.3,362.7,506.1,364.9,504.9,367.2z M438.5,344.6c-2.3-1.8-4.5-3.7-6.9-5.4c-1-0.7-2.4-0.9-3.6-1.3
	c-0.2,1.5-1,3.2-0.5,4.4C429.4,346.9,434.1,347.7,438.5,344.6z M512.5,344.1c5,3,10.2,1.4,11.3-3.7c0.2-1-0.4-2.5-1.2-3.3
	c-0.4-0.4-2.1,0.1-2.9,0.7C517.3,339.7,515.1,341.8,512.5,344.1z M407.7,369.9c6-7.4,5.8-13.5,0-16.8
	C407.7,358.4,407.7,363.7,407.7,369.9z M420.7,318.2c-0.5-4-7.9-8.6-11.6-7c-0.5,0.2-1.2,1.2-1.1,1.3c0.5,0.7,1.1,1.5,1.9,1.8
	C413.5,315.8,417.2,317,420.7,318.2z M543.4,311.8c-7.6-2.2-12.3,0.6-13.2,6C534.5,315.9,539,313.8,543.4,311.8z M543.3,351.3
	c-5,6.2-4.8,11.5,0,14.9C543.3,361.5,543.3,356.9,543.3,351.3z M421.2,301.7c-0.7,2.8-1.1,4.8-1.6,6.7c2.4-0.6,4.7-1.2,7.1-1.8
	c-0.1-0.5-0.1-0.9-0.2-1.4C425.1,304.3,423.8,303.4,421.2,301.7z M530.7,300.8c-2.7,1.9-4.1,2.9-5.5,3.9c0,0.5,0,1,0,1.4
	c2.1,0.5,4.2,1,6.3,1.6C531.3,305.8,531.1,303.9,530.7,300.8z"/>
<path class="st0" d="M412,535.7c-2.5,2-4.9,4-7.9,6.4c-1.3-2.6-2.3-4.5-3.5-6.8c-2.7,1-5.3,2-7.9,2.9c-3.6,1.2-4.9-0.3-3.7-3.7
	c1.5-4.1,3.5-8.1,5.2-12.1c-1.1-0.8-4.4-2.2-4.3-3.2c0.2-2.2,1.8-4.7,3.6-6.1c2.3-2,5.4-3.1,8.3-4.6c0.5-5.7,0.5-5.7,11.5-6.3
	c0.1-1.2,0.2-2.5,0.3-3.9c3.6,1.1,7,2.1,10.4,3.1c0.1-0.3,0.2-0.6,0.3-0.8c-1.5-0.9-3.6-1.4-4.4-2.7c-1.5-2.4-3.5-5.6-2.9-7.9
	c1.4-5.2,4.1-9.9,6.4-14.8c0.4-0.9,1.3-1.6,1.7-2.4c4-9.2,9.3-10.8,17.8-5.3c4.4-2.6,4.4-2.6,3.1-6c-1.8,0.7-3.6,1.3-5.9,2.2
	c-0.4-2.4-0.8-4.5-1.2-6.8c-4,0.1-8.4,0.4-7.5-5.9c0.1-0.5-1.6-1.4-2.6-1.9c-1.8-0.8-3.6-1.4-5.5-2.1c-0.2-0.5-0.4-1-0.5-1.5
	c3.1-2,6.2-4.1,9.7-6.4c-0.4-0.7-1.1-2.1-1.8-3.6c3.1-3.3,6.5-2.9,10.2-1.8c1.5,0.4,3.3-0.2,5-0.5c0.6-0.1,1.3-1,1.7-0.8
	c3.5,1.3,7.5,2.1,10.3,4.4c3.3,2.6,5.9,6.3,8.2,10c1.1,1.8,2,4.8,1.2,6.5c-2.9,6.1,2,8.4,4.3,12c0.6-0.1,1.2-0.2,1.8-0.3
	c0-3.1,0-6.1,0-9.2c0-5.8,0.1-11.7,0-17.5c0-2.8,0.7-4.4,3.9-4.4c3.2,0,3.8,1.5,3.8,4.4c-0.2,7.2-0.1,14.3-0.1,21.5
	c0,5.7,1.7,7.7,7.3,8.5c3.9,0.6,10.5-4.9,10.6-8.8c0.1-4.5,3-6.9,6.5-8.7c1.8-0.9,3.7-1.6,5.4-2.5c1.6-0.8,3.1-1.8,4.9-2.9
	c0.4,1.3,0.7,2.4,1,3.6c2-0.5,3.8-1,5.6-1.3c1-0.2,2.7-0.3,2.9,0.1c2.5,5.4,9.2,4.4,12.5,8.4c0.8,1,1.3,2.2,2.1,3.5
	c-1.5,1.1-2.6,1.9-4.1,3c2.4,3.9,7.2,6.6,6.1,12.6c-3-0.2-5.9-0.4-8.7-0.6c-2.5,5.8-2.5,5.8-9.4,2.2c-5,5.5-5,5.5-9,0.9
	c-5.3,3.4-5.3,3.4-12.2-6.8c-1.3,1.9-3.6,3.8-3.3,5.1c0.4,1.9,2.4,4.3,4.2,4.8c5.2,1.6,9.1,4.6,12.2,8.9c0.8,1.1,3.3,1.7,4.7,1.4
	c7.5-2,13,1.9,13.2,9.6c0,1.4,0.8,3.1,1.7,4.1c4,4.3,4.5,7.9,1.9,13c-0.7,1.3-1,3.1-0.7,4.6c0.9,5.3,0.1,9.5-5.3,12.1
	c-1.1,0.5-1.7,2.1-2.3,3.4c-1.2,2.6-2.1,5.4-3.2,8.1c1.1-0.2,2.7-0.6,4.8-1c0.1,1.3,0.3,2.5,0.4,3.9c1.7,0.2,3.5,0.4,5.3,0.7
	c1,0.2,2.7,0.6,2.7,1c0.5,5.5,6.2,5.6,8.8,8.8c3.1,3.7,2.7,5.9-1.7,8.2c1,2.8,2.4,5.5,2.9,8.4c0.8,4.6-0.9,5.9-5.3,4.1
	c-1.5-0.6-2.9-1.5-4.4-2.3c-4.3,5.1-4.3,5.1-11.6-0.6c-1,1.7-2.2,3.5-3.8,6.2c-1.8-3.1-2.9-5-4.1-6.9c-6.9,0.6-6.9,0.6-10.2-9.2
	c-5.9,0.1-5.8,0.8-4.2,6.2c1.9,6.3,6.6,7.7,11.8,9.2c2.3,0.7,4.6,1.7,6.9,2.6c-0.1,0.7-0.3,1.3-0.4,2c-7.3,0-14.7,0-22.7,0
	c1.3,2.1,2,3.2,3.4,5.6c-7.4,0.6-13.8,1.1-20.8,1.7c2,3.3,1.1,5.7-2.5,5c-10.1-1.7-20.1-4-30.2-6.1c-0.4-0.1-0.6-0.7-1.3-1.7
	c1.5-1.2,2.8-2.7,4.5-3.5c4.5-2.2,8.9-4.7,13.7-6.1c4.8-1.4,6.4-4.1,5.8-8.8c-0.2-1.6,0-3.3,0-5c0-18.1,0-18.2-11.4-32.2
	c-0.9-1.1-2.1-2.6-3.3-2.8c-1.3-0.3-4.1,0.8-4.1,1.2c0.2,3.8,0.1,7.8,1.5,11.2c1.6,3.8,3.4,7.1,1.1,11.2c-0.6,1.1-0.4,3.1,0.2,4.4
	c2.8,6,1.7,10.8-4.2,13.9c-2.4,1.3-3.2,2.6-3.5,5.3c-0.8,7.6-8.4,10.7-15,6.6c-1.9-1.2-4.3-2-6.6-2.4c-4.9-0.9-8.1-4.3-8.8-9.3
	c-0.3-2-1.5-4.3-3-5.6c-3.6-2.9-4.3-6.4-3.7-10.7c0.4-2.8,0.1-5.7,0.3-8.5c0.1-2.1,0-4.6,1-6.3C415.9,540.6,414.8,538.1,412,535.7z
	 M501.9,494.5c-6.6,3.7-12.9,7-19,10.8c-1.2,0.7-1.9,3-1.9,4.6c-0.2,5.1,0.4,10.4-0.2,15.5c-1.2,10.1,1.3,18.5,9.1,25.4
	c2,1.7,3.3,4.1,4.9,6.3c2.9,3.8,12,3.5,13.1-0.9c1.3-5.4,4.7-7.8,9.8-9.8c-5-3.1-9.4-5.8-13.7-8.7c-1.3-0.9-2.4-2.4-2.9-3.9
	c-2.4-6.9-4.5-13.8-6.7-20.8c-1.6-5-0.3-8.9,4.5-11.3C502.3,499.7,502.3,497.2,501.9,494.5z M417.1,507.4
	c-10.1-4.5-11.8-3.9-12.6,3.8c-4.4,1.5-10.4,0.9-11.7,7.5c2.7,0.9,5,1.6,6.8,2.2c-3.2,4.9-6.2,9.4-9.2,13.8c0.5,0.5,1,0.9,1.5,1.4
	c3.3-1.4,6.5-2.8,10-4.3c1,2.1,2,4.2,3.2,6.7c2.5-2.7,4.6-4.9,6.9-7.4c1.9,2.4,3.5,4.5,4.7,6c2.9-3,5.2-7,8.5-8.4
	c3.7-1.6,6.1-3.2,6.4-8.3c5.4,2.5,10.2,4.6,15,6.8c3-3.2,2.2-5.8-1.7-7c-7.5-2.3-13-7.7-18-13c-3-3.1-5.6-4.6-9.8-4.8
	C417.1,504,417.1,505.4,417.1,507.4z M545.4,578c0.6-0.4,1.2-0.9,1.8-1.3c-2.1-3.7-4.2-7.3-6.3-11.1c2.3-0.7,4.2-1.3,7.5-2.3
	c-2.8-2.2-4.4-4.4-6.5-5c-2.9-0.8-5.5-0.8-5.1-4.9c0.1-0.5-3.2-1.7-4.9-1.9c-1.3-0.2-2.7,0.8-4.1,1.3c-0.5-1.6-0.5-3.2-1.3-3.8
	c-3.9-2.8-14.4,1.9-15.7,6.5c-0.5,1.7-2.1,3.4-3.6,4.6c-1.4,1.1-3.5,1.2-5,2.1c-0.9,0.6-1.4,1.9-2,2.9c1.1,0.3,2.4,1,3.4,0.7
	c2.9-0.7,5.6-1.8,8.5-2.7c1.9,10.5,1.9,10.5,10.1,9.3c0.5,1.8,1,3.6,1.7,5.8c2.1-2,3.8-3.5,5.4-5c1.8,2.3,3.3,4.2,5.2,6.5
	c1.7-2.3,2.9-4,4-5.5C540.9,575.5,543.1,576.8,545.4,578z M531.2,471c2.6,0.5,4.9,1,7.2,1.5c0.3-0.5,0.7-1,1-1.5
	c-2.9-2.9-5.7-5.8-8.7-8.9c1.8-1.1,3.7-2.2,6.7-4c-2.7-1.4-4.4-2.9-6-2.9c-3.9-0.1-7.1-0.7-7.9-5.8c-3.2,1.3-5.9,2.5-8.8,3.7
	c-1.9-4.7-5.2-1.7-7.7-0.7c-3.2,1.3-6.7,3.1-5.9,7.5c0.6,3.2-0.4,5-3.2,6.4c-1.8,0.9-3.7,1.9-4.9,3.3c-0.9,1.1-0.9,2.9-1.2,4.4
	c1.4-0.2,3.2,0.1,4.2-0.7c2.8-1.9,5.3-4.3,8-6.6c1.8,3.8,3.3,7.2,5.1,11c2.6-2,4.2-3.3,6-4.7c1.2,1.8,2.2,3.3,3.4,5.2
	c1.4-2.3,2.6-4.3,3.9-6.5c2.1,1.8,3.9,3.3,6.2,5.2C529.7,474.6,530.3,473,531.2,471z M459.4,458.1c1.3,1.9,2.4,4,3.9,5.7
	c1.3,1.5,3.1,2.7,4.6,4.1c-0.5-1.9-1-3.8-1.6-5.6c-0.8-2.4-3-5.5-2.2-6.9c2.4-4,1.2-7-1.5-9.4c-4.1-3.6-8.7-6.7-13.1-10
	c-0.4-0.3-1.3-0.4-1.4-0.3c-3.4,4.8-6.6,0.4-9.8-0.2c-1.1-0.2-2.3,0-4.5,0c2.2,2.7,3.7,4.5,5.1,6.1c-4,0.9-7.8,1.7-11.5,2.6
	c0,0.6,0.1,1.2,0.1,1.9c2,0.6,4.5,0.6,5.7,2c1.3,1.4,1.2,4,1.8,6.4c1.9-0.3,4-0.6,6.3-0.9c0.3,2.3,0.7,4.3,1,6.8
	c1.7-1.1,3-2,4.2-2.8C452.4,464.2,452.4,464.2,459.4,458.1z M473.3,478.6c-7.4,0.4-11.5,2.6-11.2,6.3c0.5,4.9-1.1,8.4-4.8,11.3
	c-0.8,0.6-1.2,1.9-1.4,3c-1.1,6.3-3.6,8.5-9.6,9.5c-3.3,0.6-6.3,2.3-9.5,3.5c0.1,0.6,0.1,1.2,0.2,1.8c4.8,2.1,9.5,4.5,14.5,6.3
	c2.5,0.9,4.5-0.5,5-3.4c1.3-9.1,6.4-15.5,14-20.3c1.3-0.8,2.6-2.8,2.8-4.3C473.5,487.9,473.3,483.4,473.3,478.6z M472.4,541.7
	c0.5-0.4,1.1-0.7,1.6-1.1c-1.9-3.3-3.4-6.9-5.8-9.9c-8.5-11-2.6-23,7.2-27.4c4.4-2,9-3.6,13.2-6c2.6-1.5,5.3-3.6,6.9-6.1
	c1.9-3,3.7-3.3,6.6-2.3c1.9,0.7,4,1,6.1,1.4c0.2-0.7,0.4-1.4,0.6-2c-2.1-0.9-4.2-2.3-6.5-2.7c-3.3-0.6-5-2.3-7.1-5
	c-3.3-4.3-7.6-8.4-14-8.2c1.3,1.9,3.1,2.9,5,3.9c3.9,2,7.1,4.6,7.3,9.3c0.2,4.7-2.9,7.2-6.7,9c-2,0.9-4,1.7-5.9,2.7
	c-3.8,1.9-7.9,3.6-11.4,6.1c-7.2,5.1-9.1,12.7-8.9,21c-10.1,1.8-10.1,1.8-11.1,6.3C462.8,522.8,466,535.4,472.4,541.7z M429.8,544.3
	c4.1,0,7.5-3.1,7.4-7c0-4-3.7-7.4-7.8-7.4c-4.1,0-7.4,3.1-7.5,7.1C421.9,540.7,425.6,544.2,429.8,544.3z M457.4,474.5
	c0.1-3.2-3.7-7.4-6.7-7.5c-3.6-0.2-7.9,4-7.8,7.6c0.1,3.5,4,6.8,7.9,6.7C454,481.3,457.3,477.9,457.4,474.5z M452.2,539.2
	c0.1-3.9-3.6-7.9-7.4-7.9c-3.7,0-5.7,3.4-5.8,9.9c0,3.7,2.7,4.7,5.6,5C448.3,546.5,452,542.9,452.2,539.2z M440.7,472.2
	c0.2-3.9-2.2-5.2-5.6-5.3c-4.7-0.2-7.3,2.3-7.3,6.8c0,4.1,2.7,6.9,6.7,7.1C439,480.9,440.5,478.9,440.7,472.2z M482.3,561.5
	c-0.5,0.2-0.9,0.4-1.4,0.5c0,4.9-0.2,9.8,0.1,14.6c0.1,1.2,1.7,3.2,2.8,3.4c3.2,0.5,6.6,0.2,11.4,0.2
	C490.4,573.1,486.3,567.3,482.3,561.5z M504.1,498.8c0.1,3.3,3.6,6.6,6.9,6.5c3.8-0.1,6.5-2.9,6.5-6.8c0-4.3-2.8-6.8-6.9-6.6
	C506.8,492.2,504,495.1,504.1,498.8z M429.6,561.5c-0.1-2.7-1.1-4.5-4.6-3.7c-1.6,0.4-3.3,0.3-4.9,0c-4.4-0.7-6.1,0.7-5.4,5
	c0.7,4.4,3.7,6,7.9,5.8C426.9,568.4,429.5,565.8,429.6,561.5z M419.3,541.8c-0.9,0.8-2.5,1.6-2.6,2.6c-0.3,2.9-1.1,7,0.4,8.6
	c1.8,1.8,5.9,2,8.8,1.6c1.4-0.2,2.9-3.3,3.3-5.4c0.2-0.9-2-2.5-3.4-3.4C424,544.4,421.9,543.4,419.3,541.8z M500.4,501.3
	c-1.9,3.9-3.9,6.4-4.3,9.1c-0.5,3.3,3.8,7,6.7,6.8c3-0.2,7.5-5,6.1-7.3C507.3,506.9,504.2,504.9,500.4,501.3z M522.9,506.5
	c5.2-0.2,8.8-3.8,8.3-7.2c-0.6-3.8-2.9-6.5-7-6.3c-7.7,0.3-1.9,7-4.3,10C519.6,503.2,522.3,505.8,522.9,506.5z M421.6,574.7
	c-0.1,3.7,3,7.1,6.7,7.3c3.3,0.2,6.9-2.6,7.1-5.7c0.1-1.9-5.5-7.2-7.5-6.5C425.4,570.7,421.5,570.3,421.6,574.7z M432.7,559.8
	c-0.7,3.1-2.1,5.6-1.4,7.5c0.6,1.7,3.1,3.3,5.1,3.7c3.5,0.7,8.3-3.9,7.8-7.4C442.9,554.6,436.5,562.1,432.7,559.8z M455.6,550.6
	c-0.8-0.8-2.3-3.6-4.2-3.8c-4.4-0.5-8.6,4.2-7.9,8.8c0.2,1.5,2.9,3.3,4.7,3.6C452.2,559.9,455.5,556.4,455.6,550.6z M447.3,577.7
	c-1.6-1.2-4-3-6.5-4.8c-1.1,1.5-2.2,3-3.1,4.6c-0.6,1-0.7,2.3-1.4,3.1c-3.1,3.8-0.2,5,2.6,5.8C442.8,587.5,447.3,583.6,447.3,577.7z
	 M482.1,548.7c-0.7,0.5-1.4,0.9-2.1,1.4c6.7,9.6,13.5,19.2,20.2,28.7c0.5-0.4,1.1-0.7,1.6-1.1C497.6,566.5,489.3,558,482.1,548.7z
	 M525.3,512.4c-0.5,3.9,0.8,6.2,4.7,6.2c3.9,0,6.7-2,6.2-5.9c-0.3-2.3-2.2-5.2-4.2-6.3C529.9,505.1,525.3,509.9,525.3,512.4z
	 M456.3,564.8c-0.9-0.7-2.5-3.1-4.5-3.4c-3.1-0.5-8.1,5.4-7.4,9c0.3,1.3,3.3,2.8,5.1,2.9C453.3,573.7,456.5,570.1,456.3,564.8z
	 M527.6,537.9c-2.1-2.5-3.4-5-5.4-6.2c-3-1.7-3.8,1.3-4.9,3.3c-0.6,1-1.8,1.8-2,2.8c-0.3,1.5-0.5,4.2,0.1,4.5
	c2.1,0.9,4.8,1.8,6.8,1.2C524.1,542.8,525.4,540.3,527.6,537.9z M436,557.6c2.8-0.1,5.9-2.1,5.4-5.9c-0.3-2.5-2.8-6.1-5.1-6.8
	c-3-0.9-4.4,2.3-4.4,5.5c0,0.6-0.3,1.3-0.6,1.9C429.8,556.3,430.6,557.6,436,557.6z M514.4,517.8c5.7-0.1,8.7-2.4,8.3-5.8
	c-0.3-2.2-3.9-5.1-6.3-5.4c-4.1-0.5-5.5,3.4-5.2,6.7C511.3,515.1,513.6,516.8,514.4,517.8z M442.5,478.8c-2.6,3-4.5,5.1-6.4,7.3
	c2.1,1.7,4.2,4.7,6.3,4.7c2.1,0,4.3-2.9,6.5-4.5C447,484.1,445.1,481.8,442.5,478.8z M447.3,494.4c3.9-0.4,7,0.1,9.1-1.2
	c1.7-1,2.8-4,3-6.2c0.1-1.5-1.5-4.3-2.7-4.5c-1.4-0.3-3.7,1.2-4.7,2.6C450.4,487.3,449.5,490,447.3,494.4z M524.8,518.4
	c-3.7,0.8-6.3,0.8-8.3,1.9c-1.6,0.8-3.4,2.7-3.6,4.4c-0.2,1.1,2.1,3.6,3.4,3.7c2.4,0.2,5.8-0.2,7.1-1.8
	C524.7,524.7,524.3,521.4,524.8,518.4z M440.3,500.6c0.5-0.1,1.8,0.1,2.4-0.4c1.6-1.2,2.8-2.8,4.2-4.2c-1.5-0.9-3-1.8-4.6-2.5
	c-1.5-0.7-3.2-1-4.6-1.6c-3.6-1.6-4.6,0.1-4.3,3.3C433.8,498.8,436.1,500.6,440.3,500.6z M516.1,531.7c-2-1.2-3.6-2.9-5.4-3
	c-2.5-0.1-6.4,0.2-7.4,1.7c-1.8,2.9,1,5.1,3.7,6.4C510.8,538.4,513.6,536.9,516.1,531.7z M498.6,519.8c-0.7,3.8,1.6,5.7,4.9,6.5
	c3.4,0.8,5.9-0.8,7-3.9c0.4-1.1,0.1-2.9-0.6-3.9c-0.5-0.6-2.2-0.7-3.3-0.5C504.1,518.3,501.6,519.1,498.6,519.8z M524.7,529.7
	c1.6,2.7,3.7,3.9,6.7,1.7c3.1-2.3,3.9-5.3,2.2-8.7c-0.5-0.9-2.4-1.6-3.7-1.5c-0.9,0-2.2,1.2-2.7,2.1
	C526.2,525.2,525.5,527.4,524.7,529.7z M419.7,486.7c0.2,3.3-0.6,6.8,0.7,8c2,1.8,5.3,2.3,8.2,2.9c0.6,0.1,2-1.6,2.2-2.7
	c0.2-0.8-0.7-2.2-1.5-2.7C426.7,490.5,423.9,489,419.7,486.7z M435.1,487.5c-3.5-3.7-6.6-7-9.8-10.3c-2.5,3.1-3.7,5.8-0.9,8.8
	C426.9,488.7,429.7,491,435.1,487.5z M440.4,507.9c-1.6-2.2-2.5-4.3-4-5.1c-2.3-1.3-5-1.6-7.5-2.4c-0.3,1.5-1.3,3.9-0.7,4.4
	c2.2,1.9,4.9,3.3,7.6,4.4C436.8,509.7,438.4,508.6,440.4,507.9z M480.8,492.4c3.1-1.9,5.2-2.6,6.2-4c0.8-1.1,1.1-3.6,0.4-4.7
	c-1.1-1.6-3.2-2.4-4.9-3.6c-0.6,1.5-1.4,3-1.6,4.6C480.6,486.7,480.8,488.8,480.8,492.4z M440.3,505c3.2,0.4,5.8,1.5,7.8,0.8
	c2-0.7,3.7-3,5-4.9c0.4-0.6-0.4-2.4-1.1-3.4c-0.2-0.3-1.9-0.1-2.5,0.4C446.8,499.8,444.2,502,440.3,505z M472.9,528.7
	c0-5.9,0-11.3,0-17.1C467.6,516.8,467.6,521.6,472.9,528.7z M473.3,472c-7.8-2.2-13,0.8-13.8,5.9C464,476,468.7,474,473.3,472z
	 M433.6,523.8c-0.9,4.5,2,5.9,4.5,7.2c0.5,0.3,2.2-0.8,2.6-1.6c0.3-0.7,0-2.5-0.7-2.9C438.2,525.4,436,524.7,433.6,523.8z
	 M454.8,464.9c-0.1,0.5-0.2,1-0.3,1.5c2.1,0.6,4.3,1.2,6.4,1.7c-0.3-1.9-0.6-3.9-1-6.6C457.4,463.1,456.1,464,454.8,464.9z"/>
<path class="st0" d="M391.5,730.1c-4.1-1.5-5.6,0.1-5.9,3.4c-0.2,2.1-0.5,4.3-1.2,6.3c-0.3,0.8-1.6,1.2-2.5,1.9
	c-0.6-0.8-1.6-1.6-1.6-2.5c-0.1-1.6,0-3.4,0.5-4.9c1-3.6,1-6.6-4.1-7.3c0-0.5,0.1-1,0.1-1.5c1.7-0.4,3.5-1.4,5.1-1.2
	c5.7,0.6,11.5,1.6,17.2,2.4c6.2,0.9,7.3,2.8,6,9c-0.5,2.2-0.1,4.6,0.8,7.3c1-2,2-4,3-6c1-2.1,1.8-4.3,3.2-6.2c0.7-1,2.5-1.8,3.7-1.7
	c0.9,0.1,2.2,1.5,2.5,2.6c1.1,3.6,2,7.4,2.7,11.1c0.2,1.1-0.4,2.4-0.7,3.6c-1.1-0.4-2.7-0.5-3.3-1.3c-1.9-2.6-3.8-2.6-6.3-1
	c-4.3,2.7-8.7,1.1-10.6-3.6c-0.4-1-1.7-2.2-2.6-2.4c-0.7-0.1-1.7,1.4-2.5,2.2c-1,1-2,2.1-2.9,3.1c-0.5-1.4-1.2-2.8-1.3-4.2
	c-0.1-1.5,0.3-3,0.5-4.4C391.4,733.1,391.4,731.7,391.5,730.1z"/>
<path class="st0" d="M428.9,739.2c-1.4,3.5-2.3,5.9-3.3,8.4c-0.8-0.2-1.7-0.4-2.5-0.6c0.5-5.6,0.9-11.1,1.4-16.7
	c7.2-0.6,5.8,6.1,9.2,8.7c0.4-2,0.5-4,1.1-5.9c0.2-0.7,1.3-1.2,2-1.8c0.6,0.7,1.6,1.4,1.6,2.1c-0.2,4.1-0.6,8.3-1.2,12.4
	c-0.1,0.8-1.6,2-2.4,1.9c-1.1-0.1-2.4-1-3-2C430.8,743.8,430,741.6,428.9,739.2z"/>
<path class="st0" d="M452.9,738.4c-2.5-0.9-4.8-1.8-7-2.7c1.9,4.4,10.4,4.2,6.6,11.1c-0.9,1.7-4.8,2.7-7.2,2.6
	c-3.2-0.1-6-1.9-5.8-6.8c3,1.1,5.5,2,8.1,2.9c-2.1-4.2-10.3-4.7-6-11.5c1.1-1.7,5.3-2.1,8-1.9C452.2,732.5,454,734.7,452.9,738.4z"
	/>
<path class="st0" d="M469.4,744c0.2-1.4,0.4-4,1-6.6c0.2-0.9,1.4-1.5,2.1-2.3c0.7,0.9,2,1.8,2,2.8c0.1,2.3-0.8,4.6-0.6,6.9
	c0.1,1.3,1.4,2.5,2.2,3.8c0.9-1,2.2-1.9,2.6-3c0.6-1.8,0.3-4,1-5.8c0.5-1.3,1.8-2.3,2.7-3.4c0.6,1.2,1.6,2.4,1.6,3.6
	c0.1,2.3-0.3,4.6-0.7,6.9c-0.9,5.1-3.2,7.2-7.5,6.7C471.1,753,469.3,750.7,469.4,744z"/>
<path class="st0" d="M509.9,744.7c-1-0.5-2-0.7-2.7-1.3c-0.6-0.6-1.3-1.5-1.3-2.3c0-0.4,1.2-1.4,1.8-1.3c3.4,0.3,6.9,0.7,10.2,1.3
	c0.3,0.1,0.2,2.1,0.4,3.3c-4.5,0.3-4.3,3.7-4.6,6.9c-0.1,1.1-0.2,2.4-0.8,3.4c-0.6,1.1-1.8,1.8-2.7,2.7c-0.5-1.2-1.5-2.5-1.4-3.7
	C508.8,750.7,509.5,747.8,509.9,744.7z"/>
<path class="st0" d="M490.6,742.5c-0.1,1,0.1,2-0.2,3c-1.1,3.6,0,5.7,4,6c0.9,0.1,1.8,1.4,2.6,2.1c-1.1,0.6-2.1,1.6-3.2,1.6
	c-2,0.1-4.2,0-5.8-0.8c-1.3-0.7-2.8-2.5-2.9-3.9c-0.2-2.8,0.3-5.6,1.1-8.3c0.5-1.7,2-3.1,3-4.7c0.7,1.6,1.4,3.1,2.1,4.7
	C491.1,742.3,490.9,742.4,490.6,742.5z"/>
<path class="st0" d="M455.3,733c4.5,0.5,8.1,0.9,11.7,1.4c0.7,0.1,1.4,0.7,1.8,1.3c0.2,0.3-0.3,1.6-0.6,1.7
	c-6.2,0.8-4.1,6.1-5.3,9.6c-0.3,0.8,0,1.8-0.4,2.4c-0.5,0.7-1.4,1.6-2.1,1.5c-0.7-0.1-1.8-1.2-1.8-1.9c-0.1-1.6,0.4-3.2,0.4-4.9
	c0.1-2.9,1.7-6.4-2.8-7.8C455.8,736.2,455.8,734.7,455.3,733z"/>
<path class="st0" d="M504.8,742.8c-0.8,4.2-1.1,7.4-1.9,10.4c-0.3,1-1.6,1.6-2.5,2.4c-0.5-1.2-1.5-2.3-1.4-3.5c0.1-3,0.3-6,1-8.8
	c0.3-1.5,1.6-2.7,2.5-4.1C503.3,740.6,504.3,742.1,504.8,742.8z"/>
<path class="st0" d="M607.8,667.4c1.6-0.2,3.1-0.5,4.7-0.4c1,0.1,1.9,0.8,2.9,1.3c-0.7,0.8-1.2,1.9-2,2.3c-1.6,0.8-3.3,1.1-5,1.6
	c0,0.5,0.1,1.1,0.1,1.6c1.7,0,3.4-0.2,5,0.1c1.3,0.2,2.4,1.1,3.6,1.6c-0.9,0.8-1.7,2-2.7,2.3c-3,0.7-6.1,1.1-9.6,1.7
	c-0.8-4.8-1.9-9.2-2.1-13.6c-0.1-1.4,1.9-4,3.3-4.3c6.3-1.3,12.8-2.1,19.2-2.8c1.3-0.2,2.7,0.5,4.1,0.8c-0.8,1.1-1.8,2.1-2.2,3.3
	c-0.6,2-0.9,4.1-1.2,6.1c-0.4,2.5-0.7,5-1.1,7.5c-1.1-2.3-2.7-4.5-3.2-6.9c-1.2-5.9-1.5-6.3-7.5-5.2c-2.2,0.4-4.3,0.8-6.5,1.2
	C607.6,666.2,607.7,666.8,607.8,667.4z"/>
<path class="st0" d="M595.3,670.3c-0.2-1.4-0.8-2.8-0.6-4.2c0.1-1.1,1.1-2,1.7-3c0.9,0.8,2.4,1.4,2.6,2.3c0.8,3.7,1.3,7.5,1.6,11.3
	c0.1,1-0.8,3-1.4,3.1c-1.2,0.2-3-0.3-3.9-1.2c-1.8-1.7-3.1-3.8-5.2-6.5c0.3,3.6,0.6,6.2,0.8,8.8c-0.5,0.3-1,0.6-1.5,0.9
	c-1-1.2-2.5-2.2-2.8-3.6c-0.8-3.4-1.2-6.8-1.6-10.3c-0.1-1,0.3-2.7,0.8-2.9c1.1-0.4,2.8-0.3,3.6,0.4c1.8,1.4,3.2,3.3,4.7,5.1
	C594.6,670.4,595,670.4,595.3,670.3z"/>
<path class="st0" d="M520.7,699.9c5.9,0.3,9.2-8.2,13.8-2c1.2,1.7,0.8,5.5-0.3,7.8c-1.5,3.1-4.7,3.7-9.3,2.3
	c2.7-2.4,4.8-4.3,6.9-6.1c-0.2-0.5-0.4-0.9-0.7-1.4c-4.2,1.4-8.3,8-12.5,1.7c-1.1-1.7,0.1-5.8,1.5-8c1.5-2.5,4.5-3.3,8-0.4
	C525.8,695.7,523.8,697.4,520.7,699.9z"/>
<path class="st0" d="M549.7,691.1c-2.1,2.1-3.7,4.9-5.9,5.5c-2.2,0.7-5.8,0-7.5-1.5c-2.4-2.1-3.8-5.4-5.3-8.4
	c-0.4-0.8,0.4-2.2,0.6-3.3c1,0.3,2.4,0.3,2.9,1c1.6,2.1,2.8,4.6,4.4,6.6c0.7,0.9,2.3,1.1,3.6,1.6c0.2-1.3,1-2.8,0.5-3.9
	c-0.9-2.3-2.7-4.3-3.6-6.5c-0.4-1.1,0.3-2.6,0.5-3.9c1.1,0.5,2.6,0.7,3.2,1.6C545.4,683.2,547.2,686.7,549.7,691.1z"/>
<path class="st0" d="M559.5,683.8c-3.4-2.6-11.3,2.7-11-6c0.1-3.7,2.8-5,6.1-5.3c2.6-0.2,5.4-0.6,5.9,3.7c-2.6,0.2-5.1,0.5-7.5,0.7
	c0,0.6,0.1,1.2,0.1,1.7c1.6,0,3.5-0.5,4.9,0.1c2.2,0.9,5.8,2.4,5.8,3.7c0.1,2.2-1.7,5.6-3.7,6.4c-2.3,1-5.5,0-8.3-0.3
	c-0.3,0-0.7-1.9-0.5-2.1c0.8-0.6,1.9-1,2.9-1.1c1.7-0.2,3.5,0,5.2,0C559.5,684.8,559.5,684.3,559.5,683.8z"/>
<path class="st0" d="M575.9,669.8c-4.8,1.6-4.9,4.5-3.3,8c0.6,1.4,1,2.9,1,4.3c0,1.1-0.8,2.1-1.2,3.2c-1-0.7-2.3-1.2-2.8-2.2
	c-0.8-1.8-1.1-3.8-1.6-5.7c-0.6-2.2-0.7-4.9-4.3-4c-0.3,0.1-1.6-2.1-1.4-2.6C563.2,668.7,573.1,667.7,575.9,669.8z"/>
<path class="st0" d="M583.1,683.4c-1.2-0.9-3.1-1.7-3.4-2.8c-1.1-3.8-1.8-7.7-2.4-11.6c-0.1-0.9,0.6-1.9,1-2.8c1,0.6,2.7,1,2.9,1.8
	c1.3,4.7,2.2,9.5,3.3,14.3C583.9,682.7,583.5,683,583.1,683.4z"/>
<path class="st0" d="M310.3,696.6c-2.6-1.1-4.8-1.9-6.9-2.9c-4.4-2.1-5.9-5.6-4.5-10.2c1.6-5.4,4.9-7.7,9.8-6.9
	c5.8,0.9,8.4,5.6,6.1,11.6C313.8,690.9,312,693.5,310.3,696.6z M304.2,689c3.1-1.2,7.7-0.5,6.6-5.8c-0.2-1.1-3-2.9-3.8-2.6
	C303.4,682.1,302.7,685.2,304.2,689z"/>
<path class="st0" d="M323.5,700.9c-7.3-0.2-10.1-4.2-8.2-9.8c0.9-2.5,1.8-5,3-7.4c0.5-0.9,2-1.2,3.1-1.7c0.3,1.1,1.2,2.4,0.9,3.3
	c-0.7,2.5-2.1,4.9-2.8,7.5c-0.3,1,0.5,2.2,0.9,3.4c1.1-0.4,2.8-0.5,3.3-1.3c1.4-2.3,2.1-4.9,3.3-7.2c0.5-0.9,1.9-1.4,2.9-2
	c0.4,1.2,1.4,2.6,1.1,3.6c-0.8,2.9-1.8,5.8-3.4,8.2C326.6,699.2,324.4,700.2,323.5,700.9z"/>
<path class="st0" d="M338.1,690.1c-2,4.5-3.8,8.9-5.9,13.2c-0.2,0.5-2,0.8-2.5,0.4c-0.6-0.4-1.2-1.8-0.9-2.5c1.5-4,3.1-8,4.9-11.9
	c0.3-0.7,1.9-1,2.9-1.1C337,688.2,337.5,689.3,338.1,690.1z"/>
</svg>
